{
  "title" : "",
  "description" : "",
  "author" : "",
  "targetLoudness" : -18.0,
  "shouldApplyLoudnessNormalization" : true,
  "videoFormatFrameRate" : 30,
  "audioFormatSampleRate" : 44100,
  "width" : 1366.0,
  "height" : 768.0,
  "version" : "3.0",
  "editRate" : 30,
  "authoringClientName" :  {
    "name" : "Camtasia",
    "platform" : "Mac",
    "version" : "2019.0.4"
  },
  "sourceBin" : [
    {
      "id" : 1,
      "src" : "./recordings/1570622822.236005/Rec 10-9-2019.trec",
      "rect" : [0, 0, 1366, 768],
      "lastMod" : "20191009T111925",
      "sourceTracks" : [
        {
          "range" : [0, 2202],
          "type" : 0,
          "editRate" : 30,
          "trackRect" : [0, 0, 1366, 768],
          "sampleRate" : 29,
          "bitDepth" : 0,
          "numChannels" : 0,
          "integratedLUFS" : 100.0,
          "peakLevel" : -1.0,
          "metaData" : "2b7b6a01-7a1f-11e2-83d0-0017f200be7f;2b7b6af0-7a1f-11e2-83d0-0017f200be7f;2b7b6af1-7a1f-11e2-83d0-0017f200be7f;2b7b6af2-7a1f-11e2-83d0-0017f200be7f;2b7b6af3-7a1f-11e2-83d0-0017f200be7f;2b7b6af5-7a1f-11e2-83d0-0017f200be7f;2b7b6af6-7a1f-11e2-83d0-0017f200be7f;2b7b6af7-7a1f-11e2-83d0-0017f200be7f;2b7b6af8-7a1f-11e2-83d0-0017f200be7f;2b7b6af9-7a1f-11e2-83d0-0017f200be7f;2b7b6afa-7a1f-11e2-83d0-0017f200be7f;2b7b6afb-7a1f-11e2-83d0-0017f200be7f;2b7b6afc-7a1f-11e2-83d0-0017f200be7f;"
        },
        {
          "range" : [0, 3245056],
          "type" : 2,
          "editRate" : 44100,
          "trackRect" : [0, 0, 0, 0],
          "sampleRate" : 44100,
          "bitDepth" : 16,
          "numChannels" : 2,
          "integratedLUFS" : -24.7234702026952,
          "peakLevel" : 0.77392578125,
          "metaData" : ""
        }
      ]
    },
    {
      "id" : 2,
      "src" : "./recordings/1570622822.236264/Rec 10-9-2019 5.trec",
      "rect" : [0, 0, 1366, 768],
      "lastMod" : "20191009T113457",
      "sourceTracks" : [
        {
          "range" : [0, 6002],
          "type" : 0,
          "editRate" : 30,
          "trackRect" : [0, 0, 1366, 768],
          "sampleRate" : 30,
          "bitDepth" : 0,
          "numChannels" : 0,
          "integratedLUFS" : 100.0,
          "peakLevel" : -1.0,
          "metaData" : "2b7b6a01-7a1f-11e2-83d0-0017f200be7f;2b7b6af0-7a1f-11e2-83d0-0017f200be7f;2b7b6af1-7a1f-11e2-83d0-0017f200be7f;2b7b6af2-7a1f-11e2-83d0-0017f200be7f;2b7b6af3-7a1f-11e2-83d0-0017f200be7f;2b7b6af5-7a1f-11e2-83d0-0017f200be7f;2b7b6af6-7a1f-11e2-83d0-0017f200be7f;2b7b6af7-7a1f-11e2-83d0-0017f200be7f;2b7b6af8-7a1f-11e2-83d0-0017f200be7f;2b7b6af9-7a1f-11e2-83d0-0017f200be7f;2b7b6afa-7a1f-11e2-83d0-0017f200be7f;2b7b6afb-7a1f-11e2-83d0-0017f200be7f;2b7b6afc-7a1f-11e2-83d0-0017f200be7f;"
        },
        {
          "range" : [0, 8842240],
          "type" : 2,
          "editRate" : 44100,
          "trackRect" : [0, 0, 0, 0],
          "sampleRate" : 44100,
          "bitDepth" : 16,
          "numChannels" : 2,
          "integratedLUFS" : -24.4541393532937,
          "peakLevel" : 0.80780029296875,
          "metaData" : ""
        }
      ]
    },
    {
      "id" : 3,
      "src" : "./recordings/1570622822.236459/Rec 10-9-2019 8.trec",
      "rect" : [0, 0, 1366, 768],
      "lastMod" : "20191009T120427",
      "sourceTracks" : [
        {
          "range" : [0, 2453],
          "type" : 0,
          "editRate" : 30,
          "trackRect" : [0, 0, 1366, 768],
          "sampleRate" : 30,
          "bitDepth" : 0,
          "numChannels" : 0,
          "integratedLUFS" : 100.0,
          "peakLevel" : -1.0,
          "metaData" : "2b7b6a01-7a1f-11e2-83d0-0017f200be7f;2b7b6af0-7a1f-11e2-83d0-0017f200be7f;2b7b6af1-7a1f-11e2-83d0-0017f200be7f;2b7b6af2-7a1f-11e2-83d0-0017f200be7f;2b7b6af3-7a1f-11e2-83d0-0017f200be7f;2b7b6af5-7a1f-11e2-83d0-0017f200be7f;2b7b6af6-7a1f-11e2-83d0-0017f200be7f;2b7b6af7-7a1f-11e2-83d0-0017f200be7f;2b7b6af8-7a1f-11e2-83d0-0017f200be7f;2b7b6af9-7a1f-11e2-83d0-0017f200be7f;2b7b6afa-7a1f-11e2-83d0-0017f200be7f;2b7b6afb-7a1f-11e2-83d0-0017f200be7f;2b7b6afc-7a1f-11e2-83d0-0017f200be7f;"
        },
        {
          "range" : [0, 3615744],
          "type" : 2,
          "editRate" : 44100,
          "trackRect" : [0, 0, 0, 0],
          "sampleRate" : 44100,
          "bitDepth" : 16,
          "numChannels" : 2,
          "integratedLUFS" : -23.4459647337147,
          "peakLevel" : 0.62322998046875,
          "metaData" : ""
        }
      ]
    },
    {
      "id" : 4,
      "src" : "./recordings/1570623769.601227/Rec 10-9-2019 10.trec",
      "rect" : [0, 0, 1366, 768],
      "lastMod" : "20191009T121907",
      "sourceTracks" : [
        {
          "range" : [0, 936],
          "type" : 0,
          "editRate" : 30,
          "trackRect" : [0, 0, 1366, 768],
          "sampleRate" : 29,
          "bitDepth" : 0,
          "numChannels" : 0,
          "integratedLUFS" : 100.0,
          "peakLevel" : -1.0,
          "metaData" : "2b7b6a01-7a1f-11e2-83d0-0017f200be7f;2b7b6af0-7a1f-11e2-83d0-0017f200be7f;2b7b6af1-7a1f-11e2-83d0-0017f200be7f;2b7b6af2-7a1f-11e2-83d0-0017f200be7f;2b7b6af3-7a1f-11e2-83d0-0017f200be7f;2b7b6af5-7a1f-11e2-83d0-0017f200be7f;2b7b6af6-7a1f-11e2-83d0-0017f200be7f;2b7b6af7-7a1f-11e2-83d0-0017f200be7f;2b7b6af8-7a1f-11e2-83d0-0017f200be7f;2b7b6af9-7a1f-11e2-83d0-0017f200be7f;2b7b6afa-7a1f-11e2-83d0-0017f200be7f;2b7b6afb-7a1f-11e2-83d0-0017f200be7f;2b7b6afc-7a1f-11e2-83d0-0017f200be7f;"
        },
        {
          "range" : [0, 1381376],
          "type" : 2,
          "editRate" : 44100,
          "trackRect" : [0, 0, 0, 0],
          "sampleRate" : 44100,
          "bitDepth" : 16,
          "numChannels" : 2,
          "integratedLUFS" : -24.4346137794697,
          "peakLevel" : 0.44976806640625,
          "metaData" : ""
        }
      ]
    },
    {
      "id" : 5,
      "src" : "./recordings/1570629122.320998/Rec 10-9-2019 11.trec",
      "rect" : [0, 0, 1366, 768],
      "lastMod" : "20191009T134036",
      "sourceTracks" : [
        {
          "range" : [0, 7084],
          "type" : 0,
          "editRate" : 30,
          "trackRect" : [0, 0, 1366, 768],
          "sampleRate" : 29,
          "bitDepth" : 0,
          "numChannels" : 0,
          "integratedLUFS" : 100.0,
          "peakLevel" : -1.0,
          "metaData" : "2b7b6a01-7a1f-11e2-83d0-0017f200be7f;2b7b6af0-7a1f-11e2-83d0-0017f200be7f;2b7b6af1-7a1f-11e2-83d0-0017f200be7f;2b7b6af2-7a1f-11e2-83d0-0017f200be7f;2b7b6af3-7a1f-11e2-83d0-0017f200be7f;2b7b6af5-7a1f-11e2-83d0-0017f200be7f;2b7b6af6-7a1f-11e2-83d0-0017f200be7f;2b7b6af7-7a1f-11e2-83d0-0017f200be7f;2b7b6af8-7a1f-11e2-83d0-0017f200be7f;2b7b6af9-7a1f-11e2-83d0-0017f200be7f;2b7b6afa-7a1f-11e2-83d0-0017f200be7f;2b7b6afb-7a1f-11e2-83d0-0017f200be7f;2b7b6afc-7a1f-11e2-83d0-0017f200be7f;"
        },
        {
          "range" : [0, 10436608],
          "type" : 2,
          "editRate" : 44100,
          "trackRect" : [0, 0, 0, 0],
          "sampleRate" : 44100,
          "bitDepth" : 16,
          "numChannels" : 2,
          "integratedLUFS" : -24.2354895808449,
          "peakLevel" : 0.795166015625,
          "metaData" : ""
        }
      ]
    }
  ],
  "timeline" : {
    "id" : 6,
    "sceneTrack" : {
      "scenes" : [
        {
          "duration" : 324.5,
          "title" : "",
          "type" : "",
          "csml" : {
            "tracks" : [
              {
                "trackIndex" : 0,
                "medias" : [
                  {
                    "id" : 7,
                    "_type" : "StitchedMedia",
                    "minMediaStart" : 0,
                    "attributes" : {
                      "ident" : "Rec 10-9-2019",
                      "gain" : 1.0,
                      "mixToMono" : false
                    },
                    "parameters" : {
                      "volume" : {
                        "type" : "double",
                        "keyframes" : [
                          {
                            "endTime" : 0,
                            "time" : 0,
                            "value" : 1.0,
                            "duration" : 0
                          },
                          {
                            "endTime" : 1025,
                            "time" : 1025,
                            "value" : 1.0,
                            "duration" : 0
                          },
                          {
                            "endTime" : 1026,
                            "time" : 1026,
                            "value" : 0.0,
                            "duration" : 0
                          },
                          {
                            "endTime" : 1048,
                            "time" : 1048,
                            "value" : 0.0,
                            "duration" : 0
                          },
                          {
                            "endTime" : 1049,
                            "time" : 1049,
                            "value" : 1.0,
                            "duration" : 0
                          }
                        ]
                      },
                      "cursorOpacity" : {
                        "type" : "double",
                        "defaultValue" : 1.0,
                        "interp" : "linr"
                      },
                      "cursorScale" : {
                        "type" : "double",
                        "defaultValue" : 1.0,
                        "interp" : "linr"
                      }
                    },
                    "medias" : [
                        {
                          "id" : 8,
                          "_type" : "UnifiedMedia",
                          "video" : 
                              {
                                "id" : 9,
                                "_type" : "ScreenVMFile",
                                "src" : 1,
                                "trackNumber" : 0,
                                "attributes" : {
                                  "ident" : "Rec 10-9-2019"
                                },
                                "parameters" : {
                                  "cursorScale" : {
                                    "type" : "double",
                                    "defaultValue" : 0.0,
                                    "interp" : "linr"
                                  },
                                  "cursorOpacity" : {
                                    "type" : "double",
                                    "defaultValue" : 0.0,
                                    "interp" : "linr"
                                  }
                                },
                                "effects" : [

                                ],
                                "start" : 0,
                                "duration" : 608,
                                "mediaStart" : 0,
                                "mediaDuration" : 608,
                                "scalar" : 1,
                                "animationTracks" : {

                                }
                              },
                          "audio" : 
                              {
                                "id" : 10,
                                "_type" : "AMFile",
                                "src" : 1,
                                "trackNumber" : 1,
                                "attributes" : {
                                  "ident" : "",
                                  "sampleRate" : 44100,
                                  "bitDepth" : 16,
                                  "gain" : 1.0,
                                  "mixToMono" : false
                                },
                                  "channelNumber" : "0,1",
                                "effects" : [

                                ],
                                "start" : 0,
                                "duration" : 608,
                                "mediaStart" : 0,
                                "mediaDuration" : 608,
                                "scalar" : 1,
                                "animationTracks" : {

                                }
                              }
,
                          "start" : 0,
                          "duration" : 608,
                          "mediaStart" : 0,
                          "mediaDuration" : 2202,
                          "scalar" : 1,
                          "metadata" : {
                            "clipSpeedAttribute" : false,
                            "default-scale" : "1",
                            "effectApplied" : "none"
                          }
                        },
                        {
                          "id" : 11,
                          "_type" : "UnifiedMedia",
                          "video" : 
                              {
                                "id" : 12,
                                "_type" : "ScreenVMFile",
                                "src" : 1,
                                "trackNumber" : 0,
                                "attributes" : {
                                  "ident" : "Rec 10-9-2019"
                                },
                                "parameters" : {
                                  "cursorScale" : {
                                    "type" : "double",
                                    "defaultValue" : 0.0,
                                    "interp" : "linr"
                                  },
                                  "cursorOpacity" : {
                                    "type" : "double",
                                    "defaultValue" : 0.0,
                                    "interp" : "linr"
                                  }
                                },
                                "effects" : [

                                ],
                                "start" : 608,
                                "duration" : 1427,
                                "mediaStart" : 775,
                                "mediaDuration" : 1427,
                                "scalar" : 1,
                                "animationTracks" : {

                                }
                              },
                          "audio" : 
                              {
                                "id" : 13,
                                "_type" : "AMFile",
                                "src" : 1,
                                "trackNumber" : 1,
                                "attributes" : {
                                  "ident" : "",
                                  "sampleRate" : 44100,
                                  "bitDepth" : 16,
                                  "gain" : 1.0,
                                  "mixToMono" : false
                                },
                                  "channelNumber" : "0,1",
                                "effects" : [

                                ],
                                "start" : 608,
                                "duration" : 1427,
                                "mediaStart" : 775,
                                "mediaDuration" : 1427,
                                "scalar" : 1,
                                "animationTracks" : {

                                }
                              }
,
                          "start" : 608,
                          "duration" : 1427,
                          "mediaStart" : 0,
                          "mediaDuration" : 2202,
                          "scalar" : 1,
                          "metadata" : {
                            "clipSpeedAttribute" : false,
                            "default-scale" : "1",
                            "effectApplied" : "none"
                          }
                        }
                    ],
                    "effects" : [

                    ],
                    "start" : 0,
                    "duration" : 1033,
                    "mediaStart" : 31,
                    "mediaDuration" : 1033,
                    "scalar" : 1,
                    "metadata" : {
                      "clipSpeedAttribute" : false,
                      "default-scale" : "1",
                      "effectApplied" : "none"
                    },
                    "animationTracks" : {

                    }
                  },
                  {
                    "id" : 14,
                    "_type" : "StitchedMedia",
                    "minMediaStart" : 0,
                    "attributes" : {
                      "ident" : "Rec 10-9-2019 5",
                      "gain" : 1.0,
                      "mixToMono" : false
                    },
                    "parameters" : {
                      "volume" : {
                        "type" : "double",
                        "keyframes" : [
                          {
                            "endTime" : 0,
                            "time" : 0,
                            "value" : 1.0,
                            "duration" : 0
                          },
                          {
                            "endTime" : 1757,
                            "time" : 1757,
                            "value" : 1.0,
                            "duration" : 0
                          },
                          {
                            "endTime" : 1758,
                            "time" : 1758,
                            "value" : 0.0,
                            "duration" : 0
                          },
                          {
                            "endTime" : 1777,
                            "time" : 1777,
                            "value" : 0.0,
                            "duration" : 0
                          },
                          {
                            "endTime" : 1778,
                            "time" : 1778,
                            "value" : 1.0,
                            "duration" : 0
                          }
                        ]
                      },
                      "cursorOpacity" : 1.0,
                      "cursorScale" : 1.0
                    },
                    "medias" : [
                        {
                          "id" : 15,
                          "_type" : "UnifiedMedia",
                          "video" : 
                              {
                                "id" : 16,
                                "_type" : "ScreenVMFile",
                                "src" : 2,
                                "trackNumber" : 0,
                                "attributes" : {
                                  "ident" : "Rec 10-9-2019 5"
                                },
                                "parameters" : {
                                  "cursorScale" : {
                                    "type" : "double",
                                    "defaultValue" : 0.0,
                                    "interp" : "linr"
                                  },
                                  "cursorOpacity" : {
                                    "type" : "double",
                                    "defaultValue" : 0.0,
                                    "interp" : "linr"
                                  }
                                },
                                "effects" : [

                                ],
                                "start" : 0,
                                "duration" : 475,
                                "mediaStart" : 0,
                                "mediaDuration" : 475,
                                "scalar" : 1,
                                "animationTracks" : {

                                }
                              },
                          "audio" : 
                              {
                                "id" : 17,
                                "_type" : "AMFile",
                                "src" : 2,
                                "trackNumber" : 1,
                                "attributes" : {
                                  "ident" : "",
                                  "sampleRate" : 44100,
                                  "bitDepth" : 16,
                                  "gain" : 1.0,
                                  "mixToMono" : false
                                },
                                  "channelNumber" : "0,1",
                                "effects" : [

                                ],
                                "start" : 0,
                                "duration" : 475,
                                "mediaStart" : 0,
                                "mediaDuration" : 475,
                                "scalar" : 1,
                                "animationTracks" : {

                                }
                              }
,
                          "start" : 0,
                          "duration" : 475,
                          "mediaStart" : 0,
                          "mediaDuration" : 6002,
                          "scalar" : 1,
                          "metadata" : {
                            "clipSpeedAttribute" : false,
                            "default-scale" : "1",
                            "effectApplied" : "none"
                          }
                        },
                        {
                          "id" : 18,
                          "_type" : "UnifiedMedia",
                          "video" : 
                              {
                                "id" : 19,
                                "_type" : "ScreenVMFile",
                                "src" : 2,
                                "trackNumber" : 0,
                                "attributes" : {
                                  "ident" : "Rec 10-9-2019 5"
                                },
                                "parameters" : {
                                  "cursorScale" : {
                                    "type" : "double",
                                    "defaultValue" : 0.0,
                                    "interp" : "linr"
                                  },
                                  "cursorOpacity" : {
                                    "type" : "double",
                                    "defaultValue" : 0.0,
                                    "interp" : "linr"
                                  }
                                },
                                "effects" : [

                                ],
                                "start" : 475,
                                "duration" : 585,
                                "mediaStart" : 504,
                                "mediaDuration" : 585,
                                "scalar" : 1,
                                "animationTracks" : {

                                }
                              },
                          "audio" : 
                              {
                                "id" : 20,
                                "_type" : "AMFile",
                                "src" : 2,
                                "trackNumber" : 1,
                                "attributes" : {
                                  "ident" : "",
                                  "sampleRate" : 44100,
                                  "bitDepth" : 16,
                                  "gain" : 1.0,
                                  "mixToMono" : false
                                },
                                  "channelNumber" : "0,1",
                                "effects" : [

                                ],
                                "start" : 475,
                                "duration" : 585,
                                "mediaStart" : 504,
                                "mediaDuration" : 585,
                                "scalar" : 1,
                                "animationTracks" : {

                                }
                              }
,
                          "start" : 475,
                          "duration" : 585,
                          "mediaStart" : 0,
                          "mediaDuration" : 6002,
                          "scalar" : 1,
                          "metadata" : {
                            "clipSpeedAttribute" : false,
                            "default-scale" : "1",
                            "effectApplied" : "none"
                          }
                        },
                        {
                          "id" : 21,
                          "_type" : "UnifiedMedia",
                          "video" : 
                              {
                                "id" : 22,
                                "_type" : "ScreenVMFile",
                                "src" : 2,
                                "trackNumber" : 0,
                                "attributes" : {
                                  "ident" : "Rec 10-9-2019 5"
                                },
                                "parameters" : {
                                  "cursorScale" : {
                                    "type" : "double",
                                    "defaultValue" : 0.0,
                                    "interp" : "linr"
                                  },
                                  "cursorOpacity" : {
                                    "type" : "double",
                                    "defaultValue" : 0.0,
                                    "interp" : "linr"
                                  }
                                },
                                "effects" : [

                                ],
                                "start" : 1060,
                                "duration" : 297,
                                "mediaStart" : 1300,
                                "mediaDuration" : 297,
                                "scalar" : 1,
                                "animationTracks" : {

                                }
                              },
                          "audio" : 
                              {
                                "id" : 23,
                                "_type" : "AMFile",
                                "src" : 2,
                                "trackNumber" : 1,
                                "attributes" : {
                                  "ident" : "",
                                  "sampleRate" : 44100,
                                  "bitDepth" : 16,
                                  "gain" : 1.0,
                                  "mixToMono" : false
                                },
                                  "channelNumber" : "0,1",
                                "effects" : [

                                ],
                                "start" : 1060,
                                "duration" : 297,
                                "mediaStart" : 1300,
                                "mediaDuration" : 297,
                                "scalar" : 1,
                                "animationTracks" : {

                                }
                              }
,
                          "start" : 1060,
                          "duration" : 297,
                          "mediaStart" : 0,
                          "mediaDuration" : 6002,
                          "scalar" : 1,
                          "metadata" : {
                            "clipSpeedAttribute" : false,
                            "default-scale" : "1",
                            "effectApplied" : "none"
                          }
                        },
                        {
                          "id" : 24,
                          "_type" : "UnifiedMedia",
                          "video" : 
                              {
                                "id" : 25,
                                "_type" : "ScreenVMFile",
                                "src" : 2,
                                "trackNumber" : 0,
                                "attributes" : {
                                  "ident" : "Rec 10-9-2019 5"
                                },
                                "parameters" : {
                                  "cursorScale" : {
                                    "type" : "double",
                                    "defaultValue" : 0.0,
                                    "interp" : "linr"
                                  },
                                  "cursorOpacity" : {
                                    "type" : "double",
                                    "defaultValue" : 0.0,
                                    "interp" : "linr"
                                  }
                                },
                                "effects" : [

                                ],
                                "start" : 1357,
                                "duration" : 208,
                                "mediaStart" : 1659,
                                "mediaDuration" : 208,
                                "scalar" : 1,
                                "animationTracks" : {

                                }
                              },
                          "audio" : 
                              {
                                "id" : 26,
                                "_type" : "AMFile",
                                "src" : 2,
                                "trackNumber" : 1,
                                "attributes" : {
                                  "ident" : "",
                                  "sampleRate" : 44100,
                                  "bitDepth" : 16,
                                  "gain" : 1.0,
                                  "mixToMono" : false
                                },
                                  "channelNumber" : "0,1",
                                "effects" : [

                                ],
                                "start" : 1357,
                                "duration" : 208,
                                "mediaStart" : 1659,
                                "mediaDuration" : 208,
                                "scalar" : 1,
                                "animationTracks" : {

                                }
                              }
,
                          "start" : 1357,
                          "duration" : 208,
                          "mediaStart" : 0,
                          "mediaDuration" : 6002,
                          "scalar" : 1,
                          "metadata" : {
                            "clipSpeedAttribute" : false,
                            "default-scale" : "1",
                            "effectApplied" : "none"
                          }
                        },
                        {
                          "id" : 27,
                          "_type" : "UnifiedMedia",
                          "video" : 
                              {
                                "id" : 28,
                                "_type" : "ScreenVMFile",
                                "src" : 2,
                                "trackNumber" : 0,
                                "attributes" : {
                                  "ident" : "Rec 10-9-2019 5"
                                },
                                "parameters" : {
                                  "cursorScale" : {
                                    "type" : "double",
                                    "defaultValue" : 0.0,
                                    "interp" : "linr"
                                  },
                                  "cursorOpacity" : {
                                    "type" : "double",
                                    "defaultValue" : 0.0,
                                    "interp" : "linr"
                                  }
                                },
                                "effects" : [

                                ],
                                "start" : 1565,
                                "duration" : 27,
                                "mediaStart" : 2029,
                                "mediaDuration" : 27,
                                "scalar" : 1,
                                "animationTracks" : {

                                }
                              },
                          "audio" : 
                              {
                                "id" : 29,
                                "_type" : "AMFile",
                                "src" : 2,
                                "trackNumber" : 1,
                                "attributes" : {
                                  "ident" : "",
                                  "sampleRate" : 44100,
                                  "bitDepth" : 16,
                                  "gain" : 1.0,
                                  "mixToMono" : false
                                },
                                  "channelNumber" : "0,1",
                                "effects" : [

                                ],
                                "start" : 1565,
                                "duration" : 27,
                                "mediaStart" : 2029,
                                "mediaDuration" : 27,
                                "scalar" : 1,
                                "animationTracks" : {

                                }
                              }
,
                          "start" : 1565,
                          "duration" : 27,
                          "mediaStart" : 0,
                          "mediaDuration" : 6002,
                          "scalar" : 1,
                          "metadata" : {
                            "clipSpeedAttribute" : false,
                            "default-scale" : "1",
                            "effectApplied" : "none"
                          }
                        },
                        {
                          "id" : 30,
                          "_type" : "UnifiedMedia",
                          "video" : 
                              {
                                "id" : 31,
                                "_type" : "ScreenVMFile",
                                "src" : 2,
                                "trackNumber" : 0,
                                "attributes" : {
                                  "ident" : "Rec 10-9-2019 5"
                                },
                                "parameters" : {
                                  "cursorScale" : {
                                    "type" : "double",
                                    "defaultValue" : 0.0,
                                    "interp" : "linr"
                                  },
                                  "cursorOpacity" : {
                                    "type" : "double",
                                    "defaultValue" : 0.0,
                                    "interp" : "linr"
                                  }
                                },
                                "effects" : [

                                ],
                                "start" : 1592,
                                "duration" : 167,
                                "mediaStart" : 2294,
                                "mediaDuration" : 167,
                                "scalar" : 1,
                                "animationTracks" : {

                                }
                              },
                          "audio" : 
                              {
                                "id" : 32,
                                "_type" : "AMFile",
                                "src" : 2,
                                "trackNumber" : 1,
                                "attributes" : {
                                  "ident" : "",
                                  "sampleRate" : 44100,
                                  "bitDepth" : 16,
                                  "gain" : 1.0,
                                  "mixToMono" : false
                                },
                                  "channelNumber" : "0,1",
                                "effects" : [

                                ],
                                "start" : 1592,
                                "duration" : 167,
                                "mediaStart" : 2294,
                                "mediaDuration" : 167,
                                "scalar" : 1,
                                "animationTracks" : {

                                }
                              }
,
                          "start" : 1592,
                          "duration" : 167,
                          "mediaStart" : 0,
                          "mediaDuration" : 6002,
                          "scalar" : 1,
                          "metadata" : {
                            "clipSpeedAttribute" : false,
                            "default-scale" : "1",
                            "effectApplied" : "none"
                          }
                        },
                        {
                          "id" : 33,
                          "_type" : "UnifiedMedia",
                          "video" : 
                              {
                                "id" : 34,
                                "_type" : "ScreenVMFile",
                                "src" : 2,
                                "trackNumber" : 0,
                                "attributes" : {
                                  "ident" : "Rec 10-9-2019 5"
                                },
                                "parameters" : {
                                  "cursorScale" : {
                                    "type" : "double",
                                    "defaultValue" : 0.0,
                                    "interp" : "linr"
                                  },
                                  "cursorOpacity" : {
                                    "type" : "double",
                                    "defaultValue" : 0.0,
                                    "interp" : "linr"
                                  }
                                },
                                "effects" : [

                                ],
                                "start" : 1759,
                                "duration" : 355,
                                "mediaStart" : 2493,
                                "mediaDuration" : 355,
                                "scalar" : 1,
                                "animationTracks" : {

                                }
                              },
                          "audio" : 
                              {
                                "id" : 35,
                                "_type" : "AMFile",
                                "src" : 2,
                                "trackNumber" : 1,
                                "attributes" : {
                                  "ident" : "",
                                  "sampleRate" : 44100,
                                  "bitDepth" : 16,
                                  "gain" : 1.0,
                                  "mixToMono" : false
                                },
                                  "channelNumber" : "0,1",
                                "effects" : [

                                ],
                                "start" : 1759,
                                "duration" : 355,
                                "mediaStart" : 2493,
                                "mediaDuration" : 355,
                                "scalar" : 1,
                                "animationTracks" : {

                                }
                              }
,
                          "start" : 1759,
                          "duration" : 355,
                          "mediaStart" : 0,
                          "mediaDuration" : 6002,
                          "scalar" : 1,
                          "metadata" : {
                            "clipSpeedAttribute" : false,
                            "default-scale" : "1",
                            "effectApplied" : "none"
                          }
                        },
                        {
                          "id" : 36,
                          "_type" : "UnifiedMedia",
                          "video" : 
                              {
                                "id" : 37,
                                "_type" : "ScreenVMFile",
                                "src" : 2,
                                "trackNumber" : 0,
                                "attributes" : {
                                  "ident" : "Rec 10-9-2019 5"
                                },
                                "parameters" : {
                                  "cursorScale" : {
                                    "type" : "double",
                                    "defaultValue" : 0.0,
                                    "interp" : "linr"
                                  },
                                  "cursorOpacity" : {
                                    "type" : "double",
                                    "defaultValue" : 0.0,
                                    "interp" : "linr"
                                  }
                                },
                                "effects" : [

                                ],
                                "start" : 2114,
                                "duration" : 1,
                                "mediaStart" : 3351,
                                "mediaDuration" : 1,
                                "scalar" : 1,
                                "animationTracks" : {

                                }
                              },
                          "audio" : 
                              {
                                "id" : 38,
                                "_type" : "AMFile",
                                "src" : 2,
                                "trackNumber" : 1,
                                "attributes" : {
                                  "ident" : "",
                                  "sampleRate" : 44100,
                                  "bitDepth" : 16,
                                  "gain" : 1.0,
                                  "mixToMono" : false
                                },
                                  "channelNumber" : "0,1",
                                "effects" : [

                                ],
                                "start" : 2114,
                                "duration" : 1,
                                "mediaStart" : 3351,
                                "mediaDuration" : 1,
                                "scalar" : 1,
                                "animationTracks" : {

                                }
                              }
,
                          "start" : 2114,
                          "duration" : 1,
                          "mediaStart" : 0,
                          "mediaDuration" : 6002,
                          "scalar" : 1,
                          "metadata" : {
                            "clipSpeedAttribute" : false,
                            "default-scale" : "1",
                            "effectApplied" : "none"
                          }
                        },
                        {
                          "id" : 39,
                          "_type" : "UnifiedMedia",
                          "video" : 
                              {
                                "id" : 40,
                                "_type" : "ScreenVMFile",
                                "src" : 2,
                                "trackNumber" : 0,
                                "attributes" : {
                                  "ident" : "Rec 10-9-2019 5"
                                },
                                "parameters" : {
                                  "cursorScale" : {
                                    "type" : "double",
                                    "defaultValue" : 0.0,
                                    "interp" : "linr"
                                  },
                                  "cursorOpacity" : {
                                    "type" : "double",
                                    "defaultValue" : 0.0,
                                    "interp" : "linr"
                                  }
                                },
                                "effects" : [

                                ],
                                "start" : 2115,
                                "duration" : 340,
                                "mediaStart" : 3786,
                                "mediaDuration" : 340,
                                "scalar" : 1,
                                "animationTracks" : {

                                }
                              },
                          "audio" : 
                              {
                                "id" : 41,
                                "_type" : "AMFile",
                                "src" : 2,
                                "trackNumber" : 1,
                                "attributes" : {
                                  "ident" : "",
                                  "sampleRate" : 44100,
                                  "bitDepth" : 16,
                                  "gain" : 1.0,
                                  "mixToMono" : false
                                },
                                  "channelNumber" : "0,1",
                                "effects" : [

                                ],
                                "start" : 2115,
                                "duration" : 340,
                                "mediaStart" : 3786,
                                "mediaDuration" : 340,
                                "scalar" : 1,
                                "animationTracks" : {

                                }
                              }
,
                          "start" : 2115,
                          "duration" : 340,
                          "mediaStart" : 0,
                          "mediaDuration" : 6002,
                          "scalar" : 1,
                          "metadata" : {
                            "clipSpeedAttribute" : false,
                            "default-scale" : "1",
                            "effectApplied" : "none"
                          }
                        },
                        {
                          "id" : 42,
                          "_type" : "UnifiedMedia",
                          "video" : 
                              {
                                "id" : 43,
                                "_type" : "ScreenVMFile",
                                "src" : 2,
                                "trackNumber" : 0,
                                "attributes" : {
                                  "ident" : "Rec 10-9-2019 5"
                                },
                                "parameters" : {
                                  "cursorScale" : {
                                    "type" : "double",
                                    "defaultValue" : 0.0,
                                    "interp" : "linr"
                                  },
                                  "cursorOpacity" : {
                                    "type" : "double",
                                    "defaultValue" : 0.0,
                                    "interp" : "linr"
                                  }
                                },
                                "effects" : [

                                ],
                                "start" : 2455,
                                "duration" : 27,
                                "mediaStart" : 4169,
                                "mediaDuration" : 27,
                                "scalar" : 1,
                                "animationTracks" : {

                                }
                              },
                          "audio" : 
                              {
                                "id" : 44,
                                "_type" : "AMFile",
                                "src" : 2,
                                "trackNumber" : 1,
                                "attributes" : {
                                  "ident" : "",
                                  "sampleRate" : 44100,
                                  "bitDepth" : 16,
                                  "gain" : 1.0,
                                  "mixToMono" : false
                                },
                                  "channelNumber" : "0,1",
                                "effects" : [

                                ],
                                "start" : 2455,
                                "duration" : 27,
                                "mediaStart" : 4169,
                                "mediaDuration" : 27,
                                "scalar" : 1,
                                "animationTracks" : {

                                }
                              }
,
                          "start" : 2455,
                          "duration" : 27,
                          "mediaStart" : 0,
                          "mediaDuration" : 6002,
                          "scalar" : 1,
                          "metadata" : {
                            "clipSpeedAttribute" : false,
                            "default-scale" : "1",
                            "effectApplied" : "none"
                          }
                        },
                        {
                          "id" : 45,
                          "_type" : "UnifiedMedia",
                          "video" : 
                              {
                                "id" : 46,
                                "_type" : "ScreenVMFile",
                                "src" : 2,
                                "trackNumber" : 0,
                                "attributes" : {
                                  "ident" : "Rec 10-9-2019 5"
                                },
                                "parameters" : {
                                  "cursorScale" : {
                                    "type" : "double",
                                    "defaultValue" : 0.0,
                                    "interp" : "linr"
                                  },
                                  "cursorOpacity" : {
                                    "type" : "double",
                                    "defaultValue" : 0.0,
                                    "interp" : "linr"
                                  }
                                },
                                "effects" : [

                                ],
                                "start" : 2482,
                                "duration" : 1115,
                                "mediaStart" : 4887,
                                "mediaDuration" : 1115,
                                "scalar" : 1,
                                "animationTracks" : {

                                }
                              },
                          "audio" : 
                              {
                                "id" : 47,
                                "_type" : "AMFile",
                                "src" : 2,
                                "trackNumber" : 1,
                                "attributes" : {
                                  "ident" : "",
                                  "sampleRate" : 44100,
                                  "bitDepth" : 16,
                                  "gain" : 1.0,
                                  "mixToMono" : false
                                },
                                  "channelNumber" : "0,1",
                                "effects" : [

                                ],
                                "start" : 2482,
                                "duration" : 1115,
                                "mediaStart" : 4887,
                                "mediaDuration" : 1115,
                                "scalar" : 1,
                                "animationTracks" : {

                                }
                              }
,
                          "start" : 2482,
                          "duration" : 1115,
                          "mediaStart" : 0,
                          "mediaDuration" : 6002,
                          "scalar" : 1,
                          "metadata" : {
                            "clipSpeedAttribute" : false,
                            "default-scale" : "1",
                            "effectApplied" : "none"
                          }
                        }
                    ],
                    "effects" : [

                    ],
                    "start" : 1033,
                    "duration" : 2874,
                    "mediaStart" : 84,
                    "mediaDuration" : 2874,
                    "scalar" : 1,
                    "metadata" : {
                      "clipSpeedAttribute" : false,
                      "default-scale" : "1",
                      "effectApplied" : "none"
                    },
                    "animationTracks" : {

                    }
                  },
                  {
                    "id" : 48,
                    "_type" : "StitchedMedia",
                    "minMediaStart" : 0,
                    "attributes" : {
                      "ident" : "Rec 10-9-2019 8",
                      "gain" : 1.0,
                      "mixToMono" : false
                    },
                    "parameters" : {
                      "volume" : 1.0,
                      "cursorOpacity" : 1.0,
                      "cursorScale" : 1.0
                    },
                    "medias" : [
                        {
                          "id" : 49,
                          "_type" : "UnifiedMedia",
                          "video" : 
                              {
                                "id" : 50,
                                "_type" : "ScreenVMFile",
                                "src" : 3,
                                "trackNumber" : 0,
                                "attributes" : {
                                  "ident" : "Rec 10-9-2019 8"
                                },
                                "parameters" : {
                                  "cursorScale" : {
                                    "type" : "double",
                                    "defaultValue" : 0.0,
                                    "interp" : "linr"
                                  },
                                  "cursorOpacity" : {
                                    "type" : "double",
                                    "defaultValue" : 0.0,
                                    "interp" : "linr"
                                  }
                                },
                                "effects" : [

                                ],
                                "start" : 0,
                                "duration" : 797,
                                "mediaStart" : 0,
                                "mediaDuration" : 797,
                                "scalar" : 1,
                                "animationTracks" : {

                                }
                              },
                          "audio" : 
                              {
                                "id" : 51,
                                "_type" : "AMFile",
                                "src" : 3,
                                "trackNumber" : 1,
                                "attributes" : {
                                  "ident" : "",
                                  "sampleRate" : 44100,
                                  "bitDepth" : 16,
                                  "gain" : 1.0,
                                  "mixToMono" : false
                                },
                                  "channelNumber" : "0,1",
                                "effects" : [

                                ],
                                "start" : 0,
                                "duration" : 797,
                                "mediaStart" : 0,
                                "mediaDuration" : 797,
                                "scalar" : 1,
                                "animationTracks" : {

                                }
                              }
,
                          "start" : 0,
                          "duration" : 797,
                          "mediaStart" : 0,
                          "mediaDuration" : 2453,
                          "scalar" : 1,
                          "metadata" : {
                            "clipSpeedAttribute" : false,
                            "default-scale" : "1",
                            "effectApplied" : "none"
                          }
                        },
                        {
                          "id" : 52,
                          "_type" : "UnifiedMedia",
                          "video" : 
                              {
                                "id" : 53,
                                "_type" : "ScreenVMFile",
                                "src" : 3,
                                "trackNumber" : 0,
                                "attributes" : {
                                  "ident" : "Rec 10-9-2019 8"
                                },
                                "parameters" : {
                                  "cursorScale" : {
                                    "type" : "double",
                                    "defaultValue" : 0.0,
                                    "interp" : "linr"
                                  },
                                  "cursorOpacity" : {
                                    "type" : "double",
                                    "defaultValue" : 0.0,
                                    "interp" : "linr"
                                  }
                                },
                                "effects" : [

                                ],
                                "start" : 797,
                                "duration" : 477,
                                "mediaStart" : 1249,
                                "mediaDuration" : 477,
                                "scalar" : 1,
                                "animationTracks" : {

                                }
                              },
                          "audio" : 
                              {
                                "id" : 54,
                                "_type" : "AMFile",
                                "src" : 3,
                                "trackNumber" : 1,
                                "attributes" : {
                                  "ident" : "",
                                  "sampleRate" : 44100,
                                  "bitDepth" : 16,
                                  "gain" : 1.0,
                                  "mixToMono" : false
                                },
                                  "channelNumber" : "0,1",
                                "effects" : [

                                ],
                                "start" : 797,
                                "duration" : 477,
                                "mediaStart" : 1249,
                                "mediaDuration" : 477,
                                "scalar" : 1,
                                "animationTracks" : {

                                }
                              }
,
                          "start" : 797,
                          "duration" : 477,
                          "mediaStart" : 0,
                          "mediaDuration" : 2453,
                          "scalar" : 1,
                          "metadata" : {
                            "clipSpeedAttribute" : false,
                            "default-scale" : "1",
                            "effectApplied" : "none"
                          }
                        },
                        {
                          "id" : 55,
                          "_type" : "UnifiedMedia",
                          "video" : 
                              {
                                "id" : 56,
                                "_type" : "ScreenVMFile",
                                "src" : 3,
                                "trackNumber" : 0,
                                "attributes" : {
                                  "ident" : "Rec 10-9-2019 8"
                                },
                                "parameters" : {
                                  "cursorScale" : {
                                    "type" : "double",
                                    "defaultValue" : 0.0,
                                    "interp" : "linr"
                                  },
                                  "cursorOpacity" : {
                                    "type" : "double",
                                    "defaultValue" : 0.0,
                                    "interp" : "linr"
                                  }
                                },
                                "effects" : [

                                ],
                                "start" : 1274,
                                "duration" : 535,
                                "mediaStart" : 1918,
                                "mediaDuration" : 535,
                                "scalar" : 1,
                                "animationTracks" : {

                                }
                              },
                          "audio" : 
                              {
                                "id" : 57,
                                "_type" : "AMFile",
                                "src" : 3,
                                "trackNumber" : 1,
                                "attributes" : {
                                  "ident" : "",
                                  "sampleRate" : 44100,
                                  "bitDepth" : 16,
                                  "gain" : 1.0,
                                  "mixToMono" : false
                                },
                                  "channelNumber" : "0,1",
                                "effects" : [

                                ],
                                "start" : 1274,
                                "duration" : 535,
                                "mediaStart" : 1918,
                                "mediaDuration" : 535,
                                "scalar" : 1,
                                "animationTracks" : {

                                }
                              }
,
                          "start" : 1274,
                          "duration" : 535,
                          "mediaStart" : 0,
                          "mediaDuration" : 2453,
                          "scalar" : 1,
                          "metadata" : {
                            "clipSpeedAttribute" : false,
                            "default-scale" : "1",
                            "effectApplied" : "none"
                          }
                        }
                    ],
                    "effects" : [

                    ],
                    "start" : 3907,
                    "duration" : 1429,
                    "mediaStart" : 108,
                    "mediaDuration" : 1429,
                    "scalar" : 1,
                    "metadata" : {
                      "clipSpeedAttribute" : false,
                      "default-scale" : "1",
                      "effectApplied" : "none"
                    },
                    "animationTracks" : {

                    }
                  },
                  {
                    "id" : 58,
                    "_type" : "UnifiedMedia",
                    "video" : 
                        {
                          "id" : 59,
                          "_type" : "ScreenVMFile",
                          "src" : 4,
                          "trackNumber" : 0,
                          "attributes" : {
                            "ident" : "Rec 10-9-2019 10"
                          },
                          "parameters" : {
                            "cursorScale" : {
                              "type" : "double",
                              "defaultValue" : 1.0,
                              "interp" : "linr"
                            },
                            "cursorOpacity" : {
                              "type" : "double",
                              "defaultValue" : 1.0,
                              "interp" : "linr"
                            }
                          },
                          "effects" : [

                          ],
                          "start" : 5336,
                          "duration" : 646,
                          "mediaStart" : 75,
                          "mediaDuration" : 646,
                          "scalar" : 1,
                          "animationTracks" : {

                          }
                        },
                    "audio" : 
                        {
                          "id" : 60,
                          "_type" : "AMFile",
                          "src" : 4,
                          "trackNumber" : 1,
                          "attributes" : {
                            "ident" : "",
                            "sampleRate" : 44100,
                            "bitDepth" : 16,
                            "gain" : 1.0,
                            "mixToMono" : false
                          },
                            "channelNumber" : "0,1",
                          "effects" : [

                          ],
                          "start" : 5336,
                          "duration" : 646,
                          "mediaStart" : 75,
                          "mediaDuration" : 646,
                          "scalar" : 1,
                          "animationTracks" : {

                          }
                        }
,
                    "start" : 5336,
                    "duration" : 646,
                    "mediaStart" : 0,
                    "mediaDuration" : 936,
                    "scalar" : 1,
                    "metadata" : {
                      "clipSpeedAttribute" : false,
                      "default-scale" : "1",
                      "effectApplied" : "none"
                    }
                  },
                  {
                    "id" : 61,
                    "_type" : "StitchedMedia",
                    "minMediaStart" : 0,
                    "attributes" : {
                      "ident" : "Rec 10-9-2019 11",
                      "gain" : 1.0,
                      "mixToMono" : false
                    },
                    "parameters" : {
                      "volume" : 1.0,
                      "cursorOpacity" : 1.0,
                      "cursorScale" : 1.0
                    },
                    "medias" : [
                        {
                          "id" : 62,
                          "_type" : "UnifiedMedia",
                          "video" : 
                              {
                                "id" : 63,
                                "_type" : "ScreenVMFile",
                                "src" : 5,
                                "trackNumber" : 0,
                                "attributes" : {
                                  "ident" : "Rec 10-9-2019 11"
                                },
                                "parameters" : {
                                  "cursorScale" : {
                                    "type" : "double",
                                    "defaultValue" : 0.0,
                                    "interp" : "linr"
                                  },
                                  "cursorOpacity" : {
                                    "type" : "double",
                                    "defaultValue" : 0.0,
                                    "interp" : "linr"
                                  }
                                },
                                "effects" : [

                                ],
                                "start" : 0,
                                "duration" : 297,
                                "mediaStart" : 0,
                                "mediaDuration" : 297,
                                "scalar" : 1,
                                "animationTracks" : {

                                }
                              },
                          "audio" : 
                              {
                                "id" : 64,
                                "_type" : "AMFile",
                                "src" : 5,
                                "trackNumber" : 1,
                                "attributes" : {
                                  "ident" : "",
                                  "sampleRate" : 44100,
                                  "bitDepth" : 16,
                                  "gain" : 1.0,
                                  "mixToMono" : false
                                },
                                  "channelNumber" : "0,1",
                                "effects" : [

                                ],
                                "start" : 0,
                                "duration" : 297,
                                "mediaStart" : 0,
                                "mediaDuration" : 297,
                                "scalar" : 1,
                                "animationTracks" : {

                                }
                              }
,
                          "start" : 0,
                          "duration" : 297,
                          "mediaStart" : 0,
                          "mediaDuration" : 7084,
                          "scalar" : 1,
                          "metadata" : {
                            "clipSpeedAttribute" : false,
                            "default-scale" : "1",
                            "effectApplied" : "none"
                          }
                        },
                        {
                          "id" : 65,
                          "_type" : "UnifiedMedia",
                          "video" : 
                              {
                                "id" : 66,
                                "_type" : "ScreenVMFile",
                                "src" : 5,
                                "trackNumber" : 0,
                                "attributes" : {
                                  "ident" : "Rec 10-9-2019 11"
                                },
                                "parameters" : {
                                  "cursorScale" : {
                                    "type" : "double",
                                    "defaultValue" : 0.0,
                                    "interp" : "linr"
                                  },
                                  "cursorOpacity" : {
                                    "type" : "double",
                                    "defaultValue" : 0.0,
                                    "interp" : "linr"
                                  }
                                },
                                "effects" : [

                                ],
                                "start" : 297,
                                "duration" : 163,
                                "mediaStart" : 334,
                                "mediaDuration" : 163,
                                "scalar" : 1,
                                "animationTracks" : {

                                }
                              },
                          "audio" : 
                              {
                                "id" : 67,
                                "_type" : "AMFile",
                                "src" : 5,
                                "trackNumber" : 1,
                                "attributes" : {
                                  "ident" : "",
                                  "sampleRate" : 44100,
                                  "bitDepth" : 16,
                                  "gain" : 1.0,
                                  "mixToMono" : false
                                },
                                  "channelNumber" : "0,1",
                                "effects" : [

                                ],
                                "start" : 297,
                                "duration" : 163,
                                "mediaStart" : 334,
                                "mediaDuration" : 163,
                                "scalar" : 1,
                                "animationTracks" : {

                                }
                              }
,
                          "start" : 297,
                          "duration" : 163,
                          "mediaStart" : 0,
                          "mediaDuration" : 7084,
                          "scalar" : 1,
                          "metadata" : {
                            "clipSpeedAttribute" : false,
                            "default-scale" : "1",
                            "effectApplied" : "none"
                          }
                        },
                        {
                          "id" : 68,
                          "_type" : "UnifiedMedia",
                          "video" : 
                              {
                                "id" : 69,
                                "_type" : "ScreenVMFile",
                                "src" : 5,
                                "trackNumber" : 0,
                                "attributes" : {
                                  "ident" : "Rec 10-9-2019 11"
                                },
                                "parameters" : {
                                  "cursorScale" : {
                                    "type" : "double",
                                    "defaultValue" : 0.0,
                                    "interp" : "linr"
                                  },
                                  "cursorOpacity" : {
                                    "type" : "double",
                                    "defaultValue" : 0.0,
                                    "interp" : "linr"
                                  }
                                },
                                "effects" : [

                                ],
                                "start" : 460,
                                "duration" : 539,
                                "mediaStart" : 786,
                                "mediaDuration" : 539,
                                "scalar" : 1,
                                "animationTracks" : {

                                }
                              },
                          "audio" : 
                              {
                                "id" : 70,
                                "_type" : "AMFile",
                                "src" : 5,
                                "trackNumber" : 1,
                                "attributes" : {
                                  "ident" : "",
                                  "sampleRate" : 44100,
                                  "bitDepth" : 16,
                                  "gain" : 1.0,
                                  "mixToMono" : false
                                },
                                  "channelNumber" : "0,1",
                                "effects" : [

                                ],
                                "start" : 460,
                                "duration" : 539,
                                "mediaStart" : 786,
                                "mediaDuration" : 539,
                                "scalar" : 1,
                                "animationTracks" : {

                                }
                              }
,
                          "start" : 460,
                          "duration" : 539,
                          "mediaStart" : 0,
                          "mediaDuration" : 7084,
                          "scalar" : 1,
                          "metadata" : {
                            "clipSpeedAttribute" : false,
                            "default-scale" : "1",
                            "effectApplied" : "none"
                          }
                        },
                        {
                          "id" : 71,
                          "_type" : "UnifiedMedia",
                          "video" : 
                              {
                                "id" : 72,
                                "_type" : "ScreenVMFile",
                                "src" : 5,
                                "trackNumber" : 0,
                                "attributes" : {
                                  "ident" : "Rec 10-9-2019 11"
                                },
                                "parameters" : {
                                  "cursorScale" : {
                                    "type" : "double",
                                    "defaultValue" : 0.0,
                                    "interp" : "linr"
                                  },
                                  "cursorOpacity" : {
                                    "type" : "double",
                                    "defaultValue" : 0.0,
                                    "interp" : "linr"
                                  }
                                },
                                "effects" : [

                                ],
                                "start" : 999,
                                "duration" : 132,
                                "mediaStart" : 1370,
                                "mediaDuration" : 132,
                                "scalar" : 1,
                                "animationTracks" : {

                                }
                              },
                          "audio" : 
                              {
                                "id" : 73,
                                "_type" : "AMFile",
                                "src" : 5,
                                "trackNumber" : 1,
                                "attributes" : {
                                  "ident" : "",
                                  "sampleRate" : 44100,
                                  "bitDepth" : 16,
                                  "gain" : 1.0,
                                  "mixToMono" : false
                                },
                                  "channelNumber" : "0,1",
                                "effects" : [

                                ],
                                "start" : 999,
                                "duration" : 132,
                                "mediaStart" : 1370,
                                "mediaDuration" : 132,
                                "scalar" : 1,
                                "animationTracks" : {

                                }
                              }
,
                          "start" : 999,
                          "duration" : 132,
                          "mediaStart" : 0,
                          "mediaDuration" : 7084,
                          "scalar" : 1,
                          "metadata" : {
                            "clipSpeedAttribute" : false,
                            "default-scale" : "1",
                            "effectApplied" : "none"
                          }
                        },
                        {
                          "id" : 74,
                          "_type" : "UnifiedMedia",
                          "video" : 
                              {
                                "id" : 75,
                                "_type" : "ScreenVMFile",
                                "src" : 5,
                                "trackNumber" : 0,
                                "attributes" : {
                                  "ident" : "Rec 10-9-2019 11"
                                },
                                "parameters" : {
                                  "cursorScale" : {
                                    "type" : "double",
                                    "defaultValue" : 0.0,
                                    "interp" : "linr"
                                  },
                                  "cursorOpacity" : {
                                    "type" : "double",
                                    "defaultValue" : 0.0,
                                    "interp" : "linr"
                                  }
                                },
                                "effects" : [

                                ],
                                "start" : 1131,
                                "duration" : 326,
                                "mediaStart" : 1627,
                                "mediaDuration" : 326,
                                "scalar" : 1,
                                "animationTracks" : {

                                }
                              },
                          "audio" : 
                              {
                                "id" : 76,
                                "_type" : "AMFile",
                                "src" : 5,
                                "trackNumber" : 1,
                                "attributes" : {
                                  "ident" : "",
                                  "sampleRate" : 44100,
                                  "bitDepth" : 16,
                                  "gain" : 1.0,
                                  "mixToMono" : false
                                },
                                  "channelNumber" : "0,1",
                                "effects" : [

                                ],
                                "start" : 1131,
                                "duration" : 326,
                                "mediaStart" : 1627,
                                "mediaDuration" : 326,
                                "scalar" : 1,
                                "animationTracks" : {

                                }
                              }
,
                          "start" : 1131,
                          "duration" : 326,
                          "mediaStart" : 0,
                          "mediaDuration" : 7084,
                          "scalar" : 1,
                          "metadata" : {
                            "clipSpeedAttribute" : false,
                            "default-scale" : "1",
                            "effectApplied" : "none"
                          }
                        },
                        {
                          "id" : 77,
                          "_type" : "UnifiedMedia",
                          "video" : 
                              {
                                "id" : 78,
                                "_type" : "ScreenVMFile",
                                "src" : 5,
                                "trackNumber" : 0,
                                "attributes" : {
                                  "ident" : "Rec 10-9-2019 11"
                                },
                                "parameters" : {
                                  "cursorScale" : {
                                    "type" : "double",
                                    "defaultValue" : 0.0,
                                    "interp" : "linr"
                                  },
                                  "cursorOpacity" : {
                                    "type" : "double",
                                    "defaultValue" : 0.0,
                                    "interp" : "linr"
                                  }
                                },
                                "effects" : [

                                ],
                                "start" : 1457,
                                "duration" : 49,
                                "mediaStart" : 1969,
                                "mediaDuration" : 49,
                                "scalar" : 1,
                                "animationTracks" : {

                                }
                              },
                          "audio" : 
                              {
                                "id" : 79,
                                "_type" : "AMFile",
                                "src" : 5,
                                "trackNumber" : 1,
                                "attributes" : {
                                  "ident" : "",
                                  "sampleRate" : 44100,
                                  "bitDepth" : 16,
                                  "gain" : 1.0,
                                  "mixToMono" : false
                                },
                                  "channelNumber" : "0,1",
                                "effects" : [

                                ],
                                "start" : 1457,
                                "duration" : 49,
                                "mediaStart" : 1969,
                                "mediaDuration" : 49,
                                "scalar" : 1,
                                "animationTracks" : {

                                }
                              }
,
                          "start" : 1457,
                          "duration" : 49,
                          "mediaStart" : 0,
                          "mediaDuration" : 7084,
                          "scalar" : 1,
                          "metadata" : {
                            "clipSpeedAttribute" : false,
                            "default-scale" : "1",
                            "effectApplied" : "none"
                          }
                        },
                        {
                          "id" : 80,
                          "_type" : "UnifiedMedia",
                          "video" : 
                              {
                                "id" : 81,
                                "_type" : "ScreenVMFile",
                                "src" : 5,
                                "trackNumber" : 0,
                                "attributes" : {
                                  "ident" : "Rec 10-9-2019 11"
                                },
                                "parameters" : {
                                  "cursorScale" : {
                                    "type" : "double",
                                    "defaultValue" : 0.0,
                                    "interp" : "linr"
                                  },
                                  "cursorOpacity" : {
                                    "type" : "double",
                                    "defaultValue" : 0.0,
                                    "interp" : "linr"
                                  }
                                },
                                "effects" : [

                                ],
                                "start" : 1506,
                                "duration" : 561,
                                "mediaStart" : 2719,
                                "mediaDuration" : 561,
                                "scalar" : 1,
                                "animationTracks" : {

                                }
                              },
                          "audio" : 
                              {
                                "id" : 82,
                                "_type" : "AMFile",
                                "src" : 5,
                                "trackNumber" : 1,
                                "attributes" : {
                                  "ident" : "",
                                  "sampleRate" : 44100,
                                  "bitDepth" : 16,
                                  "gain" : 1.0,
                                  "mixToMono" : false
                                },
                                  "channelNumber" : "0,1",
                                "effects" : [

                                ],
                                "start" : 1506,
                                "duration" : 561,
                                "mediaStart" : 2719,
                                "mediaDuration" : 561,
                                "scalar" : 1,
                                "animationTracks" : {

                                }
                              }
,
                          "start" : 1506,
                          "duration" : 561,
                          "mediaStart" : 0,
                          "mediaDuration" : 7084,
                          "scalar" : 1,
                          "metadata" : {
                            "clipSpeedAttribute" : false,
                            "default-scale" : "1",
                            "effectApplied" : "none"
                          }
                        },
                        {
                          "id" : 83,
                          "_type" : "UnifiedMedia",
                          "video" : 
                              {
                                "id" : 84,
                                "_type" : "ScreenVMFile",
                                "src" : 5,
                                "trackNumber" : 0,
                                "attributes" : {
                                  "ident" : "Rec 10-9-2019 11"
                                },
                                "parameters" : {
                                  "cursorScale" : {
                                    "type" : "double",
                                    "defaultValue" : 0.0,
                                    "interp" : "linr"
                                  },
                                  "cursorOpacity" : {
                                    "type" : "double",
                                    "defaultValue" : 0.0,
                                    "interp" : "linr"
                                  }
                                },
                                "effects" : [

                                ],
                                "start" : 2067,
                                "duration" : 486,
                                "mediaStart" : 4427,
                                "mediaDuration" : 486,
                                "scalar" : 1,
                                "animationTracks" : {

                                }
                              },
                          "audio" : 
                              {
                                "id" : 85,
                                "_type" : "AMFile",
                                "src" : 5,
                                "trackNumber" : 1,
                                "attributes" : {
                                  "ident" : "",
                                  "sampleRate" : 44100,
                                  "bitDepth" : 16,
                                  "gain" : 1.0,
                                  "mixToMono" : false
                                },
                                  "channelNumber" : "0,1",
                                "effects" : [

                                ],
                                "start" : 2067,
                                "duration" : 486,
                                "mediaStart" : 4427,
                                "mediaDuration" : 486,
                                "scalar" : 1,
                                "animationTracks" : {

                                }
                              }
,
                          "start" : 2067,
                          "duration" : 486,
                          "mediaStart" : 0,
                          "mediaDuration" : 7084,
                          "scalar" : 1,
                          "metadata" : {
                            "clipSpeedAttribute" : false,
                            "default-scale" : "1",
                            "effectApplied" : "none"
                          }
                        },
                        {
                          "id" : 86,
                          "_type" : "UnifiedMedia",
                          "video" : 
                              {
                                "id" : 87,
                                "_type" : "ScreenVMFile",
                                "src" : 5,
                                "trackNumber" : 0,
                                "attributes" : {
                                  "ident" : "Rec 10-9-2019 11"
                                },
                                "parameters" : {
                                  "cursorScale" : {
                                    "type" : "double",
                                    "defaultValue" : 0.0,
                                    "interp" : "linr"
                                  },
                                  "cursorOpacity" : {
                                    "type" : "double",
                                    "defaultValue" : 0.0,
                                    "interp" : "linr"
                                  }
                                },
                                "effects" : [

                                ],
                                "start" : 2553,
                                "duration" : 47,
                                "mediaStart" : 4937,
                                "mediaDuration" : 47,
                                "scalar" : 1,
                                "animationTracks" : {

                                }
                              },
                          "audio" : 
                              {
                                "id" : 88,
                                "_type" : "AMFile",
                                "src" : 5,
                                "trackNumber" : 1,
                                "attributes" : {
                                  "ident" : "",
                                  "sampleRate" : 44100,
                                  "bitDepth" : 16,
                                  "gain" : 1.0,
                                  "mixToMono" : false
                                },
                                  "channelNumber" : "0,1",
                                "effects" : [

                                ],
                                "start" : 2553,
                                "duration" : 47,
                                "mediaStart" : 4937,
                                "mediaDuration" : 47,
                                "scalar" : 1,
                                "animationTracks" : {

                                }
                              }
,
                          "start" : 2553,
                          "duration" : 47,
                          "mediaStart" : 0,
                          "mediaDuration" : 7084,
                          "scalar" : 1,
                          "metadata" : {
                            "clipSpeedAttribute" : false,
                            "default-scale" : "1",
                            "effectApplied" : "none"
                          }
                        },
                        {
                          "id" : 89,
                          "_type" : "UnifiedMedia",
                          "video" : 
                              {
                                "id" : 90,
                                "_type" : "ScreenVMFile",
                                "src" : 5,
                                "trackNumber" : 0,
                                "attributes" : {
                                  "ident" : "Rec 10-9-2019 11"
                                },
                                "parameters" : {
                                  "cursorScale" : {
                                    "type" : "double",
                                    "defaultValue" : 0.0,
                                    "interp" : "linr"
                                  },
                                  "cursorOpacity" : {
                                    "type" : "double",
                                    "defaultValue" : 0.0,
                                    "interp" : "linr"
                                  }
                                },
                                "effects" : [

                                ],
                                "start" : 2600,
                                "duration" : 117,
                                "mediaStart" : 5192,
                                "mediaDuration" : 117,
                                "scalar" : 1,
                                "animationTracks" : {

                                }
                              },
                          "audio" : 
                              {
                                "id" : 91,
                                "_type" : "AMFile",
                                "src" : 5,
                                "trackNumber" : 1,
                                "attributes" : {
                                  "ident" : "",
                                  "sampleRate" : 44100,
                                  "bitDepth" : 16,
                                  "gain" : 1.0,
                                  "mixToMono" : false
                                },
                                  "channelNumber" : "0,1",
                                "effects" : [

                                ],
                                "start" : 2600,
                                "duration" : 117,
                                "mediaStart" : 5192,
                                "mediaDuration" : 117,
                                "scalar" : 1,
                                "animationTracks" : {

                                }
                              }
,
                          "start" : 2600,
                          "duration" : 117,
                          "mediaStart" : 0,
                          "mediaDuration" : 7084,
                          "scalar" : 1,
                          "metadata" : {
                            "clipSpeedAttribute" : false,
                            "default-scale" : "1",
                            "effectApplied" : "none"
                          }
                        },
                        {
                          "id" : 92,
                          "_type" : "UnifiedMedia",
                          "video" : 
                              {
                                "id" : 93,
                                "_type" : "ScreenVMFile",
                                "src" : 5,
                                "trackNumber" : 0,
                                "attributes" : {
                                  "ident" : "Rec 10-9-2019 11"
                                },
                                "parameters" : {
                                  "cursorScale" : {
                                    "type" : "double",
                                    "defaultValue" : 0.0,
                                    "interp" : "linr"
                                  },
                                  "cursorOpacity" : {
                                    "type" : "double",
                                    "defaultValue" : 0.0,
                                    "interp" : "linr"
                                  }
                                },
                                "effects" : [

                                ],
                                "start" : 2717,
                                "duration" : 13,
                                "mediaStart" : 5354,
                                "mediaDuration" : 13,
                                "scalar" : 1,
                                "animationTracks" : {

                                }
                              },
                          "audio" : 
                              {
                                "id" : 94,
                                "_type" : "AMFile",
                                "src" : 5,
                                "trackNumber" : 1,
                                "attributes" : {
                                  "ident" : "",
                                  "sampleRate" : 44100,
                                  "bitDepth" : 16,
                                  "gain" : 1.0,
                                  "mixToMono" : false
                                },
                                  "channelNumber" : "0,1",
                                "effects" : [

                                ],
                                "start" : 2717,
                                "duration" : 13,
                                "mediaStart" : 5354,
                                "mediaDuration" : 13,
                                "scalar" : 1,
                                "animationTracks" : {

                                }
                              }
,
                          "start" : 2717,
                          "duration" : 13,
                          "mediaStart" : 0,
                          "mediaDuration" : 7084,
                          "scalar" : 1,
                          "metadata" : {
                            "clipSpeedAttribute" : false,
                            "default-scale" : "1",
                            "effectApplied" : "none"
                          }
                        },
                        {
                          "id" : 95,
                          "_type" : "UnifiedMedia",
                          "video" : 
                              {
                                "id" : 96,
                                "_type" : "ScreenVMFile",
                                "src" : 5,
                                "trackNumber" : 0,
                                "attributes" : {
                                  "ident" : "Rec 10-9-2019 11"
                                },
                                "parameters" : {
                                  "cursorScale" : {
                                    "type" : "double",
                                    "defaultValue" : 0.0,
                                    "interp" : "linr"
                                  },
                                  "cursorOpacity" : {
                                    "type" : "double",
                                    "defaultValue" : 0.0,
                                    "interp" : "linr"
                                  }
                                },
                                "effects" : [

                                ],
                                "start" : 2730,
                                "duration" : 207,
                                "mediaStart" : 5393,
                                "mediaDuration" : 207,
                                "scalar" : 1,
                                "animationTracks" : {

                                }
                              },
                          "audio" : 
                              {
                                "id" : 97,
                                "_type" : "AMFile",
                                "src" : 5,
                                "trackNumber" : 1,
                                "attributes" : {
                                  "ident" : "",
                                  "sampleRate" : 44100,
                                  "bitDepth" : 16,
                                  "gain" : 1.0,
                                  "mixToMono" : false
                                },
                                  "channelNumber" : "0,1",
                                "effects" : [

                                ],
                                "start" : 2730,
                                "duration" : 207,
                                "mediaStart" : 5393,
                                "mediaDuration" : 207,
                                "scalar" : 1,
                                "animationTracks" : {

                                }
                              }
,
                          "start" : 2730,
                          "duration" : 207,
                          "mediaStart" : 0,
                          "mediaDuration" : 7084,
                          "scalar" : 1,
                          "metadata" : {
                            "clipSpeedAttribute" : false,
                            "default-scale" : "1",
                            "effectApplied" : "none"
                          }
                        },
                        {
                          "id" : 98,
                          "_type" : "UnifiedMedia",
                          "video" : 
                              {
                                "id" : 99,
                                "_type" : "ScreenVMFile",
                                "src" : 5,
                                "trackNumber" : 0,
                                "attributes" : {
                                  "ident" : "Rec 10-9-2019 11"
                                },
                                "parameters" : {
                                  "cursorScale" : {
                                    "type" : "double",
                                    "defaultValue" : 0.0,
                                    "interp" : "linr"
                                  },
                                  "cursorOpacity" : {
                                    "type" : "double",
                                    "defaultValue" : 0.0,
                                    "interp" : "linr"
                                  }
                                },
                                "effects" : [

                                ],
                                "start" : 2937,
                                "duration" : 149,
                                "mediaStart" : 5729,
                                "mediaDuration" : 149,
                                "scalar" : 1,
                                "animationTracks" : {

                                }
                              },
                          "audio" : 
                              {
                                "id" : 100,
                                "_type" : "AMFile",
                                "src" : 5,
                                "trackNumber" : 1,
                                "attributes" : {
                                  "ident" : "",
                                  "sampleRate" : 44100,
                                  "bitDepth" : 16,
                                  "gain" : 1.0,
                                  "mixToMono" : false
                                },
                                  "channelNumber" : "0,1",
                                "effects" : [

                                ],
                                "start" : 2937,
                                "duration" : 149,
                                "mediaStart" : 5729,
                                "mediaDuration" : 149,
                                "scalar" : 1,
                                "animationTracks" : {

                                }
                              }
,
                          "start" : 2937,
                          "duration" : 149,
                          "mediaStart" : 0,
                          "mediaDuration" : 7084,
                          "scalar" : 1,
                          "metadata" : {
                            "clipSpeedAttribute" : false,
                            "default-scale" : "1",
                            "effectApplied" : "none"
                          }
                        },
                        {
                          "id" : 101,
                          "_type" : "UnifiedMedia",
                          "video" : 
                              {
                                "id" : 102,
                                "_type" : "ScreenVMFile",
                                "src" : 5,
                                "trackNumber" : 0,
                                "attributes" : {
                                  "ident" : "Rec 10-9-2019 11"
                                },
                                "parameters" : {
                                  "cursorScale" : {
                                    "type" : "double",
                                    "defaultValue" : 0.0,
                                    "interp" : "linr"
                                  },
                                  "cursorOpacity" : {
                                    "type" : "double",
                                    "defaultValue" : 0.0,
                                    "interp" : "linr"
                                  }
                                },
                                "effects" : [

                                ],
                                "start" : 3086,
                                "duration" : 230,
                                "mediaStart" : 5925,
                                "mediaDuration" : 230,
                                "scalar" : 1,
                                "animationTracks" : {

                                }
                              },
                          "audio" : 
                              {
                                "id" : 103,
                                "_type" : "AMFile",
                                "src" : 5,
                                "trackNumber" : 1,
                                "attributes" : {
                                  "ident" : "",
                                  "sampleRate" : 44100,
                                  "bitDepth" : 16,
                                  "gain" : 1.0,
                                  "mixToMono" : false
                                },
                                  "channelNumber" : "0,1",
                                "effects" : [

                                ],
                                "start" : 3086,
                                "duration" : 230,
                                "mediaStart" : 5925,
                                "mediaDuration" : 230,
                                "scalar" : 1,
                                "animationTracks" : {

                                }
                              }
,
                          "start" : 3086,
                          "duration" : 230,
                          "mediaStart" : 0,
                          "mediaDuration" : 7084,
                          "scalar" : 1,
                          "metadata" : {
                            "clipSpeedAttribute" : false,
                            "default-scale" : "1",
                            "effectApplied" : "none"
                          }
                        },
                        {
                          "id" : 104,
                          "_type" : "UnifiedMedia",
                          "video" : 
                              {
                                "id" : 105,
                                "_type" : "ScreenVMFile",
                                "src" : 5,
                                "trackNumber" : 0,
                                "attributes" : {
                                  "ident" : "Rec 10-9-2019 11"
                                },
                                "parameters" : {
                                  "cursorScale" : {
                                    "type" : "double",
                                    "defaultValue" : 0.0,
                                    "interp" : "linr"
                                  },
                                  "cursorOpacity" : {
                                    "type" : "double",
                                    "defaultValue" : 0.0,
                                    "interp" : "linr"
                                  }
                                },
                                "effects" : [

                                ],
                                "start" : 3316,
                                "duration" : 195,
                                "mediaStart" : 6217,
                                "mediaDuration" : 195,
                                "scalar" : 1,
                                "animationTracks" : {

                                }
                              },
                          "audio" : 
                              {
                                "id" : 106,
                                "_type" : "AMFile",
                                "src" : 5,
                                "trackNumber" : 1,
                                "attributes" : {
                                  "ident" : "",
                                  "sampleRate" : 44100,
                                  "bitDepth" : 16,
                                  "gain" : 1.0,
                                  "mixToMono" : false
                                },
                                  "channelNumber" : "0,1",
                                "effects" : [

                                ],
                                "start" : 3316,
                                "duration" : 195,
                                "mediaStart" : 6217,
                                "mediaDuration" : 195,
                                "scalar" : 1,
                                "animationTracks" : {

                                }
                              }
,
                          "start" : 3316,
                          "duration" : 195,
                          "mediaStart" : 0,
                          "mediaDuration" : 7084,
                          "scalar" : 1,
                          "metadata" : {
                            "clipSpeedAttribute" : false,
                            "default-scale" : "1",
                            "effectApplied" : "none"
                          }
                        },
                        {
                          "id" : 107,
                          "_type" : "UnifiedMedia",
                          "video" : 
                              {
                                "id" : 108,
                                "_type" : "ScreenVMFile",
                                "src" : 5,
                                "trackNumber" : 0,
                                "attributes" : {
                                  "ident" : "Rec 10-9-2019 11"
                                },
                                "parameters" : {
                                  "cursorScale" : {
                                    "type" : "double",
                                    "defaultValue" : 0.0,
                                    "interp" : "linr"
                                  },
                                  "cursorOpacity" : {
                                    "type" : "double",
                                    "defaultValue" : 0.0,
                                    "interp" : "linr"
                                  }
                                },
                                "effects" : [

                                ],
                                "start" : 3511,
                                "duration" : 584,
                                "mediaStart" : 6500,
                                "mediaDuration" : 584,
                                "scalar" : 1,
                                "animationTracks" : {

                                }
                              },
                          "audio" : 
                              {
                                "id" : 109,
                                "_type" : "AMFile",
                                "src" : 5,
                                "trackNumber" : 1,
                                "attributes" : {
                                  "ident" : "",
                                  "sampleRate" : 44100,
                                  "bitDepth" : 16,
                                  "gain" : 1.0,
                                  "mixToMono" : false
                                },
                                  "channelNumber" : "0,1",
                                "effects" : [

                                ],
                                "start" : 3511,
                                "duration" : 584,
                                "mediaStart" : 6500,
                                "mediaDuration" : 584,
                                "scalar" : 1,
                                "animationTracks" : {

                                }
                              }
,
                          "start" : 3511,
                          "duration" : 584,
                          "mediaStart" : 0,
                          "mediaDuration" : 7084,
                          "scalar" : 1,
                          "metadata" : {
                            "clipSpeedAttribute" : false,
                            "default-scale" : "1",
                            "effectApplied" : "none"
                          }
                        }
                    ],
                    "effects" : [

                    ],
                    "start" : 5982,
                    "duration" : 3753,
                    "mediaStart" : 49,
                    "mediaDuration" : 3753,
                    "scalar" : 1,
                    "metadata" : {
                      "clipSpeedAttribute" : false,
                      "default-scale" : "1",
                      "effectApplied" : "none"
                    },
                    "animationTracks" : {

                    }
                  }
                ]
              },
              {
                "trackIndex" : 1,
                "medias" : [
                  {
                    "id" : 110,
                    "_type" : "Callout",
                    "def" : {
                      "kind" : "remix",
                      "shape" : "arrow",
                      "style" : "basic",
                      "stroke-color-blue" : 0.109803921568627,
                      "stroke-color-green" : 0.686274509803922,
                      "stroke-color-opacity" : 1.0,
                      "stroke-color-red" : 0.92156862745098,
                      "stroke-width" : 8.0,
                      "tail-x" : {
                        "type" : "double",
                        "defaultValue" : 84.6270582575265,
                        "interp" : "eioe"
                      },
                      "tail-y" : {
                        "type" : "double",
                        "defaultValue" : -47.2885587761141,
                        "interp" : "eioe"
                      },
                      "shape-anchor" : "none",
                      "shape-tail" : "arrow",
                      "stroke-style" : "solid"
                    },
                    "attributes" : {
                      "autoRotateText" : true
                    },
                    "parameters" : {
                      "translation0" : -138.949577267562,
                      "translation1" : 170.636967846277
                    },
                    "effects" : [

                    ],
                    "start" : 2807,
                    "duration" : 245,
                    "mediaStart" : 0,
                    "mediaDuration" : 245,
                    "scalar" : 1,
                    "metadata" : {
                      "AppliedThemeId" : "",
                      "clipSpeedAttribute" : false,
                      "default-callout-stroke-color" : "(5,175,143,255)",
                      "default-scale" : "1",
                      "effectApplied" : "none"
                    },
                    "animationTracks" : {

                    }
                  },
                  {
                    "id" : 111,
                    "_type" : "Callout",
                    "def" : {
                      "kind" : "remix",
                      "shape" : "shape-rectangle",
                      "style" : "basic",
                      "fill-color-blue" : 0.0,
                      "fill-color-green" : 0.0,
                      "fill-color-opacity" : 0.0,
                      "fill-color-red" : 0.0,
                      "height" : 69.7675998242314,
                      "stroke-color-blue" : 0.109803921568627,
                      "stroke-color-green" : 0.686274509803922,
                      "stroke-color-opacity" : 1.0,
                      "stroke-color-red" : 0.92156862745098,
                      "stroke-width" : 3.0,
                      "width" : 644.398803710938,
                      "fill-style" : "solid",
                      "stroke-style" : "solid"
                    },
                    "attributes" : {
                      "autoRotateText" : true
                    },
                    "parameters" : {
                      "translation0" : -138.238208092464,
                      "translation1" : 116.757789017344
                    },
                    "effects" : [

                    ],
                    "start" : 5651,
                    "duration" : 125,
                    "mediaStart" : 0,
                    "mediaDuration" : 125,
                    "scalar" : 1,
                    "metadata" : {
                      "AppliedThemeId" : "",
                      "clipSpeedAttribute" : false,
                      "default-callout-stroke-color" : "(255,255,255,255)",
                      "default-callout-stroke-width" : "6",
                      "default-scale" : "1",
                      "effectApplied" : "none"
                    },
                    "animationTracks" : {

                    }
                  },
                  {
                    "id" : 112,
                    "_type" : "Callout",
                    "def" : {
                      "kind" : "remix",
                      "shape" : "shape-rectangle",
                      "style" : "basic",
                      "fill-color-blue" : 0.0,
                      "fill-color-green" : 0.0,
                      "fill-color-opacity" : 0.0,
                      "fill-color-red" : 0.0,
                      "height" : 59.3929166954754,
                      "stroke-color-blue" : 0.109803921568627,
                      "stroke-color-green" : 0.686274509803922,
                      "stroke-color-opacity" : 1.0,
                      "stroke-color-red" : 0.92156862745098,
                      "stroke-width" : 3.0,
                      "width" : 213.656265258789,
                      "fill-style" : "solid",
                      "stroke-style" : "solid"
                    },
                    "attributes" : {
                      "autoRotateText" : true
                    },
                    "parameters" : {
                      "translation0" : -220.871661849712,
                      "translation1" : 56.3096393942459
                    },
                    "effects" : [

                    ],
                    "start" : 5776,
                    "duration" : 119,
                    "mediaStart" : 0,
                    "mediaDuration" : 119,
                    "scalar" : 1,
                    "metadata" : {
                      "AppliedThemeId" : "",
                      "clipSpeedAttribute" : false,
                      "default-callout-stroke-color" : "(255,255,255,255)",
                      "default-callout-stroke-width" : "6",
                      "default-scale" : "1",
                      "effectApplied" : "none"
                    },
                    "animationTracks" : {

                    }
                  }
                ]
              },
              {
                "trackIndex" : 2,
                "medias" : [
                  {
                    "id" : 113,
                    "_type" : "Callout",
                    "def" : {
                      "kind" : "remix",
                      "shape" : "arrow",
                      "style" : "basic",
                      "stroke-color-blue" : {
                        "type" : "double",
                        "defaultValue" : 0.109803921568627,
                        "interp" : "linr"
                      },
                      "stroke-color-green" : {
                        "type" : "double",
                        "defaultValue" : 0.686274509803922,
                        "interp" : "linr"
                      },
                      "stroke-color-opacity" : {
                        "type" : "double",
                        "defaultValue" : 1.0,
                        "interp" : "linr"
                      },
                      "stroke-color-red" : {
                        "type" : "double",
                        "defaultValue" : 0.92156862745098,
                        "interp" : "linr"
                      },
                      "stroke-width" : {
                        "type" : "double",
                        "defaultValue" : 8.0,
                        "interp" : "linr"
                      },
                      "tail-x" : {
                        "type" : "double",
                        "defaultValue" : 100.0,
                        "interp" : "eioe"
                      },
                      "tail-y" : {
                        "type" : "double",
                        "defaultValue" : 0.0,
                        "interp" : "eioe"
                      },
                      "shape-anchor" : "none",
                      "shape-tail" : "arrow",
                      "stroke-style" : "solid"
                    },
                    "attributes" : {
                      "autoRotateText" : true
                    },
                    "parameters" : {
                      "translation0" : {
                        "type" : "double",
                        "defaultValue" : -172.322519010036,
                        "interp" : "eioe"
                      },
                      "translation1" : {
                        "type" : "double",
                        "defaultValue" : 99.3484090701631,
                        "interp" : "eioe"
                      }
                    },
                    "effects" : [

                    ],
                    "start" : 2834,
                    "duration" : 218,
                    "mediaStart" : 0,
                    "mediaDuration" : 218,
                    "scalar" : 1,
                    "metadata" : {
                      "AppliedThemeId" : "",
                      "clipSpeedAttribute" : false,
                      "default-callout-stroke-color" : "(5,175,143,255)",
                      "default-scale" : "1",
                      "effectApplied" : "none"
                    },
                    "animationTracks" : {

                    }
                  },
                  {
                    "id" : 114,
                    "_type" : "Callout",
                    "def" : {
                      "kind" : "remix",
                      "shape" : "shape-rectangle",
                      "style" : "basic",
                      "fill-color-blue" : 0.0,
                      "fill-color-green" : 0.0,
                      "fill-color-opacity" : 0.0,
                      "fill-color-red" : 0.0,
                      "height" : 176.5483607968,
                      "stroke-color-blue" : 0.109803921568627,
                      "stroke-color-green" : 0.686274509803922,
                      "stroke-color-opacity" : 1.0,
                      "stroke-color-red" : 0.92156862745098,
                      "stroke-width" : 3.0,
                      "width" : 570.130676269531,
                      "fill-style" : "solid",
                      "stroke-style" : "solid"
                    },
                    "attributes" : {
                      "autoRotateText" : true
                    },
                    "parameters" : {
                      "translation0" : -56.1090606936239,
                      "translation1" : -65.5569797687859
                    },
                    "effects" : [

                    ],
                    "start" : 5895,
                    "duration" : 87,
                    "mediaStart" : 0,
                    "mediaDuration" : 87,
                    "scalar" : 1,
                    "metadata" : {
                      "AppliedThemeId" : "",
                      "clipSpeedAttribute" : false,
                      "default-callout-stroke-color" : "(255,255,255,255)",
                      "default-callout-stroke-width" : "6",
                      "default-scale" : "1",
                      "effectApplied" : "none"
                    },
                    "animationTracks" : {

                    }
                  }
                ]
              },
              {
                "trackIndex" : 3,
                "medias" : [
                  {
                    "id" : 115,
                    "_type" : "Callout",
                    "def" : {
                      "kind" : "remix",
                      "shape" : "arrow",
                      "style" : "basic",
                      "stroke-color-blue" : {
                        "type" : "double",
                        "defaultValue" : 0.109803921568627,
                        "interp" : "linr"
                      },
                      "stroke-color-green" : {
                        "type" : "double",
                        "defaultValue" : 0.686274509803922,
                        "interp" : "linr"
                      },
                      "stroke-color-opacity" : {
                        "type" : "double",
                        "defaultValue" : 1.0,
                        "interp" : "linr"
                      },
                      "stroke-color-red" : {
                        "type" : "double",
                        "defaultValue" : 0.92156862745098,
                        "interp" : "linr"
                      },
                      "stroke-width" : {
                        "type" : "double",
                        "defaultValue" : 8.0,
                        "interp" : "linr"
                      },
                      "tail-x" : {
                        "type" : "double",
                        "defaultValue" : 100.0,
                        "interp" : "eioe"
                      },
                      "tail-y" : {
                        "type" : "double",
                        "defaultValue" : 0.0,
                        "interp" : "eioe"
                      },
                      "shape-anchor" : "none",
                      "shape-tail" : "arrow",
                      "stroke-style" : "solid"
                    },
                    "attributes" : {
                      "autoRotateText" : true
                    },
                    "parameters" : {
                      "translation0" : {
                        "type" : "double",
                        "defaultValue" : -172.322519010036,
                        "interp" : "eioe"
                      },
                      "translation1" : {
                        "type" : "double",
                        "defaultValue" : -63.6515909298369,
                        "interp" : "eioe"
                      }
                    },
                    "effects" : [

                    ],
                    "start" : 2866,
                    "duration" : 188,
                    "mediaStart" : 0,
                    "mediaDuration" : 188,
                    "scalar" : 1,
                    "metadata" : {
                      "AppliedThemeId" : "",
                      "clipSpeedAttribute" : false,
                      "default-callout-stroke-color" : "(5,175,143,255)",
                      "default-scale" : "1",
                      "effectApplied" : "none"
                    },
                    "animationTracks" : {

                    }
                  }
                ]
              }
            ]
          }
        }
      ]
    },
    "trackAttributes" : [
      {
        "ident" : "",
        "audioMuted" : false,
        "videoHidden" : false,
        "magnetic" : false,
        "metadata" : {
          "IsLocked" : "False",
          "trackHeight" : "33"
        }
      },
      {
        "ident" : "",
        "audioMuted" : false,
        "videoHidden" : false,
        "magnetic" : false,
        "metadata" : {
          "IsLocked" : "False",
          "trackHeight" : "33"
        }
      },
      {
        "ident" : "",
        "audioMuted" : false,
        "videoHidden" : false,
        "magnetic" : false,
        "metadata" : {
          "IsLocked" : "False",
          "trackHeight" : "33"
        }
      },
      {
        "ident" : "",
        "audioMuted" : false,
        "videoHidden" : false,
        "magnetic" : false,
        "metadata" : {
          "IsLocked" : "False",
          "trackHeight" : "33"
        }
      }
    ],
    "captionAttributes" : {
      "enabled" : true,
      "fontName" : "Arial",
      "fontSize" : 32,
      "backgroundColor" : [ 0, 0, 0, 204],
      "foregroundColor" : [ 255, 255, 255, 255],
      "lang" : "en",
      "alignment" : 0,
      "defaultFontSize" : true,
      "opacity" : 0.5,
      "backgroundEnabled" : true,
      "backgroundOnlyAroundText" : true
    },
    "backgroundColor" : [ 0, 0, 0, 255],
    "metadata" : {
      "RecordingHeight" : "768",
      "RecordingWidth" : "1366"
    }
  },
  "metadata" : {
    "CanvasSizeWarning" : 1,
    "activeThemeId" : "e59eeb42-ccf0-4a36-bdf9-e630fdab686d",
    "firstMedia" : true,
    "hasNotifiedAboutHFRMedia" : false
  }
}
