{
  "title" : "",
  "description" : "",
  "author" : "",
  "targetLoudness" : -18.0,
  "shouldApplyLoudnessNormalization" : true,
  "videoFormatFrameRate" : 30,
  "audioFormatSampleRate" : 44100,
  "width" : 1280.0,
  "height" : 800.0,
  "version" : "3.0",
  "editRate" : 30,
  "authoringClientName" :  {
    "name" : "Camtasia",
    "platform" : "Mac",
    "version" : "2019.0.2"
  },
  "sourceBin" : [
    {
      "id" : 1,
      "src" : "./recordings/1569764108.558996/Rec 9-29-2019 10.trec",
      "rect" : [0, 0, 1366, 768],
      "lastMod" : "20190929T132642",
      "sourceTracks" : [
        {
          "range" : [0, 3839],
          "type" : 0,
          "editRate" : 30,
          "trackRect" : [0, 0, 1366, 768],
          "sampleRate" : 30,
          "bitDepth" : 0,
          "numChannels" : 0,
          "integratedLUFS" : 100.0,
          "peakLevel" : -1.0,
          "metaData" : "2b7b6a01-7a1f-11e2-83d0-0017f200be7f;2b7b6af0-7a1f-11e2-83d0-0017f200be7f;2b7b6af1-7a1f-11e2-83d0-0017f200be7f;2b7b6af2-7a1f-11e2-83d0-0017f200be7f;2b7b6af3-7a1f-11e2-83d0-0017f200be7f;2b7b6af5-7a1f-11e2-83d0-0017f200be7f;2b7b6af6-7a1f-11e2-83d0-0017f200be7f;2b7b6af7-7a1f-11e2-83d0-0017f200be7f;2b7b6af8-7a1f-11e2-83d0-0017f200be7f;2b7b6af9-7a1f-11e2-83d0-0017f200be7f;2b7b6afa-7a1f-11e2-83d0-0017f200be7f;2b7b6afb-7a1f-11e2-83d0-0017f200be7f;2b7b6afc-7a1f-11e2-83d0-0017f200be7f;"
        },
        {
          "range" : [0, 5655552],
          "type" : 2,
          "editRate" : 44100,
          "trackRect" : [0, 0, 0, 0],
          "sampleRate" : 44100,
          "bitDepth" : 16,
          "numChannels" : 2,
          "integratedLUFS" : -28.1200684451754,
          "peakLevel" : 0.511871337890625,
          "metaData" : ""
        }
      ]
    },
    {
      "id" : 2,
      "src" : "./media/1569764108.559267/Rec 9-29-2019 11.m4a",
      "rect" : [0, 0, 0, 0],
      "lastMod" : "20190929T133319",
      "sourceTracks" : [
        {
          "range" : [0, 8335],
          "type" : 2,
          "editRate" : 1000,
          "trackRect" : [0, 0, 0, 0],
          "sampleRate" : 44100,
          "bitDepth" : 0,
          "numChannels" : 2,
          "integratedLUFS" : -28.2391962115282,
          "peakLevel" : 0.259758234024048,
          "metaData" : ""
        }
      ]
    },
    {
      "id" : 3,
      "src" : "./media/1569769052.349801/Rec 9-29-2019 12.m4a",
      "rect" : [0, 0, 0, 0],
      "lastMod" : "20190929T134604",
      "sourceTracks" : [
        {
          "range" : [0, 6594],
          "type" : 2,
          "editRate" : 1000,
          "trackRect" : [0, 0, 0, 0],
          "sampleRate" : 44100,
          "bitDepth" : 0,
          "numChannels" : 2,
          "integratedLUFS" : -31.5082277544399,
          "peakLevel" : 0.274958521127701,
          "metaData" : ""
        }
      ]
    },
    {
      "id" : 4,
      "src" : "./media/1569769052.350126/Rec 9-29-2019 13.m4a",
      "rect" : [0, 0, 0, 0],
      "lastMod" : "20190929T134622",
      "sourceTracks" : [
        {
          "range" : [0, 2252],
          "type" : 2,
          "editRate" : 1000,
          "trackRect" : [0, 0, 0, 0],
          "sampleRate" : 44100,
          "bitDepth" : 0,
          "numChannels" : 2,
          "integratedLUFS" : -67.4991356559447,
          "peakLevel" : 0.0120135750621557,
          "metaData" : ""
        }
      ]
    },
    {
      "id" : 5,
      "src" : "./media/1569769052.350335/Rec 9-29-2019 14.m4a",
      "rect" : [0, 0, 0, 0],
      "lastMod" : "20190929T134646",
      "sourceTracks" : [
        {
          "range" : [0, 6524],
          "type" : 2,
          "editRate" : 1000,
          "trackRect" : [0, 0, 0, 0],
          "sampleRate" : 44100,
          "bitDepth" : 0,
          "numChannels" : 2,
          "integratedLUFS" : -31.4927271127404,
          "peakLevel" : 0.224513918161392,
          "metaData" : ""
        }
      ]
    },
    {
      "id" : 6,
      "src" : "./media/1569769052.350640/Rec 9-29-2019 15.m4a",
      "rect" : [0, 0, 0, 0],
      "lastMod" : "20190929T135105",
      "sourceTracks" : [
        {
          "range" : [0, 11354],
          "type" : 2,
          "editRate" : 1000,
          "trackRect" : [0, 0, 0, 0],
          "sampleRate" : 44100,
          "bitDepth" : 0,
          "numChannels" : 2,
          "integratedLUFS" : -29.1573044017818,
          "peakLevel" : 0.267313033342361,
          "metaData" : ""
        }
      ]
    },
    {
      "id" : 7,
      "src" : "./recordings/1569769052.351043/Rec 9-29-2019 16.trec",
      "rect" : [0, 0, 1366, 768],
      "lastMod" : "20190929T141836",
      "sourceTracks" : [
        {
          "range" : [0, 1633],
          "type" : 0,
          "editRate" : 30,
          "trackRect" : [0, 0, 1366, 768],
          "sampleRate" : 29,
          "bitDepth" : 0,
          "numChannels" : 0,
          "integratedLUFS" : 100.0,
          "peakLevel" : -1.0,
          "metaData" : "2b7b6a01-7a1f-11e2-83d0-0017f200be7f;2b7b6af0-7a1f-11e2-83d0-0017f200be7f;2b7b6af1-7a1f-11e2-83d0-0017f200be7f;2b7b6af2-7a1f-11e2-83d0-0017f200be7f;2b7b6af3-7a1f-11e2-83d0-0017f200be7f;2b7b6af5-7a1f-11e2-83d0-0017f200be7f;2b7b6af6-7a1f-11e2-83d0-0017f200be7f;2b7b6af7-7a1f-11e2-83d0-0017f200be7f;2b7b6af8-7a1f-11e2-83d0-0017f200be7f;2b7b6af9-7a1f-11e2-83d0-0017f200be7f;2b7b6afa-7a1f-11e2-83d0-0017f200be7f;2b7b6afb-7a1f-11e2-83d0-0017f200be7f;2b7b6afc-7a1f-11e2-83d0-0017f200be7f;"
        },
        {
          "range" : [0, 2406400],
          "type" : 2,
          "editRate" : 44100,
          "trackRect" : [0, 0, 0, 0],
          "sampleRate" : 44100,
          "bitDepth" : 16,
          "numChannels" : 2,
          "integratedLUFS" : -27.4875754088732,
          "peakLevel" : 0.713592529296875,
          "metaData" : ""
        }
      ]
    },
    {
      "id" : 8,
      "src" : "./media/1569769052.351626/Music Tracks - atthetop.mp3",
      "rect" : [0, 0, 0, 0],
      "lastMod" : "20190711T154232",
      "sourceTracks" : [
        {
          "range" : [0, 7272576],
          "type" : 2,
          "editRate" : 48000,
          "trackRect" : [0, 0, 0, 0],
          "sampleRate" : 48000,
          "bitDepth" : 0,
          "numChannels" : 2,
          "integratedLUFS" : -10.802492453226,
          "peakLevel" : 1.05997455120087,
          "metaData" : ""
        }
      ]
    },
    {
      "id" : 9,
      "src" : "./media/1569769052.352587/Rec 9-29-2019 17.m4a",
      "rect" : [0, 0, 0, 0],
      "lastMod" : "20190929T143900",
      "sourceTracks" : [
        {
          "range" : [0, 1880],
          "type" : 2,
          "editRate" : 1000,
          "trackRect" : [0, 0, 0, 0],
          "sampleRate" : 44100,
          "bitDepth" : 0,
          "numChannels" : 2,
          "integratedLUFS" : -36.0465187579173,
          "peakLevel" : 0.0817548260092735,
          "metaData" : ""
        }
      ]
    },
    {
      "id" : 10,
      "src" : "./media/1569769052.352980/Rec 9-29-2019 18.m4a",
      "rect" : [0, 0, 0, 0],
      "lastMod" : "20190929T143910",
      "sourceTracks" : [
        {
          "range" : [0, 2623],
          "type" : 2,
          "editRate" : 1000,
          "trackRect" : [0, 0, 0, 0],
          "sampleRate" : 44100,
          "bitDepth" : 0,
          "numChannels" : 2,
          "integratedLUFS" : -33.8363734209366,
          "peakLevel" : 0.150067582726479,
          "metaData" : ""
        }
      ]
    },
    {
      "id" : 11,
      "src" : "./media/1569769052.353328/Rec 9-29-2019 19.m4a",
      "rect" : [0, 0, 0, 0],
      "lastMod" : "20190929T144125",
      "sourceTracks" : [
        {
          "range" : [0, 5317],
          "type" : 2,
          "editRate" : 1000,
          "trackRect" : [0, 0, 0, 0],
          "sampleRate" : 44100,
          "bitDepth" : 0,
          "numChannels" : 2,
          "integratedLUFS" : -36.7730907755757,
          "peakLevel" : 0.107188530266285,
          "metaData" : ""
        }
      ]
    },
    {
      "id" : 12,
      "src" : "./media/1569769052.353664/Rec 9-29-2019 20.m4a",
      "rect" : [0, 0, 0, 0],
      "lastMod" : "20190929T144241",
      "sourceTracks" : [
        {
          "range" : [0, 7105],
          "type" : 2,
          "editRate" : 1000,
          "trackRect" : [0, 0, 0, 0],
          "sampleRate" : 44100,
          "bitDepth" : 0,
          "numChannels" : 2,
          "integratedLUFS" : -35.8715191048468,
          "peakLevel" : 0.169459015130997,
          "metaData" : ""
        }
      ]
    },
    {
      "id" : 13,
      "src" : "./recordings/1569769052.353989/Rec 9-29-2019 21.trec",
      "rect" : [0, 0, 1366, 768],
      "lastMod" : "20190929T144622",
      "sourceTracks" : [
        {
          "range" : [0, 675],
          "type" : 0,
          "editRate" : 30,
          "trackRect" : [0, 0, 1366, 768],
          "sampleRate" : 30,
          "bitDepth" : 0,
          "numChannels" : 0,
          "integratedLUFS" : 100.0,
          "peakLevel" : -1.0,
          "metaData" : "2b7b6a01-7a1f-11e2-83d0-0017f200be7f;2b7b6af0-7a1f-11e2-83d0-0017f200be7f;2b7b6af1-7a1f-11e2-83d0-0017f200be7f;2b7b6af2-7a1f-11e2-83d0-0017f200be7f;2b7b6af3-7a1f-11e2-83d0-0017f200be7f;2b7b6af5-7a1f-11e2-83d0-0017f200be7f;2b7b6af6-7a1f-11e2-83d0-0017f200be7f;2b7b6af7-7a1f-11e2-83d0-0017f200be7f;2b7b6af8-7a1f-11e2-83d0-0017f200be7f;2b7b6af9-7a1f-11e2-83d0-0017f200be7f;2b7b6afa-7a1f-11e2-83d0-0017f200be7f;2b7b6afb-7a1f-11e2-83d0-0017f200be7f;2b7b6afc-7a1f-11e2-83d0-0017f200be7f;"
        },
        {
          "range" : [0, 997376],
          "type" : 2,
          "editRate" : 44100,
          "trackRect" : [0, 0, 0, 0],
          "sampleRate" : 44100,
          "bitDepth" : 16,
          "numChannels" : 2,
          "integratedLUFS" : -34.6205905396131,
          "peakLevel" : 0.166656494140625,
          "metaData" : ""
        }
      ]
    },
    {
      "id" : 14,
      "src" : "./recordings/1569769052.354319/Rec 9-29-2019 24.trec",
      "rect" : [0, 0, 1366, 768],
      "lastMod" : "20190929T145457",
      "sourceTracks" : [
        {
          "range" : [0, 590],
          "type" : 0,
          "editRate" : 30,
          "trackRect" : [0, 0, 1366, 768],
          "sampleRate" : 30,
          "bitDepth" : 0,
          "numChannels" : 0,
          "integratedLUFS" : 100.0,
          "peakLevel" : -1.0,
          "metaData" : "2b7b6a01-7a1f-11e2-83d0-0017f200be7f;2b7b6af0-7a1f-11e2-83d0-0017f200be7f;2b7b6af1-7a1f-11e2-83d0-0017f200be7f;2b7b6af2-7a1f-11e2-83d0-0017f200be7f;2b7b6af3-7a1f-11e2-83d0-0017f200be7f;2b7b6af5-7a1f-11e2-83d0-0017f200be7f;2b7b6af6-7a1f-11e2-83d0-0017f200be7f;2b7b6af7-7a1f-11e2-83d0-0017f200be7f;2b7b6af8-7a1f-11e2-83d0-0017f200be7f;2b7b6af9-7a1f-11e2-83d0-0017f200be7f;2b7b6afa-7a1f-11e2-83d0-0017f200be7f;2b7b6afb-7a1f-11e2-83d0-0017f200be7f;2b7b6afc-7a1f-11e2-83d0-0017f200be7f;"
        },
        {
          "range" : [0, 872448],
          "type" : 2,
          "editRate" : 44100,
          "trackRect" : [0, 0, 0, 0],
          "sampleRate" : 44100,
          "bitDepth" : 16,
          "numChannels" : 2,
          "integratedLUFS" : -66.4582983307482,
          "peakLevel" : 0.012451171875,
          "metaData" : ""
        }
      ]
    },
    {
      "id" : 15,
      "src" : "./recordings/1569771697.371974/Rec 9-29-2019 25.trec",
      "rect" : [0, 0, 1366, 768],
      "lastMod" : "20190929T150232",
      "sourceTracks" : [
        {
          "range" : [0, 2063],
          "type" : 0,
          "editRate" : 30,
          "trackRect" : [0, 0, 1366, 768],
          "sampleRate" : 29,
          "bitDepth" : 0,
          "numChannels" : 0,
          "integratedLUFS" : 100.0,
          "peakLevel" : -1.0,
          "metaData" : "2b7b6a01-7a1f-11e2-83d0-0017f200be7f;2b7b6af0-7a1f-11e2-83d0-0017f200be7f;2b7b6af1-7a1f-11e2-83d0-0017f200be7f;2b7b6af2-7a1f-11e2-83d0-0017f200be7f;2b7b6af3-7a1f-11e2-83d0-0017f200be7f;2b7b6af5-7a1f-11e2-83d0-0017f200be7f;2b7b6af6-7a1f-11e2-83d0-0017f200be7f;2b7b6af7-7a1f-11e2-83d0-0017f200be7f;2b7b6af8-7a1f-11e2-83d0-0017f200be7f;2b7b6af9-7a1f-11e2-83d0-0017f200be7f;2b7b6afa-7a1f-11e2-83d0-0017f200be7f;2b7b6afb-7a1f-11e2-83d0-0017f200be7f;2b7b6afc-7a1f-11e2-83d0-0017f200be7f;"
        },
        {
          "range" : [0, 3039232],
          "type" : 2,
          "editRate" : 44100,
          "trackRect" : [0, 0, 0, 0],
          "sampleRate" : 44100,
          "bitDepth" : 16,
          "numChannels" : 2,
          "integratedLUFS" : -35.8016255916907,
          "peakLevel" : 0.137298583984375,
          "metaData" : ""
        }
      ]
    },
    {
      "id" : 16,
      "src" : "./recordings/1569771697.372318/Rec 9-29-2019 26.trec",
      "rect" : [0, 0, 1366, 768],
      "lastMod" : "20190929T152452",
      "sourceTracks" : [
        {
          "range" : [0, 1220],
          "type" : 0,
          "editRate" : 30,
          "trackRect" : [0, 0, 1366, 768],
          "sampleRate" : 30,
          "bitDepth" : 0,
          "numChannels" : 0,
          "integratedLUFS" : 100.0,
          "peakLevel" : -1.0,
          "metaData" : "2b7b6a01-7a1f-11e2-83d0-0017f200be7f;2b7b6af0-7a1f-11e2-83d0-0017f200be7f;2b7b6af1-7a1f-11e2-83d0-0017f200be7f;2b7b6af2-7a1f-11e2-83d0-0017f200be7f;2b7b6af3-7a1f-11e2-83d0-0017f200be7f;2b7b6af5-7a1f-11e2-83d0-0017f200be7f;2b7b6af6-7a1f-11e2-83d0-0017f200be7f;2b7b6af7-7a1f-11e2-83d0-0017f200be7f;2b7b6af8-7a1f-11e2-83d0-0017f200be7f;2b7b6af9-7a1f-11e2-83d0-0017f200be7f;2b7b6afa-7a1f-11e2-83d0-0017f200be7f;2b7b6afb-7a1f-11e2-83d0-0017f200be7f;2b7b6afc-7a1f-11e2-83d0-0017f200be7f;"
        },
        {
          "range" : [0, 1800192],
          "type" : 2,
          "editRate" : 44100,
          "trackRect" : [0, 0, 0, 0],
          "sampleRate" : 44100,
          "bitDepth" : 16,
          "numChannels" : 2,
          "integratedLUFS" : -38.0439332108356,
          "peakLevel" : 0.09625244140625,
          "metaData" : ""
        }
      ]
    },
    {
      "id" : 17,
      "src" : "./recordings/1569771697.372542/Rec 9-29-2019 32.trec",
      "rect" : [0, 0, 1366, 768],
      "lastMod" : "20190929T153612",
      "sourceTracks" : [
        {
          "range" : [0, 2939],
          "type" : 0,
          "editRate" : 30,
          "trackRect" : [0, 0, 1366, 768],
          "sampleRate" : 29,
          "bitDepth" : 0,
          "numChannels" : 0,
          "integratedLUFS" : 100.0,
          "peakLevel" : -1.0,
          "metaData" : "2b7b6a01-7a1f-11e2-83d0-0017f200be7f;2b7b6af0-7a1f-11e2-83d0-0017f200be7f;2b7b6af1-7a1f-11e2-83d0-0017f200be7f;2b7b6af2-7a1f-11e2-83d0-0017f200be7f;2b7b6af3-7a1f-11e2-83d0-0017f200be7f;2b7b6af5-7a1f-11e2-83d0-0017f200be7f;2b7b6af6-7a1f-11e2-83d0-0017f200be7f;2b7b6af7-7a1f-11e2-83d0-0017f200be7f;2b7b6af8-7a1f-11e2-83d0-0017f200be7f;2b7b6af9-7a1f-11e2-83d0-0017f200be7f;2b7b6afa-7a1f-11e2-83d0-0017f200be7f;2b7b6afb-7a1f-11e2-83d0-0017f200be7f;2b7b6afc-7a1f-11e2-83d0-0017f200be7f;"
        },
        {
          "range" : [0, 4330496],
          "type" : 2,
          "editRate" : 44100,
          "trackRect" : [0, 0, 0, 0],
          "sampleRate" : 44100,
          "bitDepth" : 16,
          "numChannels" : 2,
          "integratedLUFS" : -31.3380603710506,
          "peakLevel" : 0.32647705078125,
          "metaData" : ""
        }
      ]
    },
    {
      "id" : 18,
      "src" : "./recordings/1569777912.258387/Rec 9-29-2019 33.trec",
      "rect" : [0, 0, 1366, 768],
      "lastMod" : "20190929T162812",
      "sourceTracks" : [
        {
          "range" : [0, 1725],
          "type" : 0,
          "editRate" : 30,
          "trackRect" : [0, 0, 1366, 768],
          "sampleRate" : 30,
          "bitDepth" : 0,
          "numChannels" : 0,
          "integratedLUFS" : 100.0,
          "peakLevel" : -1.0,
          "metaData" : "2b7b6a01-7a1f-11e2-83d0-0017f200be7f;2b7b6af0-7a1f-11e2-83d0-0017f200be7f;2b7b6af1-7a1f-11e2-83d0-0017f200be7f;2b7b6af2-7a1f-11e2-83d0-0017f200be7f;2b7b6af3-7a1f-11e2-83d0-0017f200be7f;2b7b6af5-7a1f-11e2-83d0-0017f200be7f;2b7b6af6-7a1f-11e2-83d0-0017f200be7f;2b7b6af7-7a1f-11e2-83d0-0017f200be7f;2b7b6af8-7a1f-11e2-83d0-0017f200be7f;2b7b6af9-7a1f-11e2-83d0-0017f200be7f;2b7b6afa-7a1f-11e2-83d0-0017f200be7f;2b7b6afb-7a1f-11e2-83d0-0017f200be7f;2b7b6afc-7a1f-11e2-83d0-0017f200be7f;"
        },
        {
          "range" : [0, 2543616],
          "type" : 2,
          "editRate" : 44100,
          "trackRect" : [0, 0, 0, 0],
          "sampleRate" : 44100,
          "bitDepth" : 16,
          "numChannels" : 2,
          "integratedLUFS" : -28.5406991633219,
          "peakLevel" : 0.414886474609375,
          "metaData" : ""
        }
      ]
    },
    {
      "id" : 19,
      "src" : "./recordings/1569777912.258604/Rec 9-29-2019 34.trec",
      "rect" : [0, 0, 1366, 768],
      "lastMod" : "20190929T163918",
      "sourceTracks" : [
        {
          "range" : [0, 128],
          "type" : 0,
          "editRate" : 30,
          "trackRect" : [0, 0, 1366, 768],
          "sampleRate" : 30,
          "bitDepth" : 0,
          "numChannels" : 0,
          "integratedLUFS" : 100.0,
          "peakLevel" : -1.0,
          "metaData" : "2b7b6a01-7a1f-11e2-83d0-0017f200be7f;2b7b6af0-7a1f-11e2-83d0-0017f200be7f;2b7b6af1-7a1f-11e2-83d0-0017f200be7f;2b7b6af2-7a1f-11e2-83d0-0017f200be7f;2b7b6af3-7a1f-11e2-83d0-0017f200be7f;2b7b6af5-7a1f-11e2-83d0-0017f200be7f;2b7b6af6-7a1f-11e2-83d0-0017f200be7f;2b7b6af7-7a1f-11e2-83d0-0017f200be7f;2b7b6af8-7a1f-11e2-83d0-0017f200be7f;2b7b6af9-7a1f-11e2-83d0-0017f200be7f;2b7b6afa-7a1f-11e2-83d0-0017f200be7f;2b7b6afb-7a1f-11e2-83d0-0017f200be7f;2b7b6afc-7a1f-11e2-83d0-0017f200be7f;"
        },
        {
          "range" : [0, 190464],
          "type" : 2,
          "editRate" : 44100,
          "trackRect" : [0, 0, 0, 0],
          "sampleRate" : 44100,
          "bitDepth" : 16,
          "numChannels" : 2,
          "integratedLUFS" : -65.8645032604549,
          "peakLevel" : 0.016937255859375,
          "metaData" : ""
        }
      ]
    },
    {
      "id" : 20,
      "src" : "./recordings/1569777912.258769/Rec 9-29-2019 41.trec",
      "rect" : [0, 0, 1366, 768],
      "lastMod" : "20190929T165535",
      "sourceTracks" : [
        {
          "range" : [0, 1083],
          "type" : 0,
          "editRate" : 30,
          "trackRect" : [0, 0, 1366, 768],
          "sampleRate" : 30,
          "bitDepth" : 0,
          "numChannels" : 0,
          "integratedLUFS" : 100.0,
          "peakLevel" : -1.0,
          "metaData" : "2b7b6a01-7a1f-11e2-83d0-0017f200be7f;2b7b6af0-7a1f-11e2-83d0-0017f200be7f;2b7b6af1-7a1f-11e2-83d0-0017f200be7f;2b7b6af2-7a1f-11e2-83d0-0017f200be7f;2b7b6af3-7a1f-11e2-83d0-0017f200be7f;2b7b6af5-7a1f-11e2-83d0-0017f200be7f;2b7b6af6-7a1f-11e2-83d0-0017f200be7f;2b7b6af7-7a1f-11e2-83d0-0017f200be7f;2b7b6af8-7a1f-11e2-83d0-0017f200be7f;2b7b6af9-7a1f-11e2-83d0-0017f200be7f;2b7b6afa-7a1f-11e2-83d0-0017f200be7f;2b7b6afb-7a1f-11e2-83d0-0017f200be7f;2b7b6afc-7a1f-11e2-83d0-0017f200be7f;"
        },
        {
          "range" : [0, 1598464],
          "type" : 2,
          "editRate" : 44100,
          "trackRect" : [0, 0, 0, 0],
          "sampleRate" : 44100,
          "bitDepth" : 16,
          "numChannels" : 2,
          "integratedLUFS" : -35.4762929663111,
          "peakLevel" : 0.145263671875,
          "metaData" : ""
        }
      ]
    },
    {
      "id" : 21,
      "src" : "./recordings/1569777912.258930/Rec 9-29-2019 46.trec",
      "rect" : [0, 0, 1366, 768],
      "lastMod" : "20190929T172114",
      "sourceTracks" : [
        {
          "range" : [0, 2051],
          "type" : 0,
          "editRate" : 30,
          "trackRect" : [0, 0, 1366, 768],
          "sampleRate" : 30,
          "bitDepth" : 0,
          "numChannels" : 0,
          "integratedLUFS" : 100.0,
          "peakLevel" : -1.0,
          "metaData" : "2b7b6a01-7a1f-11e2-83d0-0017f200be7f;2b7b6af0-7a1f-11e2-83d0-0017f200be7f;2b7b6af1-7a1f-11e2-83d0-0017f200be7f;2b7b6af2-7a1f-11e2-83d0-0017f200be7f;2b7b6af3-7a1f-11e2-83d0-0017f200be7f;2b7b6af5-7a1f-11e2-83d0-0017f200be7f;2b7b6af6-7a1f-11e2-83d0-0017f200be7f;2b7b6af7-7a1f-11e2-83d0-0017f200be7f;2b7b6af8-7a1f-11e2-83d0-0017f200be7f;2b7b6af9-7a1f-11e2-83d0-0017f200be7f;2b7b6afa-7a1f-11e2-83d0-0017f200be7f;2b7b6afb-7a1f-11e2-83d0-0017f200be7f;2b7b6afc-7a1f-11e2-83d0-0017f200be7f;"
        },
        {
          "range" : [0, 3023872],
          "type" : 2,
          "editRate" : 44100,
          "trackRect" : [0, 0, 0, 0],
          "sampleRate" : 44100,
          "bitDepth" : 16,
          "numChannels" : 2,
          "integratedLUFS" : -33.9009858390236,
          "peakLevel" : 0.760162353515625,
          "metaData" : ""
        }
      ]
    },
    {
      "id" : 22,
      "src" : "./recordings/1569782609.316346/Rec 9-29-2019 50.trec",
      "rect" : [0, 0, 1366, 768],
      "lastMod" : "20190929T183321",
      "sourceTracks" : [
        {
          "range" : [0, 929],
          "type" : 0,
          "editRate" : 30,
          "trackRect" : [0, 0, 1366, 768],
          "sampleRate" : 30,
          "bitDepth" : 0,
          "numChannels" : 0,
          "integratedLUFS" : 100.0,
          "peakLevel" : -1.0,
          "metaData" : "2b7b6a01-7a1f-11e2-83d0-0017f200be7f;2b7b6af0-7a1f-11e2-83d0-0017f200be7f;2b7b6af1-7a1f-11e2-83d0-0017f200be7f;2b7b6af2-7a1f-11e2-83d0-0017f200be7f;2b7b6af3-7a1f-11e2-83d0-0017f200be7f;2b7b6af5-7a1f-11e2-83d0-0017f200be7f;2b7b6af6-7a1f-11e2-83d0-0017f200be7f;2b7b6af7-7a1f-11e2-83d0-0017f200be7f;2b7b6af8-7a1f-11e2-83d0-0017f200be7f;2b7b6af9-7a1f-11e2-83d0-0017f200be7f;2b7b6afa-7a1f-11e2-83d0-0017f200be7f;2b7b6afb-7a1f-11e2-83d0-0017f200be7f;2b7b6afc-7a1f-11e2-83d0-0017f200be7f;"
        },
        {
          "range" : [0, 1371136],
          "type" : 2,
          "editRate" : 44100,
          "trackRect" : [0, 0, 0, 0],
          "sampleRate" : 44100,
          "bitDepth" : 16,
          "numChannels" : 2,
          "integratedLUFS" : -23.1815950305513,
          "peakLevel" : 0.60107421875,
          "metaData" : ""
        }
      ]
    },
    {
      "id" : 23,
      "src" : "./media/1569787019.892447/Rec 9-29-2019 51.m4a",
      "rect" : [0, 0, 0, 0],
      "lastMod" : "20190929T185607",
      "sourceTracks" : [
        {
          "range" : [0, 2507],
          "type" : 2,
          "editRate" : 1000,
          "trackRect" : [0, 0, 0, 0],
          "sampleRate" : 44100,
          "bitDepth" : 0,
          "numChannels" : 2,
          "integratedLUFS" : -21.9270020684641,
          "peakLevel" : 0.622634947299957,
          "metaData" : ""
        }
      ]
    },
    {
      "id" : 24,
      "src" : "./recordings/1569787019.892726/Rec 9-29-2019 52.trec",
      "rect" : [0, 0, 1366, 768],
      "lastMod" : "20190929T195411",
      "sourceTracks" : [
        {
          "range" : [0, 1206],
          "type" : 0,
          "editRate" : 30,
          "trackRect" : [0, 0, 1366, 768],
          "sampleRate" : 30,
          "bitDepth" : 0,
          "numChannels" : 0,
          "integratedLUFS" : 100.0,
          "peakLevel" : -1.0,
          "metaData" : "2b7b6a01-7a1f-11e2-83d0-0017f200be7f;2b7b6af0-7a1f-11e2-83d0-0017f200be7f;2b7b6af1-7a1f-11e2-83d0-0017f200be7f;2b7b6af2-7a1f-11e2-83d0-0017f200be7f;2b7b6af3-7a1f-11e2-83d0-0017f200be7f;2b7b6af5-7a1f-11e2-83d0-0017f200be7f;2b7b6af6-7a1f-11e2-83d0-0017f200be7f;2b7b6af7-7a1f-11e2-83d0-0017f200be7f;2b7b6af8-7a1f-11e2-83d0-0017f200be7f;2b7b6af9-7a1f-11e2-83d0-0017f200be7f;2b7b6afa-7a1f-11e2-83d0-0017f200be7f;2b7b6afb-7a1f-11e2-83d0-0017f200be7f;2b7b6afc-7a1f-11e2-83d0-0017f200be7f;"
        },
        {
          "range" : [0, 1778688],
          "type" : 2,
          "editRate" : 44100,
          "trackRect" : [0, 0, 0, 0],
          "sampleRate" : 44100,
          "bitDepth" : 16,
          "numChannels" : 2,
          "integratedLUFS" : -25.2706850921294,
          "peakLevel" : 0.41021728515625,
          "metaData" : ""
        }
      ]
    },
    {
      "id" : 25,
      "src" : "./recordings/1569795956.409721/Rec 9-29-2019 53.trec",
      "rect" : [0, 0, 1366, 768],
      "lastMod" : "20190929T211839",
      "sourceTracks" : [
        {
          "range" : [0, 1717],
          "type" : 0,
          "editRate" : 30,
          "trackRect" : [0, 0, 1366, 768],
          "sampleRate" : 30,
          "bitDepth" : 0,
          "numChannels" : 0,
          "integratedLUFS" : 100.0,
          "peakLevel" : -1.0,
          "metaData" : "2b7b6a01-7a1f-11e2-83d0-0017f200be7f;2b7b6af0-7a1f-11e2-83d0-0017f200be7f;2b7b6af1-7a1f-11e2-83d0-0017f200be7f;2b7b6af2-7a1f-11e2-83d0-0017f200be7f;2b7b6af3-7a1f-11e2-83d0-0017f200be7f;2b7b6af5-7a1f-11e2-83d0-0017f200be7f;2b7b6af6-7a1f-11e2-83d0-0017f200be7f;2b7b6af7-7a1f-11e2-83d0-0017f200be7f;2b7b6af8-7a1f-11e2-83d0-0017f200be7f;2b7b6af9-7a1f-11e2-83d0-0017f200be7f;2b7b6afa-7a1f-11e2-83d0-0017f200be7f;2b7b6afb-7a1f-11e2-83d0-0017f200be7f;2b7b6afc-7a1f-11e2-83d0-0017f200be7f;"
        },
        {
          "range" : [0, 2530304],
          "type" : 2,
          "editRate" : 44100,
          "trackRect" : [0, 0, 0, 0],
          "sampleRate" : 44100,
          "bitDepth" : 16,
          "numChannels" : 2,
          "integratedLUFS" : -21.7726738407866,
          "peakLevel" : 0.695159912109375,
          "metaData" : ""
        }
      ]
    },
    {
      "id" : 26,
      "src" : "./recordings/1569795956.409971/Rec 9-29-2019 54.trec",
      "rect" : [0, 0, 1366, 768],
      "lastMod" : "20190929T220903",
      "sourceTracks" : [
        {
          "range" : [0, 1255],
          "type" : 0,
          "editRate" : 30,
          "trackRect" : [0, 0, 1366, 768],
          "sampleRate" : 30,
          "bitDepth" : 0,
          "numChannels" : 0,
          "integratedLUFS" : 100.0,
          "peakLevel" : -1.0,
          "metaData" : "2b7b6a01-7a1f-11e2-83d0-0017f200be7f;2b7b6af0-7a1f-11e2-83d0-0017f200be7f;2b7b6af1-7a1f-11e2-83d0-0017f200be7f;2b7b6af2-7a1f-11e2-83d0-0017f200be7f;2b7b6af3-7a1f-11e2-83d0-0017f200be7f;2b7b6af5-7a1f-11e2-83d0-0017f200be7f;2b7b6af6-7a1f-11e2-83d0-0017f200be7f;2b7b6af7-7a1f-11e2-83d0-0017f200be7f;2b7b6af8-7a1f-11e2-83d0-0017f200be7f;2b7b6af9-7a1f-11e2-83d0-0017f200be7f;2b7b6afa-7a1f-11e2-83d0-0017f200be7f;2b7b6afb-7a1f-11e2-83d0-0017f200be7f;2b7b6afc-7a1f-11e2-83d0-0017f200be7f;"
        },
        {
          "range" : [0, 1851392],
          "type" : 2,
          "editRate" : 44100,
          "trackRect" : [0, 0, 0, 0],
          "sampleRate" : 44100,
          "bitDepth" : 16,
          "numChannels" : 2,
          "integratedLUFS" : -23.9123381723222,
          "peakLevel" : 0.505706787109375,
          "metaData" : ""
        }
      ]
    },
    {
      "id" : 27,
      "src" : "./recordings/1569795956.410176/Rec 9-29-2019 55.trec",
      "rect" : [0, 0, 1366, 768],
      "lastMod" : "20190929T222002",
      "sourceTracks" : [
        {
          "range" : [0, 1398],
          "type" : 0,
          "editRate" : 30,
          "trackRect" : [0, 0, 1366, 768],
          "sampleRate" : 30,
          "bitDepth" : 0,
          "numChannels" : 0,
          "integratedLUFS" : 100.0,
          "peakLevel" : -1.0,
          "metaData" : "2b7b6a01-7a1f-11e2-83d0-0017f200be7f;2b7b6af0-7a1f-11e2-83d0-0017f200be7f;2b7b6af1-7a1f-11e2-83d0-0017f200be7f;2b7b6af2-7a1f-11e2-83d0-0017f200be7f;2b7b6af3-7a1f-11e2-83d0-0017f200be7f;2b7b6af5-7a1f-11e2-83d0-0017f200be7f;2b7b6af6-7a1f-11e2-83d0-0017f200be7f;2b7b6af7-7a1f-11e2-83d0-0017f200be7f;2b7b6af8-7a1f-11e2-83d0-0017f200be7f;2b7b6af9-7a1f-11e2-83d0-0017f200be7f;2b7b6afa-7a1f-11e2-83d0-0017f200be7f;2b7b6afb-7a1f-11e2-83d0-0017f200be7f;2b7b6afc-7a1f-11e2-83d0-0017f200be7f;"
        },
        {
          "range" : [0, 2060288],
          "type" : 2,
          "editRate" : 44100,
          "trackRect" : [0, 0, 0, 0],
          "sampleRate" : 44100,
          "bitDepth" : 16,
          "numChannels" : 2,
          "integratedLUFS" : -23.1237306287062,
          "peakLevel" : 0.70123291015625,
          "metaData" : ""
        }
      ]
    },
    {
      "id" : 28,
      "src" : "./recordings/1569796511.339625/Rec 9-29-2019 56.trec",
      "rect" : [0, 0, 1366, 768],
      "lastMod" : "20190929T223237",
      "sourceTracks" : [
        {
          "range" : [0, 1228],
          "type" : 0,
          "editRate" : 30,
          "trackRect" : [0, 0, 1366, 768],
          "sampleRate" : 30,
          "bitDepth" : 0,
          "numChannels" : 0,
          "integratedLUFS" : 100.0,
          "peakLevel" : -1.0,
          "metaData" : "2b7b6a01-7a1f-11e2-83d0-0017f200be7f;2b7b6af0-7a1f-11e2-83d0-0017f200be7f;2b7b6af1-7a1f-11e2-83d0-0017f200be7f;2b7b6af2-7a1f-11e2-83d0-0017f200be7f;2b7b6af3-7a1f-11e2-83d0-0017f200be7f;2b7b6af5-7a1f-11e2-83d0-0017f200be7f;2b7b6af6-7a1f-11e2-83d0-0017f200be7f;2b7b6af7-7a1f-11e2-83d0-0017f200be7f;2b7b6af8-7a1f-11e2-83d0-0017f200be7f;2b7b6af9-7a1f-11e2-83d0-0017f200be7f;2b7b6afa-7a1f-11e2-83d0-0017f200be7f;2b7b6afb-7a1f-11e2-83d0-0017f200be7f;2b7b6afc-7a1f-11e2-83d0-0017f200be7f;"
        },
        {
          "range" : [0, 1811456],
          "type" : 2,
          "editRate" : 44100,
          "trackRect" : [0, 0, 0, 0],
          "sampleRate" : 44100,
          "bitDepth" : 16,
          "numChannels" : 2,
          "integratedLUFS" : -25.1017509322984,
          "peakLevel" : 0.490966796875,
          "metaData" : ""
        }
      ]
    },
    {
      "id" : 29,
      "src" : "./recordings/1569814889.162403/Rec 9-29-2019 57.trec",
      "rect" : [0, 0, 1366, 768],
      "lastMod" : "20190930T015652",
      "sourceTracks" : [
        {
          "range" : [0, 1199],
          "type" : 0,
          "editRate" : 30,
          "trackRect" : [0, 0, 1366, 768],
          "sampleRate" : 30,
          "bitDepth" : 0,
          "numChannels" : 0,
          "integratedLUFS" : 100.0,
          "peakLevel" : -1.0,
          "metaData" : "2b7b6a01-7a1f-11e2-83d0-0017f200be7f;2b7b6af0-7a1f-11e2-83d0-0017f200be7f;2b7b6af1-7a1f-11e2-83d0-0017f200be7f;2b7b6af2-7a1f-11e2-83d0-0017f200be7f;2b7b6af3-7a1f-11e2-83d0-0017f200be7f;2b7b6af5-7a1f-11e2-83d0-0017f200be7f;2b7b6af6-7a1f-11e2-83d0-0017f200be7f;2b7b6af7-7a1f-11e2-83d0-0017f200be7f;2b7b6af8-7a1f-11e2-83d0-0017f200be7f;2b7b6af9-7a1f-11e2-83d0-0017f200be7f;2b7b6afa-7a1f-11e2-83d0-0017f200be7f;2b7b6afb-7a1f-11e2-83d0-0017f200be7f;2b7b6afc-7a1f-11e2-83d0-0017f200be7f;"
        },
        {
          "range" : [0, 1768448],
          "type" : 2,
          "editRate" : 44100,
          "trackRect" : [0, 0, 0, 0],
          "sampleRate" : 44100,
          "bitDepth" : 16,
          "numChannels" : 2,
          "integratedLUFS" : -26.9881628594502,
          "peakLevel" : 0.4346923828125,
          "metaData" : ""
        }
      ]
    },
    {
      "id" : 30,
      "src" : "./recordings/1569814889.162749/Rec 9-29-2019 58.trec",
      "rect" : [0, 0, 1366, 768],
      "lastMod" : "20190930T021058",
      "sourceTracks" : [
        {
          "range" : [0, 1321],
          "type" : 0,
          "editRate" : 30,
          "trackRect" : [0, 0, 1366, 768],
          "sampleRate" : 30,
          "bitDepth" : 0,
          "numChannels" : 0,
          "integratedLUFS" : 100.0,
          "peakLevel" : -1.0,
          "metaData" : "2b7b6a01-7a1f-11e2-83d0-0017f200be7f;2b7b6af0-7a1f-11e2-83d0-0017f200be7f;2b7b6af1-7a1f-11e2-83d0-0017f200be7f;2b7b6af2-7a1f-11e2-83d0-0017f200be7f;2b7b6af3-7a1f-11e2-83d0-0017f200be7f;2b7b6af5-7a1f-11e2-83d0-0017f200be7f;2b7b6af6-7a1f-11e2-83d0-0017f200be7f;2b7b6af7-7a1f-11e2-83d0-0017f200be7f;2b7b6af8-7a1f-11e2-83d0-0017f200be7f;2b7b6af9-7a1f-11e2-83d0-0017f200be7f;2b7b6afa-7a1f-11e2-83d0-0017f200be7f;2b7b6afb-7a1f-11e2-83d0-0017f200be7f;2b7b6afc-7a1f-11e2-83d0-0017f200be7f;"
        },
        {
          "range" : [0, 1948672],
          "type" : 2,
          "editRate" : 44100,
          "trackRect" : [0, 0, 0, 0],
          "sampleRate" : 44100,
          "bitDepth" : 16,
          "numChannels" : 2,
          "integratedLUFS" : -27.7506337320397,
          "peakLevel" : 0.7030029296875,
          "metaData" : ""
        }
      ]
    },
    {
      "id" : 31,
      "src" : "./recordings/1569814889.162990/Rec 9-29-2019 60.trec",
      "rect" : [0, 0, 1366, 768],
      "lastMod" : "20190930T025553",
      "sourceTracks" : [
        {
          "range" : [0, 3857],
          "type" : 0,
          "editRate" : 30,
          "trackRect" : [0, 0, 1366, 768],
          "sampleRate" : 30,
          "bitDepth" : 0,
          "numChannels" : 0,
          "integratedLUFS" : 100.0,
          "peakLevel" : -1.0,
          "metaData" : "2b7b6a01-7a1f-11e2-83d0-0017f200be7f;2b7b6af0-7a1f-11e2-83d0-0017f200be7f;2b7b6af1-7a1f-11e2-83d0-0017f200be7f;2b7b6af2-7a1f-11e2-83d0-0017f200be7f;2b7b6af3-7a1f-11e2-83d0-0017f200be7f;2b7b6af5-7a1f-11e2-83d0-0017f200be7f;2b7b6af6-7a1f-11e2-83d0-0017f200be7f;2b7b6af7-7a1f-11e2-83d0-0017f200be7f;2b7b6af8-7a1f-11e2-83d0-0017f200be7f;2b7b6af9-7a1f-11e2-83d0-0017f200be7f;2b7b6afa-7a1f-11e2-83d0-0017f200be7f;2b7b6afb-7a1f-11e2-83d0-0017f200be7f;2b7b6afc-7a1f-11e2-83d0-0017f200be7f;"
        },
        {
          "range" : [0, 5682176],
          "type" : 2,
          "editRate" : 44100,
          "trackRect" : [0, 0, 0, 0],
          "sampleRate" : 44100,
          "bitDepth" : 16,
          "numChannels" : 2,
          "integratedLUFS" : -23.9372991294366,
          "peakLevel" : 0.782684326171875,
          "metaData" : ""
        }
      ]
    },
    {
      "id" : 32,
      "src" : "./recordings/1569814889.163214/Rec 9-29-2019 61.trec",
      "rect" : [0, 0, 1366, 768],
      "lastMod" : "20190930T032213",
      "sourceTracks" : [
        {
          "range" : [0, 1518],
          "type" : 0,
          "editRate" : 30,
          "trackRect" : [0, 0, 1366, 768],
          "sampleRate" : 29,
          "bitDepth" : 0,
          "numChannels" : 0,
          "integratedLUFS" : 100.0,
          "peakLevel" : -1.0,
          "metaData" : "2b7b6a01-7a1f-11e2-83d0-0017f200be7f;2b7b6af0-7a1f-11e2-83d0-0017f200be7f;2b7b6af1-7a1f-11e2-83d0-0017f200be7f;2b7b6af2-7a1f-11e2-83d0-0017f200be7f;2b7b6af3-7a1f-11e2-83d0-0017f200be7f;2b7b6af5-7a1f-11e2-83d0-0017f200be7f;2b7b6af6-7a1f-11e2-83d0-0017f200be7f;2b7b6af7-7a1f-11e2-83d0-0017f200be7f;2b7b6af8-7a1f-11e2-83d0-0017f200be7f;2b7b6af9-7a1f-11e2-83d0-0017f200be7f;2b7b6afa-7a1f-11e2-83d0-0017f200be7f;2b7b6afb-7a1f-11e2-83d0-0017f200be7f;2b7b6afc-7a1f-11e2-83d0-0017f200be7f;"
        },
        {
          "range" : [0, 2238464],
          "type" : 2,
          "editRate" : 44100,
          "trackRect" : [0, 0, 0, 0],
          "sampleRate" : 44100,
          "bitDepth" : 16,
          "numChannels" : 2,
          "integratedLUFS" : -29.2982262582568,
          "peakLevel" : 0.31292724609375,
          "metaData" : ""
        }
      ]
    },
    {
      "id" : 33,
      "src" : "./recordings/1569815512.077837/Rec 9-29-2019 63.trec",
      "rect" : [0, 0, 1366, 768],
      "lastMod" : "20190930T034432",
      "sourceTracks" : [
        {
          "range" : [0, 1479],
          "type" : 0,
          "editRate" : 30,
          "trackRect" : [0, 0, 1366, 768],
          "sampleRate" : 29,
          "bitDepth" : 0,
          "numChannels" : 0,
          "integratedLUFS" : 100.0,
          "peakLevel" : -1.0,
          "metaData" : "2b7b6a01-7a1f-11e2-83d0-0017f200be7f;2b7b6af0-7a1f-11e2-83d0-0017f200be7f;2b7b6af1-7a1f-11e2-83d0-0017f200be7f;2b7b6af2-7a1f-11e2-83d0-0017f200be7f;2b7b6af3-7a1f-11e2-83d0-0017f200be7f;2b7b6af5-7a1f-11e2-83d0-0017f200be7f;2b7b6af6-7a1f-11e2-83d0-0017f200be7f;2b7b6af7-7a1f-11e2-83d0-0017f200be7f;2b7b6af8-7a1f-11e2-83d0-0017f200be7f;2b7b6af9-7a1f-11e2-83d0-0017f200be7f;2b7b6afa-7a1f-11e2-83d0-0017f200be7f;2b7b6afb-7a1f-11e2-83d0-0017f200be7f;2b7b6afc-7a1f-11e2-83d0-0017f200be7f;"
        },
        {
          "range" : [0, 2182144],
          "type" : 2,
          "editRate" : 44100,
          "trackRect" : [0, 0, 0, 0],
          "sampleRate" : 44100,
          "bitDepth" : 16,
          "numChannels" : 2,
          "integratedLUFS" : -25.398261602117,
          "peakLevel" : 0.416595458984375,
          "metaData" : ""
        }
      ]
    },
    {
      "id" : 34,
      "src" : "./media/1569815512.078085/Rec 9-29-2019 64.m4a",
      "rect" : [0, 0, 0, 0],
      "lastMod" : "20190930T035105",
      "sourceTracks" : [
        {
          "range" : [0, 6687],
          "type" : 2,
          "editRate" : 1000,
          "trackRect" : [0, 0, 0, 0],
          "sampleRate" : 44100,
          "bitDepth" : 0,
          "numChannels" : 2,
          "integratedLUFS" : -27.3696995316621,
          "peakLevel" : 0.336921185255051,
          "metaData" : ""
        }
      ]
    }
  ],
  "timeline" : {
    "id" : 35,
    "sceneTrack" : {
      "scenes" : [
        {
          "duration" : 804.233333333333,
          "title" : "",
          "type" : "",
          "csml" : {
            "tracks" : [
              {
                "trackIndex" : 0,
                "medias" : [
                  {
                    "id" : 36,
                    "_type" : "StitchedMedia",
                    "minMediaStart" : 0,
                    "attributes" : {
                      "ident" : "Rec 9-29-2019 10",
                      "gain" : 1.0,
                      "mixToMono" : false
                    },
                    "parameters" : {
                      "scale0" : 0.937042459736457,
                      "scale1" : 0.937042459736457,
                      "volume" : {
                        "type" : "double",
                        "keyframes" : [
                          {
                            "endTime" : 0,
                            "time" : 0,
                            "value" : 1.0,
                            "duration" : 0
                          },
                          {
                            "endTime" : 337,
                            "time" : 337,
                            "value" : 1.0,
                            "duration" : 0
                          },
                          {
                            "endTime" : 338,
                            "time" : 338,
                            "value" : 0.0,
                            "duration" : 0
                          },
                          {
                            "endTime" : 356,
                            "time" : 356,
                            "value" : 0.0,
                            "duration" : 0
                          },
                          {
                            "endTime" : 357,
                            "time" : 357,
                            "value" : 1.0,
                            "duration" : 0
                          },
                          {
                            "endTime" : 1856,
                            "time" : 1856,
                            "value" : 1.0,
                            "duration" : 0
                          },
                          {
                            "endTime" : 1857,
                            "time" : 1857,
                            "value" : 0.0,
                            "duration" : 0
                          },
                          {
                            "endTime" : 2078,
                            "time" : 2078,
                            "value" : 0.0,
                            "duration" : 0
                          },
                          {
                            "endTime" : 2079,
                            "time" : 2079,
                            "value" : 0.0,
                            "duration" : 0
                          },
                          {
                            "endTime" : 2394,
                            "time" : 2394,
                            "value" : 0.0,
                            "duration" : 0
                          },
                          {
                            "endTime" : 2395,
                            "time" : 2395,
                            "value" : 1.0,
                            "duration" : 0
                          }
                        ]
                      },
                      "cursorOpacity" : 1.0,
                      "cursorScale" : 1.0
                    },
                    "medias" : [
                        {
                          "id" : 37,
                          "_type" : "UnifiedMedia",
                          "video" : 
                              {
                                "id" : 38,
                                "_type" : "ScreenVMFile",
                                "src" : 1,
                                "trackNumber" : 0,
                                "attributes" : {
                                  "ident" : "Rec 9-29-2019 10"
                                },
                                "parameters" : {
                                  "cursorScale" : {
                                    "type" : "double",
                                    "defaultValue" : 0.0,
                                    "interp" : "linr"
                                  },
                                  "cursorOpacity" : {
                                    "type" : "double",
                                    "defaultValue" : 0.0,
                                    "interp" : "linr"
                                  }
                                },
                                "effects" : [

                                ],
                                "start" : 0,
                                "duration" : 611,
                                "mediaStart" : 0,
                                "mediaDuration" : 611,
                                "scalar" : 1,
                                "animationTracks" : {

                                }
                              },
                          "audio" : 
                              {
                                "id" : 39,
                                "_type" : "AMFile",
                                "src" : 1,
                                "trackNumber" : 1,
                                "attributes" : {
                                  "ident" : "",
                                  "sampleRate" : 44100,
                                  "bitDepth" : 16,
                                  "gain" : 1.0,
                                  "mixToMono" : false
                                },
                                  "channelNumber" : "0,1",
                                "effects" : [

                                ],
                                "start" : 0,
                                "duration" : 611,
                                "mediaStart" : 0,
                                "mediaDuration" : 611,
                                "scalar" : 1,
                                "animationTracks" : {

                                }
                              }
,
                          "start" : 0,
                          "duration" : 611,
                          "mediaStart" : 0,
                          "mediaDuration" : 3839,
                          "scalar" : 1,
                          "metadata" : {
                            "clipSpeedAttribute" : false,
                            "default-scale" : "0.937042",
                            "effectApplied" : "none"
                          }
                        },
                        {
                          "id" : 40,
                          "_type" : "UnifiedMedia",
                          "video" : 
                              {
                                "id" : 41,
                                "_type" : "ScreenVMFile",
                                "src" : 1,
                                "trackNumber" : 0,
                                "attributes" : {
                                  "ident" : "Rec 9-29-2019 10"
                                },
                                "parameters" : {
                                  "cursorScale" : {
                                    "type" : "double",
                                    "defaultValue" : 0.0,
                                    "interp" : "linr"
                                  },
                                  "cursorOpacity" : {
                                    "type" : "double",
                                    "defaultValue" : 0.0,
                                    "interp" : "linr"
                                  }
                                },
                                "effects" : [

                                ],
                                "start" : 611,
                                "duration" : 142,
                                "mediaStart" : 633,
                                "mediaDuration" : 142,
                                "scalar" : 1,
                                "animationTracks" : {

                                }
                              },
                          "audio" : 
                              {
                                "id" : 42,
                                "_type" : "AMFile",
                                "src" : 1,
                                "trackNumber" : 1,
                                "attributes" : {
                                  "ident" : "",
                                  "sampleRate" : 44100,
                                  "bitDepth" : 16,
                                  "gain" : 1.0,
                                  "mixToMono" : false
                                },
                                  "channelNumber" : "0,1",
                                "effects" : [

                                ],
                                "start" : 611,
                                "duration" : 142,
                                "mediaStart" : 633,
                                "mediaDuration" : 142,
                                "scalar" : 1,
                                "animationTracks" : {

                                }
                              }
,
                          "start" : 611,
                          "duration" : 142,
                          "mediaStart" : 0,
                          "mediaDuration" : 3839,
                          "scalar" : 1,
                          "metadata" : {
                            "clipSpeedAttribute" : false,
                            "default-scale" : "0.937042",
                            "effectApplied" : "none"
                          }
                        },
                        {
                          "id" : 43,
                          "_type" : "UnifiedMedia",
                          "video" : 
                              {
                                "id" : 44,
                                "_type" : "ScreenVMFile",
                                "src" : 1,
                                "trackNumber" : 0,
                                "attributes" : {
                                  "ident" : "Rec 9-29-2019 10"
                                },
                                "parameters" : {
                                  "cursorScale" : {
                                    "type" : "double",
                                    "defaultValue" : 0.0,
                                    "interp" : "linr"
                                  },
                                  "cursorOpacity" : {
                                    "type" : "double",
                                    "defaultValue" : 0.0,
                                    "interp" : "linr"
                                  }
                                },
                                "effects" : [

                                ],
                                "start" : 753,
                                "duration" : 630,
                                "mediaStart" : 961,
                                "mediaDuration" : 630,
                                "scalar" : 1,
                                "animationTracks" : {

                                }
                              },
                          "audio" : 
                              {
                                "id" : 45,
                                "_type" : "AMFile",
                                "src" : 1,
                                "trackNumber" : 1,
                                "attributes" : {
                                  "ident" : "",
                                  "sampleRate" : 44100,
                                  "bitDepth" : 16,
                                  "gain" : 1.0,
                                  "mixToMono" : false
                                },
                                  "channelNumber" : "0,1",
                                "effects" : [

                                ],
                                "start" : 753,
                                "duration" : 630,
                                "mediaStart" : 961,
                                "mediaDuration" : 630,
                                "scalar" : 1,
                                "animationTracks" : {

                                }
                              }
,
                          "start" : 753,
                          "duration" : 630,
                          "mediaStart" : 0,
                          "mediaDuration" : 3839,
                          "scalar" : 1,
                          "metadata" : {
                            "clipSpeedAttribute" : false,
                            "default-scale" : "0.937042",
                            "effectApplied" : "none"
                          }
                        },
                        {
                          "id" : 46,
                          "_type" : "UnifiedMedia",
                          "video" : 
                              {
                                "id" : 47,
                                "_type" : "ScreenVMFile",
                                "src" : 1,
                                "trackNumber" : 0,
                                "attributes" : {
                                  "ident" : "Rec 9-29-2019 10"
                                },
                                "parameters" : {
                                  "cursorScale" : {
                                    "type" : "double",
                                    "defaultValue" : 0.0,
                                    "interp" : "linr"
                                  },
                                  "cursorOpacity" : {
                                    "type" : "double",
                                    "defaultValue" : 0.0,
                                    "interp" : "linr"
                                  }
                                },
                                "effects" : [

                                ],
                                "start" : 1383,
                                "duration" : 707,
                                "mediaStart" : 1801,
                                "mediaDuration" : 707,
                                "scalar" : 1,
                                "animationTracks" : {

                                }
                              },
                          "audio" : 
                              {
                                "id" : 48,
                                "_type" : "AMFile",
                                "src" : 1,
                                "trackNumber" : 1,
                                "attributes" : {
                                  "ident" : "",
                                  "sampleRate" : 44100,
                                  "bitDepth" : 16,
                                  "gain" : 1.0,
                                  "mixToMono" : false
                                },
                                  "channelNumber" : "0,1",
                                "effects" : [

                                ],
                                "start" : 1383,
                                "duration" : 707,
                                "mediaStart" : 1801,
                                "mediaDuration" : 707,
                                "scalar" : 1,
                                "animationTracks" : {

                                }
                              }
,
                          "start" : 1383,
                          "duration" : 707,
                          "mediaStart" : 0,
                          "mediaDuration" : 3839,
                          "scalar" : 1,
                          "metadata" : {
                            "clipSpeedAttribute" : false,
                            "default-scale" : "0.937042",
                            "effectApplied" : "none"
                          }
                        },
                        {
                          "id" : 49,
                          "_type" : "UnifiedMedia",
                          "video" : 
                              {
                                "id" : 50,
                                "_type" : "ScreenVMFile",
                                "src" : 1,
                                "trackNumber" : 0,
                                "attributes" : {
                                  "ident" : "Rec 9-29-2019 10"
                                },
                                "parameters" : {
                                  "cursorScale" : {
                                    "type" : "double",
                                    "defaultValue" : 0.0,
                                    "interp" : "linr"
                                  },
                                  "cursorOpacity" : {
                                    "type" : "double",
                                    "defaultValue" : 0.0,
                                    "interp" : "linr"
                                  }
                                },
                                "effects" : [

                                ],
                                "start" : 2090,
                                "duration" : 676,
                                "mediaStart" : 3163,
                                "mediaDuration" : 676,
                                "scalar" : 1,
                                "animationTracks" : {

                                }
                              },
                          "audio" : 
                              {
                                "id" : 51,
                                "_type" : "AMFile",
                                "src" : 1,
                                "trackNumber" : 1,
                                "attributes" : {
                                  "ident" : "",
                                  "sampleRate" : 44100,
                                  "bitDepth" : 16,
                                  "gain" : 1.0,
                                  "mixToMono" : false
                                },
                                  "channelNumber" : "0,1",
                                "effects" : [

                                ],
                                "start" : 2090,
                                "duration" : 676,
                                "mediaStart" : 3163,
                                "mediaDuration" : 676,
                                "scalar" : 1,
                                "animationTracks" : {

                                }
                              }
,
                          "start" : 2090,
                          "duration" : 676,
                          "mediaStart" : 0,
                          "mediaDuration" : 3839,
                          "scalar" : 1,
                          "metadata" : {
                            "clipSpeedAttribute" : false,
                            "default-scale" : "0.937042",
                            "effectApplied" : "none"
                          }
                        }
                    ],
                    "effects" : [

                    ],
                    "start" : 0,
                    "duration" : 2390,
                    "mediaStart" : 0,
                    "mediaDuration" : 2390,
                    "scalar" : 1,
                    "metadata" : {
                      "clipSpeedAttribute" : false,
                      "default-scale" : "0.937042",
                      "effectApplied" : "none"
                    },
                    "animationTracks" : {

                    }
                  },
                  {
                    "id" : 52,
                    "_type" : "StitchedMedia",
                    "minMediaStart" : 0,
                    "attributes" : {
                      "ident" : "Rec 9-29-2019 16",
                      "gain" : 1.0,
                      "mixToMono" : false
                    },
                    "parameters" : {
                      "scale0" : 0.937042459736457,
                      "scale1" : 0.937042459736457,
                      "volume" : {
                        "type" : "double",
                        "keyframes" : [
                          {
                            "endTime" : 0,
                            "time" : 0,
                            "value" : 1.0,
                            "duration" : 0
                          },
                          {
                            "endTime" : 661,
                            "time" : 661,
                            "value" : 1.0,
                            "duration" : 0
                          },
                          {
                            "endTime" : 662,
                            "time" : 662,
                            "value" : 0.0,
                            "duration" : 0
                          },
                          {
                            "endTime" : 770,
                            "time" : 770,
                            "value" : 0.0,
                            "duration" : 0
                          },
                          {
                            "endTime" : 771,
                            "time" : 771,
                            "value" : 0.0,
                            "duration" : 0
                          },
                          {
                            "endTime" : 1214,
                            "time" : 1214,
                            "value" : 0.0,
                            "duration" : 0
                          },
                          {
                            "endTime" : 1215,
                            "time" : 1215,
                            "value" : 1.0,
                            "duration" : 0
                          }
                        ]
                      },
                      "cursorOpacity" : 1.0,
                      "cursorScale" : 1.0
                    },
                    "medias" : [
                        {
                          "id" : 53,
                          "_type" : "UnifiedMedia",
                          "video" : 
                              {
                                "id" : 54,
                                "_type" : "ScreenVMFile",
                                "src" : 7,
                                "trackNumber" : 0,
                                "attributes" : {
                                  "ident" : "Rec 9-29-2019 16"
                                },
                                "parameters" : {
                                  "cursorScale" : {
                                    "type" : "double",
                                    "defaultValue" : 0.0,
                                    "interp" : "linr"
                                  },
                                  "cursorOpacity" : {
                                    "type" : "double",
                                    "defaultValue" : 0.0,
                                    "interp" : "linr"
                                  }
                                },
                                "effects" : [

                                ],
                                "start" : 0,
                                "duration" : 327,
                                "mediaStart" : 0,
                                "mediaDuration" : 327,
                                "scalar" : 1,
                                "animationTracks" : {

                                }
                              },
                          "audio" : 
                              {
                                "id" : 55,
                                "_type" : "AMFile",
                                "src" : 7,
                                "trackNumber" : 1,
                                "attributes" : {
                                  "ident" : "",
                                  "sampleRate" : 44100,
                                  "bitDepth" : 16,
                                  "gain" : 1.0,
                                  "mixToMono" : false
                                },
                                  "channelNumber" : "0,1",
                                "effects" : [

                                ],
                                "start" : 0,
                                "duration" : 327,
                                "mediaStart" : 0,
                                "mediaDuration" : 327,
                                "scalar" : 1,
                                "animationTracks" : {

                                }
                              }
,
                          "start" : 0,
                          "duration" : 327,
                          "mediaStart" : 0,
                          "mediaDuration" : 1633,
                          "scalar" : 1,
                          "metadata" : {
                            "clipSpeedAttribute" : false,
                            "default-scale" : "0.937042",
                            "effectApplied" : "none"
                          }
                        },
                        {
                          "id" : 56,
                          "_type" : "UnifiedMedia",
                          "video" : 
                              {
                                "id" : 57,
                                "_type" : "ScreenVMFile",
                                "src" : 7,
                                "trackNumber" : 0,
                                "attributes" : {
                                  "ident" : "Rec 9-29-2019 16"
                                },
                                "parameters" : {
                                  "cursorScale" : {
                                    "type" : "double",
                                    "defaultValue" : 0.0,
                                    "interp" : "linr"
                                  },
                                  "cursorOpacity" : {
                                    "type" : "double",
                                    "defaultValue" : 0.0,
                                    "interp" : "linr"
                                  }
                                },
                                "effects" : [

                                ],
                                "start" : 327,
                                "duration" : 154,
                                "mediaStart" : 499,
                                "mediaDuration" : 154,
                                "scalar" : 1,
                                "animationTracks" : {

                                }
                              },
                          "audio" : 
                              {
                                "id" : 58,
                                "_type" : "AMFile",
                                "src" : 7,
                                "trackNumber" : 1,
                                "attributes" : {
                                  "ident" : "",
                                  "sampleRate" : 44100,
                                  "bitDepth" : 16,
                                  "gain" : 1.0,
                                  "mixToMono" : false
                                },
                                  "channelNumber" : "0,1",
                                "effects" : [

                                ],
                                "start" : 327,
                                "duration" : 154,
                                "mediaStart" : 499,
                                "mediaDuration" : 154,
                                "scalar" : 1,
                                "animationTracks" : {

                                }
                              }
,
                          "start" : 327,
                          "duration" : 154,
                          "mediaStart" : 0,
                          "mediaDuration" : 1633,
                          "scalar" : 1,
                          "metadata" : {
                            "clipSpeedAttribute" : false,
                            "default-scale" : "0.937042",
                            "effectApplied" : "none"
                          }
                        },
                        {
                          "id" : 59,
                          "_type" : "UnifiedMedia",
                          "video" : 
                              {
                                "id" : 60,
                                "_type" : "ScreenVMFile",
                                "src" : 7,
                                "trackNumber" : 0,
                                "attributes" : {
                                  "ident" : "Rec 9-29-2019 16"
                                },
                                "parameters" : {
                                  "cursorScale" : {
                                    "type" : "double",
                                    "defaultValue" : 0.0,
                                    "interp" : "linr"
                                  },
                                  "cursorOpacity" : {
                                    "type" : "double",
                                    "defaultValue" : 0.0,
                                    "interp" : "linr"
                                  }
                                },
                                "effects" : [

                                ],
                                "start" : 481,
                                "duration" : 912,
                                "mediaStart" : 721,
                                "mediaDuration" : 912,
                                "scalar" : 1,
                                "animationTracks" : {

                                }
                              },
                          "audio" : 
                              {
                                "id" : 61,
                                "_type" : "AMFile",
                                "src" : 7,
                                "trackNumber" : 1,
                                "attributes" : {
                                  "ident" : "",
                                  "sampleRate" : 44100,
                                  "bitDepth" : 16,
                                  "gain" : 1.0,
                                  "mixToMono" : false
                                },
                                  "channelNumber" : "0,1",
                                "effects" : [

                                ],
                                "start" : 481,
                                "duration" : 912,
                                "mediaStart" : 721,
                                "mediaDuration" : 912,
                                "scalar" : 1,
                                "animationTracks" : {

                                }
                              }
,
                          "start" : 481,
                          "duration" : 912,
                          "mediaStart" : 0,
                          "mediaDuration" : 1633,
                          "scalar" : 1,
                          "metadata" : {
                            "clipSpeedAttribute" : false,
                            "default-scale" : "0.937042",
                            "effectApplied" : "none"
                          }
                        }
                    ],
                    "effects" : [

                    ],
                    "start" : 2390,
                    "duration" : 1214,
                    "mediaStart" : 0,
                    "mediaDuration" : 1214,
                    "scalar" : 1,
                    "metadata" : {
                      "clipSpeedAttribute" : false,
                      "default-scale" : "0.937042",
                      "effectApplied" : "none"
                    },
                    "animationTracks" : {

                    }
                  },
                  {
                    "id" : 62,
                    "_type" : "UnifiedMedia",
                    "video" : 
                        {
                          "id" : 63,
                          "_type" : "ScreenVMFile",
                          "src" : 14,
                          "trackNumber" : 0,
                          "attributes" : {
                            "ident" : "Rec 9-29-2019 24"
                          },
                          "parameters" : {
                            "scale0" : {
                              "type" : "double",
                              "defaultValue" : 0.937042459736457,
                              "interp" : "eioe"
                            },
                            "scale1" : {
                              "type" : "double",
                              "defaultValue" : 0.937042459736457,
                              "interp" : "eioe"
                            },
                            "cursorScale" : {
                              "type" : "double",
                              "defaultValue" : 1.0,
                              "interp" : "linr"
                            },
                            "cursorOpacity" : {
                              "type" : "double",
                              "defaultValue" : 1.0,
                              "interp" : "linr"
                            }
                          },
                          "effects" : [

                          ],
                          "start" : 3604,
                          "duration" : 552,
                          "mediaStart" : 0,
                          "mediaDuration" : 552,
                          "scalar" : 1,
                          "animationTracks" : {

                          }
                        },
                    "audio" : 
                        {
                          "id" : 64,
                          "_type" : "AMFile",
                          "src" : 14,
                          "trackNumber" : 1,
                          "attributes" : {
                            "ident" : "",
                            "sampleRate" : 44100,
                            "bitDepth" : 16,
                            "gain" : 1.0,
                            "mixToMono" : false
                          },
                            "channelNumber" : "0,1",
                          "parameters" : {
                            "volume" : 0.0
                          },
                          "effects" : [

                          ],
                          "start" : 3604,
                          "duration" : 552,
                          "mediaStart" : 0,
                          "mediaDuration" : 552,
                          "scalar" : 1,
                          "animationTracks" : {

                          }
                        }
,
                    "start" : 3604,
                    "duration" : 552,
                    "mediaStart" : 0,
                    "mediaDuration" : 590,
                    "scalar" : 1,
                    "metadata" : {
                      "clipSpeedAttribute" : false,
                      "default-scale" : "0.937042",
                      "effectApplied" : "none"
                    }
                  },
                  {
                    "id" : 65,
                    "_type" : "UnifiedMedia",
                    "video" : 
                        {
                          "id" : 66,
                          "_type" : "ScreenVMFile",
                          "src" : 15,
                          "trackNumber" : 0,
                          "attributes" : {
                            "ident" : "Rec 9-29-2019 25"
                          },
                          "parameters" : {
                            "translation0" : {
                              "type" : "double",
                              "defaultValue" : 0.448732755984096,
                              "interp" : "eioe"
                            },
                            "translation1" : {
                              "type" : "double",
                              "defaultValue" : -0.218363011841006,
                              "interp" : "eioe"
                            },
                            "scale0" : {
                              "type" : "double",
                              "defaultValue" : 0.937042459736457,
                              "interp" : "eioe"
                            },
                            "scale1" : {
                              "type" : "double",
                              "defaultValue" : 0.937042459736457,
                              "interp" : "eioe"
                            },
                            "cursorScale" : {
                              "type" : "double",
                              "defaultValue" : 1.0,
                              "interp" : "linr"
                            },
                            "cursorOpacity" : {
                              "type" : "double",
                              "defaultValue" : 1.0,
                              "interp" : "linr"
                            }
                          },
                          "effects" : [

                          ],
                          "start" : 4156,
                          "duration" : 140,
                          "mediaStart" : 0,
                          "mediaDuration" : 140,
                          "scalar" : 1,
                          "animationTracks" : {

                          }
                        },
                    "audio" : 
                        {
                          "id" : 67,
                          "_type" : "AMFile",
                          "src" : 15,
                          "trackNumber" : 1,
                          "attributes" : {
                            "ident" : "",
                            "sampleRate" : 44100,
                            "bitDepth" : 16,
                            "gain" : 1.0,
                            "mixToMono" : false
                          },
                            "channelNumber" : "0,1",
                          "parameters" : {
                            "volume" : {
                              "type" : "double",
                              "keyframes" : [
                                {
                                  "endTime" : 0,
                                  "time" : 0,
                                  "value" : 1.0,
                                  "duration" : 0
                                },
                                {
                                  "endTime" : 133,
                                  "time" : 133,
                                  "value" : 1.0,
                                  "duration" : 0
                                },
                                {
                                  "endTime" : 134,
                                  "time" : 134,
                                  "value" : 0.0,
                                  "duration" : 0
                                },
                                {
                                  "endTime" : 581,
                                  "time" : 581,
                                  "value" : 0.0,
                                  "duration" : 0
                                },
                                {
                                  "endTime" : 582,
                                  "time" : 582,
                                  "value" : 1.0,
                                  "duration" : 0
                                }
                              ]
                            }
                          },
                          "effects" : [

                          ],
                          "start" : 4156,
                          "duration" : 140,
                          "mediaStart" : 0,
                          "mediaDuration" : 140,
                          "scalar" : 1,
                          "animationTracks" : {

                          }
                        }
,
                    "start" : 4156,
                    "duration" : 140,
                    "mediaStart" : 0,
                    "mediaDuration" : 2063,
                    "scalar" : 1,
                    "metadata" : {
                      "clipSpeedAttribute" : true,
                      "default-scale" : "0.937042",
                      "effectApplied" : "Clip Speed"
                    }
                  },
                  {
                    "id" : 68,
                    "_type" : "UnifiedMedia",
                    "video" : 
                        {
                          "id" : 69,
                          "_type" : "ScreenVMFile",
                          "src" : 15,
                          "trackNumber" : 0,
                          "attributes" : {
                            "ident" : "Rec 9-29-2019 25"
                          },
                          "parameters" : {
                            "translation0" : {
                              "type" : "double",
                              "defaultValue" : 0.448732755984096,
                              "interp" : "eioe"
                            },
                            "translation1" : {
                              "type" : "double",
                              "defaultValue" : -0.218363011841006,
                              "interp" : "eioe"
                            },
                            "scale0" : {
                              "type" : "double",
                              "defaultValue" : 0.937042459736457,
                              "interp" : "eioe"
                            },
                            "scale1" : {
                              "type" : "double",
                              "defaultValue" : 0.937042459736457,
                              "interp" : "eioe"
                            },
                            "cursorScale" : {
                              "type" : "double",
                              "defaultValue" : 1.0,
                              "interp" : "linr"
                            },
                            "cursorOpacity" : {
                              "type" : "double",
                              "defaultValue" : 1.0,
                              "interp" : "linr"
                            }
                          },
                          "effects" : [

                          ],
                          "start" : 4296,
                          "duration" : 52,
                          "mediaStart" : 140,
                          "mediaDuration" : 521,
                          "scalar" : "52/521",
                          "animationTracks" : {

                          }
                        },
                    "audio" : 
                        {
                          "id" : 70,
                          "_type" : "AMFile",
                          "src" : 15,
                          "trackNumber" : 1,
                          "attributes" : {
                            "ident" : "",
                            "sampleRate" : 44100,
                            "bitDepth" : 16,
                            "gain" : 1.0,
                            "mixToMono" : false
                          },
                            "channelNumber" : "0,1",
                          "parameters" : {
                            "volume" : {
                              "type" : "double",
                              "keyframes" : [
                                {
                                  "endTime" : 0,
                                  "time" : 0,
                                  "value" : 1.0,
                                  "duration" : 0
                                },
                                {
                                  "endTime" : 133,
                                  "time" : 133,
                                  "value" : 1.0,
                                  "duration" : 0
                                },
                                {
                                  "endTime" : 134,
                                  "time" : 134,
                                  "value" : 0.0,
                                  "duration" : 0
                                },
                                {
                                  "endTime" : 581,
                                  "time" : 581,
                                  "value" : 0.0,
                                  "duration" : 0
                                },
                                {
                                  "endTime" : 582,
                                  "time" : 582,
                                  "value" : 1.0,
                                  "duration" : 0
                                }
                              ]
                            }
                          },
                          "effects" : [

                          ],
                          "start" : 4296,
                          "duration" : 52,
                          "mediaStart" : 140,
                          "mediaDuration" : 521,
                          "scalar" : "52/521",
                          "animationTracks" : {

                          }
                        }
,
                    "start" : 4296,
                    "duration" : 52,
                    "mediaStart" : 0,
                    "mediaDuration" : 2063,
                    "scalar" : "52/521",
                    "metadata" : {
                      "clipSpeedAttribute" : true,
                      "default-scale" : "0.937042",
                      "effectApplied" : "Clip Speed"
                    }
                  },
                  {
                    "id" : 71,
                    "_type" : "StitchedMedia",
                    "minMediaStart" : 0,
                    "attributes" : {
                      "ident" : "Rec 9-29-2019 25",
                      "gain" : 1.0,
                      "mixToMono" : false
                    },
                    "parameters" : {
                      "translation0" : 0.448732755984096,
                      "translation1" : -0.218363011841006,
                      "scale0" : 0.937042459736457,
                      "scale1" : 0.937042459736457,
                      "volume" : {
                        "type" : "double",
                        "keyframes" : [
                          {
                            "endTime" : 0,
                            "time" : 0,
                            "value" : 1.0,
                            "duration" : 0
                          },
                          {
                            "endTime" : 133,
                            "time" : 133,
                            "value" : 1.0,
                            "duration" : 0
                          },
                          {
                            "endTime" : 134,
                            "time" : 134,
                            "value" : 0.0,
                            "duration" : 0
                          },
                          {
                            "endTime" : 581,
                            "time" : 581,
                            "value" : 0.0,
                            "duration" : 0
                          },
                          {
                            "endTime" : 582,
                            "time" : 582,
                            "value" : 1.0,
                            "duration" : 0
                          },
                          {
                            "endTime" : 660,
                            "time" : 660,
                            "value" : 1.0,
                            "duration" : 0
                          },
                          {
                            "endTime" : 661,
                            "time" : 661,
                            "value" : 0.0,
                            "duration" : 0
                          },
                          {
                            "endTime" : 714,
                            "time" : 714,
                            "value" : 0.0,
                            "duration" : 0
                          },
                          {
                            "endTime" : 715,
                            "time" : 715,
                            "value" : 1.0,
                            "duration" : 0
                          }
                        ]
                      },
                      "cursorOpacity" : 1.0,
                      "cursorScale" : 1.0
                    },
                    "medias" : [
                        {
                          "id" : 72,
                          "_type" : "UnifiedMedia",
                          "video" : 
                              {
                                "id" : 73,
                                "_type" : "ScreenVMFile",
                                "src" : 15,
                                "trackNumber" : 0,
                                "attributes" : {
                                  "ident" : "Rec 9-29-2019 25"
                                },
                                "parameters" : {
                                  "cursorScale" : {
                                    "type" : "double",
                                    "defaultValue" : 0.0,
                                    "interp" : "linr"
                                  },
                                  "cursorOpacity" : {
                                    "type" : "double",
                                    "defaultValue" : 0.0,
                                    "interp" : "linr"
                                  }
                                },
                                "effects" : [

                                ],
                                "start" : 0,
                                "duration" : 705,
                                "mediaStart" : 0,
                                "mediaDuration" : 705,
                                "scalar" : 1,
                                "animationTracks" : {

                                }
                              },
                          "audio" : 
                              {
                                "id" : 74,
                                "_type" : "AMFile",
                                "src" : 15,
                                "trackNumber" : 1,
                                "attributes" : {
                                  "ident" : "",
                                  "sampleRate" : 44100,
                                  "bitDepth" : 16,
                                  "gain" : 1.0,
                                  "mixToMono" : false
                                },
                                  "channelNumber" : "0,1",
                                "effects" : [

                                ],
                                "start" : 0,
                                "duration" : 705,
                                "mediaStart" : 0,
                                "mediaDuration" : 705,
                                "scalar" : 1,
                                "animationTracks" : {

                                }
                              }
,
                          "start" : 0,
                          "duration" : 705,
                          "mediaStart" : 0,
                          "mediaDuration" : 2063,
                          "scalar" : 1,
                          "metadata" : {
                            "clipSpeedAttribute" : true,
                            "default-scale" : "0.937042",
                            "effectApplied" : "Clip Speed"
                          }
                        },
                        {
                          "id" : 75,
                          "_type" : "UnifiedMedia",
                          "video" : 
                              {
                                "id" : 76,
                                "_type" : "ScreenVMFile",
                                "src" : 15,
                                "trackNumber" : 0,
                                "attributes" : {
                                  "ident" : "Rec 9-29-2019 25"
                                },
                                "parameters" : {
                                  "cursorScale" : {
                                    "type" : "double",
                                    "defaultValue" : 0.0,
                                    "interp" : "linr"
                                  },
                                  "cursorOpacity" : {
                                    "type" : "double",
                                    "defaultValue" : 0.0,
                                    "interp" : "linr"
                                  }
                                },
                                "effects" : [

                                ],
                                "start" : 705,
                                "duration" : 1302,
                                "mediaStart" : 761,
                                "mediaDuration" : 1302,
                                "scalar" : 1,
                                "animationTracks" : {

                                }
                              },
                          "audio" : 
                              {
                                "id" : 77,
                                "_type" : "AMFile",
                                "src" : 15,
                                "trackNumber" : 1,
                                "attributes" : {
                                  "ident" : "",
                                  "sampleRate" : 44100,
                                  "bitDepth" : 16,
                                  "gain" : 1.0,
                                  "mixToMono" : false
                                },
                                  "channelNumber" : "0,1",
                                "effects" : [

                                ],
                                "start" : 705,
                                "duration" : 1302,
                                "mediaStart" : 761,
                                "mediaDuration" : 1302,
                                "scalar" : 1,
                                "animationTracks" : {

                                }
                              }
,
                          "start" : 705,
                          "duration" : 1302,
                          "mediaStart" : 0,
                          "mediaDuration" : 2063,
                          "scalar" : 1,
                          "metadata" : {
                            "clipSpeedAttribute" : true,
                            "default-scale" : "0.937042",
                            "effectApplied" : "Clip Speed"
                          }
                        }
                    ],
                    "effects" : [

                    ],
                    "start" : 4348,
                    "duration" : 503,
                    "mediaStart" : 661,
                    "mediaDuration" : 503,
                    "scalar" : 1,
                    "metadata" : {
                      "clipSpeedAttribute" : true,
                      "default-scale" : "0.937042",
                      "effectApplied" : "Clip Speed"
                    },
                    "animationTracks" : {

                    }
                  },
                  {
                    "id" : 78,
                    "_type" : "UnifiedMedia",
                    "video" : 
                        {
                          "id" : 79,
                          "_type" : "ScreenVMFile",
                          "src" : 22,
                          "trackNumber" : 0,
                          "attributes" : {
                            "ident" : "Rec 9-29-2019 50"
                          },
                          "parameters" : {
                            "scale0" : {
                              "type" : "double",
                              "defaultValue" : 0.937042459736457,
                              "interp" : "eioe"
                            },
                            "scale1" : {
                              "type" : "double",
                              "defaultValue" : 0.937042459736457,
                              "interp" : "eioe"
                            },
                            "cursorScale" : {
                              "type" : "double",
                              "defaultValue" : 1.0,
                              "interp" : "linr"
                            },
                            "cursorOpacity" : {
                              "type" : "double",
                              "defaultValue" : 1.0,
                              "interp" : "linr"
                            }
                          },
                          "effects" : [

                          ],
                          "start" : 4851,
                          "duration" : 837,
                          "mediaStart" : 29,
                          "mediaDuration" : 837,
                          "scalar" : 1,
                          "animationTracks" : {

                          }
                        },
                    "audio" : 
                        {
                          "id" : 80,
                          "_type" : "AMFile",
                          "src" : 22,
                          "trackNumber" : 1,
                          "attributes" : {
                            "ident" : "",
                            "sampleRate" : 44100,
                            "bitDepth" : 16,
                            "gain" : 1.0,
                            "mixToMono" : false
                          },
                            "channelNumber" : "0,1",
                          "effects" : [

                          ],
                          "start" : 4851,
                          "duration" : 837,
                          "mediaStart" : 29,
                          "mediaDuration" : 837,
                          "scalar" : 1,
                          "animationTracks" : {

                          }
                        }
,
                    "start" : 4851,
                    "duration" : 837,
                    "mediaStart" : 0,
                    "mediaDuration" : 929,
                    "scalar" : 1,
                    "metadata" : {
                      "clipSpeedAttribute" : false,
                      "default-scale" : "0.937042",
                      "effectApplied" : "none"
                    }
                  },
                  {
                    "id" : 81,
                    "_type" : "StitchedMedia",
                    "minMediaStart" : 0,
                    "attributes" : {
                      "ident" : "Rec 9-29-2019 25",
                      "gain" : 1.0,
                      "mixToMono" : false
                    },
                    "parameters" : {
                      "translation0" : 0.448732755984096,
                      "translation1" : -0.218363011841006,
                      "scale0" : 0.937042459736457,
                      "scale1" : 0.937042459736457,
                      "volume" : {
                        "type" : "double",
                        "keyframes" : [
                          {
                            "endTime" : 0,
                            "time" : 0,
                            "value" : 1.0,
                            "duration" : 0
                          },
                          {
                            "endTime" : 133,
                            "time" : 133,
                            "value" : 1.0,
                            "duration" : 0
                          },
                          {
                            "endTime" : 134,
                            "time" : 134,
                            "value" : 0.0,
                            "duration" : 0
                          },
                          {
                            "endTime" : 581,
                            "time" : 581,
                            "value" : 0.0,
                            "duration" : 0
                          },
                          {
                            "endTime" : 582,
                            "time" : 582,
                            "value" : 1.0,
                            "duration" : 0
                          },
                          {
                            "endTime" : 660,
                            "time" : 660,
                            "value" : 1.0,
                            "duration" : 0
                          },
                          {
                            "endTime" : 661,
                            "time" : 661,
                            "value" : 0.0,
                            "duration" : 0
                          },
                          {
                            "endTime" : 714,
                            "time" : 714,
                            "value" : 0.0,
                            "duration" : 0
                          },
                          {
                            "endTime" : 715,
                            "time" : 715,
                            "value" : 1.0,
                            "duration" : 0
                          }
                        ]
                      },
                      "cursorOpacity" : 1.0,
                      "cursorScale" : 1.0
                    },
                    "medias" : [
                        {
                          "id" : 82,
                          "_type" : "UnifiedMedia",
                          "video" : 
                              {
                                "id" : 83,
                                "_type" : "ScreenVMFile",
                                "src" : 15,
                                "trackNumber" : 0,
                                "attributes" : {
                                  "ident" : "Rec 9-29-2019 25"
                                },
                                "parameters" : {
                                  "cursorScale" : {
                                    "type" : "double",
                                    "defaultValue" : 0.0,
                                    "interp" : "linr"
                                  },
                                  "cursorOpacity" : {
                                    "type" : "double",
                                    "defaultValue" : 0.0,
                                    "interp" : "linr"
                                  }
                                },
                                "effects" : [

                                ],
                                "start" : 0,
                                "duration" : 705,
                                "mediaStart" : 0,
                                "mediaDuration" : 705,
                                "scalar" : 1,
                                "animationTracks" : {

                                }
                              },
                          "audio" : 
                              {
                                "id" : 84,
                                "_type" : "AMFile",
                                "src" : 15,
                                "trackNumber" : 1,
                                "attributes" : {
                                  "ident" : "",
                                  "sampleRate" : 44100,
                                  "bitDepth" : 16,
                                  "gain" : 1.0,
                                  "mixToMono" : false
                                },
                                  "channelNumber" : "0,1",
                                "effects" : [

                                ],
                                "start" : 0,
                                "duration" : 705,
                                "mediaStart" : 0,
                                "mediaDuration" : 705,
                                "scalar" : 1,
                                "animationTracks" : {

                                }
                              }
,
                          "start" : 0,
                          "duration" : 705,
                          "mediaStart" : 0,
                          "mediaDuration" : 2063,
                          "scalar" : 1,
                          "metadata" : {
                            "clipSpeedAttribute" : true,
                            "default-scale" : "0.937042",
                            "effectApplied" : "Clip Speed"
                          }
                        },
                        {
                          "id" : 85,
                          "_type" : "UnifiedMedia",
                          "video" : 
                              {
                                "id" : 86,
                                "_type" : "ScreenVMFile",
                                "src" : 15,
                                "trackNumber" : 0,
                                "attributes" : {
                                  "ident" : "Rec 9-29-2019 25"
                                },
                                "parameters" : {
                                  "cursorScale" : {
                                    "type" : "double",
                                    "defaultValue" : 0.0,
                                    "interp" : "linr"
                                  },
                                  "cursorOpacity" : {
                                    "type" : "double",
                                    "defaultValue" : 0.0,
                                    "interp" : "linr"
                                  }
                                },
                                "effects" : [

                                ],
                                "start" : 705,
                                "duration" : 559,
                                "mediaStart" : 761,
                                "mediaDuration" : 559,
                                "scalar" : 1,
                                "animationTracks" : {

                                }
                              },
                          "audio" : 
                              {
                                "id" : 87,
                                "_type" : "AMFile",
                                "src" : 15,
                                "trackNumber" : 1,
                                "attributes" : {
                                  "ident" : "",
                                  "sampleRate" : 44100,
                                  "bitDepth" : 16,
                                  "gain" : 1.0,
                                  "mixToMono" : false
                                },
                                  "channelNumber" : "0,1",
                                "effects" : [

                                ],
                                "start" : 705,
                                "duration" : 559,
                                "mediaStart" : 761,
                                "mediaDuration" : 559,
                                "scalar" : 1,
                                "animationTracks" : {

                                }
                              }
,
                          "start" : 705,
                          "duration" : 559,
                          "mediaStart" : 0,
                          "mediaDuration" : 2063,
                          "scalar" : 1,
                          "metadata" : {
                            "clipSpeedAttribute" : true,
                            "default-scale" : "0.937042",
                            "effectApplied" : "Clip Speed"
                          }
                        },
                        {
                          "id" : 88,
                          "_type" : "UnifiedMedia",
                          "video" : 
                              {
                                "id" : 89,
                                "_type" : "ScreenVMFile",
                                "src" : 15,
                                "trackNumber" : 0,
                                "attributes" : {
                                  "ident" : "Rec 9-29-2019 25"
                                },
                                "parameters" : {
                                  "cursorScale" : {
                                    "type" : "double",
                                    "defaultValue" : 0.0,
                                    "interp" : "linr"
                                  },
                                  "cursorOpacity" : {
                                    "type" : "double",
                                    "defaultValue" : 0.0,
                                    "interp" : "linr"
                                  }
                                },
                                "effects" : [

                                ],
                                "start" : 1264,
                                "duration" : 562,
                                "mediaStart" : 1501,
                                "mediaDuration" : 562,
                                "scalar" : 1,
                                "animationTracks" : {

                                }
                              },
                          "audio" : 
                              {
                                "id" : 90,
                                "_type" : "AMFile",
                                "src" : 15,
                                "trackNumber" : 1,
                                "attributes" : {
                                  "ident" : "",
                                  "sampleRate" : 44100,
                                  "bitDepth" : 16,
                                  "gain" : 1.0,
                                  "mixToMono" : false
                                },
                                  "channelNumber" : "0,1",
                                "effects" : [

                                ],
                                "start" : 1264,
                                "duration" : 562,
                                "mediaStart" : 1501,
                                "mediaDuration" : 562,
                                "scalar" : 1,
                                "animationTracks" : {

                                }
                              }
,
                          "start" : 1264,
                          "duration" : 562,
                          "mediaStart" : 0,
                          "mediaDuration" : 2063,
                          "scalar" : 1,
                          "metadata" : {
                            "clipSpeedAttribute" : true,
                            "default-scale" : "0.937042",
                            "effectApplied" : "Clip Speed"
                          }
                        }
                    ],
                    "effects" : [

                    ],
                    "start" : 5688,
                    "duration" : 560,
                    "mediaStart" : 1164,
                    "mediaDuration" : 560,
                    "scalar" : 1,
                    "metadata" : {
                      "clipSpeedAttribute" : true,
                      "default-scale" : "0.937042",
                      "effectApplied" : "Clip Speed"
                    },
                    "animationTracks" : {

                    }
                  },
                  {
                    "id" : 91,
                    "_type" : "UnifiedMedia",
                    "video" : 
                        {
                          "id" : 92,
                          "_type" : "ScreenVMFile",
                          "src" : 16,
                          "trackNumber" : 0,
                          "attributes" : {
                            "ident" : "Rec 9-29-2019 26"
                          },
                          "parameters" : {
                            "scale0" : {
                              "type" : "double",
                              "defaultValue" : 0.937042459736457,
                              "interp" : "eioe"
                            },
                            "scale1" : {
                              "type" : "double",
                              "defaultValue" : 0.937042459736457,
                              "interp" : "eioe"
                            },
                            "cursorScale" : {
                              "type" : "double",
                              "defaultValue" : 1.0,
                              "interp" : "linr"
                            },
                            "cursorOpacity" : {
                              "type" : "double",
                              "defaultValue" : 1.0,
                              "interp" : "linr"
                            }
                          },
                          "effects" : [

                          ],
                          "start" : 6248,
                          "duration" : 143,
                          "mediaStart" : 0,
                          "mediaDuration" : 143,
                          "scalar" : 1,
                          "animationTracks" : {

                          }
                        },
                    "audio" : 
                        {
                          "id" : 93,
                          "_type" : "AMFile",
                          "src" : 16,
                          "trackNumber" : 1,
                          "attributes" : {
                            "ident" : "",
                            "sampleRate" : 44100,
                            "bitDepth" : 16,
                            "gain" : 1.0,
                            "mixToMono" : false
                          },
                            "channelNumber" : "0,1",
                          "effects" : [

                          ],
                          "start" : 6248,
                          "duration" : 143,
                          "mediaStart" : 0,
                          "mediaDuration" : 143,
                          "scalar" : 1,
                          "animationTracks" : {

                          }
                        }
,
                    "start" : 6248,
                    "duration" : 143,
                    "mediaStart" : 0,
                    "mediaDuration" : 1220,
                    "scalar" : 1,
                    "metadata" : {
                      "clipSpeedAttribute" : false,
                      "default-scale" : "0.937042",
                      "effectApplied" : "none"
                    }
                  },
                  {
                    "id" : 94,
                    "_type" : "UnifiedMedia",
                    "video" : 
                        {
                          "id" : 95,
                          "_type" : "ScreenVMFile",
                          "src" : 16,
                          "trackNumber" : 0,
                          "attributes" : {
                            "ident" : "Rec 9-29-2019 26"
                          },
                          "parameters" : {
                            "scale0" : {
                              "type" : "double",
                              "defaultValue" : 0.937042459736457,
                              "interp" : "eioe"
                            },
                            "scale1" : {
                              "type" : "double",
                              "defaultValue" : 0.937042459736457,
                              "interp" : "eioe"
                            },
                            "cursorScale" : {
                              "type" : "double",
                              "defaultValue" : 1.0,
                              "interp" : "linr"
                            },
                            "cursorOpacity" : {
                              "type" : "double",
                              "defaultValue" : 1.0,
                              "interp" : "linr"
                            }
                          },
                          "effects" : [

                          ],
                          "start" : 6391,
                          "duration" : 78,
                          "mediaStart" : 533,
                          "mediaDuration" : 78,
                          "scalar" : 1,
                          "animationTracks" : {

                          }
                        },
                    "audio" : 
                        {
                          "id" : 96,
                          "_type" : "AMFile",
                          "src" : 16,
                          "trackNumber" : 1,
                          "attributes" : {
                            "ident" : "",
                            "sampleRate" : 44100,
                            "bitDepth" : 16,
                            "gain" : 1.0,
                            "mixToMono" : false
                          },
                            "channelNumber" : "0,1",
                          "effects" : [

                          ],
                          "start" : 6391,
                          "duration" : 78,
                          "mediaStart" : 533,
                          "mediaDuration" : 78,
                          "scalar" : 1,
                          "animationTracks" : {

                          }
                        }
,
                    "start" : 6391,
                    "duration" : 78,
                    "mediaStart" : 0,
                    "mediaDuration" : 1220,
                    "scalar" : 1,
                    "metadata" : {
                      "clipSpeedAttribute" : false,
                      "default-scale" : "0.937042",
                      "effectApplied" : "none"
                    }
                  },
                  {
                    "id" : 97,
                    "_type" : "UnifiedMedia",
                    "video" : 
                        {
                          "id" : 98,
                          "_type" : "ScreenVMFile",
                          "src" : 16,
                          "trackNumber" : 0,
                          "attributes" : {
                            "ident" : "Rec 9-29-2019 26"
                          },
                          "parameters" : {
                            "scale0" : {
                              "type" : "double",
                              "defaultValue" : 0.937042459736457,
                              "interp" : "eioe"
                            },
                            "scale1" : {
                              "type" : "double",
                              "defaultValue" : 0.937042459736457,
                              "interp" : "eioe"
                            },
                            "cursorScale" : {
                              "type" : "double",
                              "defaultValue" : 1.0,
                              "interp" : "linr"
                            },
                            "cursorOpacity" : {
                              "type" : "double",
                              "defaultValue" : 1.0,
                              "interp" : "linr"
                            }
                          },
                          "effects" : [

                          ],
                          "start" : 6469,
                          "duration" : 226,
                          "mediaStart" : 892,
                          "mediaDuration" : 226,
                          "scalar" : 1,
                          "animationTracks" : {

                          }
                        },
                    "audio" : 
                        {
                          "id" : 99,
                          "_type" : "AMFile",
                          "src" : 16,
                          "trackNumber" : 1,
                          "attributes" : {
                            "ident" : "",
                            "sampleRate" : 44100,
                            "bitDepth" : 16,
                            "gain" : 1.0,
                            "mixToMono" : false
                          },
                            "channelNumber" : "0,1",
                          "effects" : [

                          ],
                          "start" : 6469,
                          "duration" : 226,
                          "mediaStart" : 892,
                          "mediaDuration" : 226,
                          "scalar" : 1,
                          "animationTracks" : {

                          }
                        }
,
                    "start" : 6469,
                    "duration" : 226,
                    "mediaStart" : 0,
                    "mediaDuration" : 1220,
                    "scalar" : 1,
                    "metadata" : {
                      "clipSpeedAttribute" : false,
                      "default-scale" : "0.937042",
                      "effectApplied" : "none"
                    }
                  },
                  {
                    "id" : 100,
                    "_type" : "StitchedMedia",
                    "minMediaStart" : 0,
                    "attributes" : {
                      "ident" : "Rec 9-29-2019 32",
                      "gain" : 1.0,
                      "mixToMono" : false
                    },
                    "parameters" : {
                      "scale0" : 0.937042459736457,
                      "scale1" : 0.937042459736457,
                      "volume" : {
                        "type" : "double",
                        "keyframes" : [
                          {
                            "endTime" : 0,
                            "time" : 0,
                            "value" : 1.0,
                            "duration" : 0
                          },
                          {
                            "endTime" : 547,
                            "time" : 547,
                            "value" : 1.0,
                            "duration" : 0
                          },
                          {
                            "endTime" : 548,
                            "time" : 548,
                            "value" : 0.0,
                            "duration" : 0
                          },
                          {
                            "endTime" : 572,
                            "time" : 572,
                            "value" : 0.0,
                            "duration" : 0
                          },
                          {
                            "endTime" : 573,
                            "time" : 573,
                            "value" : 1.0,
                            "duration" : 0
                          }
                        ]
                      },
                      "cursorOpacity" : 1.0,
                      "cursorScale" : 1.0
                    },
                    "medias" : [
                        {
                          "id" : 101,
                          "_type" : "UnifiedMedia",
                          "video" : 
                              {
                                "id" : 102,
                                "_type" : "ScreenVMFile",
                                "src" : 17,
                                "trackNumber" : 0,
                                "attributes" : {
                                  "ident" : "Rec 9-29-2019 32"
                                },
                                "parameters" : {
                                  "cursorScale" : {
                                    "type" : "double",
                                    "defaultValue" : 0.0,
                                    "interp" : "linr"
                                  },
                                  "cursorOpacity" : {
                                    "type" : "double",
                                    "defaultValue" : 0.0,
                                    "interp" : "linr"
                                  }
                                },
                                "effects" : [

                                ],
                                "start" : 0,
                                "duration" : 575,
                                "mediaStart" : 0,
                                "mediaDuration" : 575,
                                "scalar" : 1,
                                "animationTracks" : {

                                }
                              },
                          "audio" : 
                              {
                                "id" : 103,
                                "_type" : "AMFile",
                                "src" : 17,
                                "trackNumber" : 1,
                                "attributes" : {
                                  "ident" : "",
                                  "sampleRate" : 44100,
                                  "bitDepth" : 16,
                                  "gain" : 1.0,
                                  "mixToMono" : false
                                },
                                  "channelNumber" : "0,1",
                                "effects" : [

                                ],
                                "start" : 0,
                                "duration" : 575,
                                "mediaStart" : 0,
                                "mediaDuration" : 575,
                                "scalar" : 1,
                                "animationTracks" : {

                                }
                              }
,
                          "start" : 0,
                          "duration" : 575,
                          "mediaStart" : 0,
                          "mediaDuration" : 2939,
                          "scalar" : 1,
                          "metadata" : {
                            "clipSpeedAttribute" : false,
                            "default-scale" : "0.937042",
                            "effectApplied" : "none"
                          }
                        },
                        {
                          "id" : 104,
                          "_type" : "UnifiedMedia",
                          "video" : 
                              {
                                "id" : 105,
                                "_type" : "ScreenVMFile",
                                "src" : 17,
                                "trackNumber" : 0,
                                "attributes" : {
                                  "ident" : "Rec 9-29-2019 32"
                                },
                                "parameters" : {
                                  "cursorScale" : {
                                    "type" : "double",
                                    "defaultValue" : 0.0,
                                    "interp" : "linr"
                                  },
                                  "cursorOpacity" : {
                                    "type" : "double",
                                    "defaultValue" : 0.0,
                                    "interp" : "linr"
                                  }
                                },
                                "effects" : [

                                ],
                                "start" : 575,
                                "duration" : 352,
                                "mediaStart" : 1418,
                                "mediaDuration" : 352,
                                "scalar" : 1,
                                "animationTracks" : {

                                }
                              },
                          "audio" : 
                              {
                                "id" : 106,
                                "_type" : "AMFile",
                                "src" : 17,
                                "trackNumber" : 1,
                                "attributes" : {
                                  "ident" : "",
                                  "sampleRate" : 44100,
                                  "bitDepth" : 16,
                                  "gain" : 1.0,
                                  "mixToMono" : false
                                },
                                  "channelNumber" : "0,1",
                                "effects" : [

                                ],
                                "start" : 575,
                                "duration" : 352,
                                "mediaStart" : 1418,
                                "mediaDuration" : 352,
                                "scalar" : 1,
                                "animationTracks" : {

                                }
                              }
,
                          "start" : 575,
                          "duration" : 352,
                          "mediaStart" : 0,
                          "mediaDuration" : 2939,
                          "scalar" : 1,
                          "metadata" : {
                            "clipSpeedAttribute" : false,
                            "default-scale" : "0.937042",
                            "effectApplied" : "none"
                          }
                        },
                        {
                          "id" : 107,
                          "_type" : "UnifiedMedia",
                          "video" : 
                              {
                                "id" : 108,
                                "_type" : "ScreenVMFile",
                                "src" : 17,
                                "trackNumber" : 0,
                                "attributes" : {
                                  "ident" : "Rec 9-29-2019 32"
                                },
                                "parameters" : {
                                  "cursorScale" : {
                                    "type" : "double",
                                    "defaultValue" : 0.0,
                                    "interp" : "linr"
                                  },
                                  "cursorOpacity" : {
                                    "type" : "double",
                                    "defaultValue" : 0.0,
                                    "interp" : "linr"
                                  }
                                },
                                "effects" : [

                                ],
                                "start" : 927,
                                "duration" : 355,
                                "mediaStart" : 2584,
                                "mediaDuration" : 355,
                                "scalar" : 1,
                                "animationTracks" : {

                                }
                              },
                          "audio" : 
                              {
                                "id" : 109,
                                "_type" : "AMFile",
                                "src" : 17,
                                "trackNumber" : 1,
                                "attributes" : {
                                  "ident" : "",
                                  "sampleRate" : 44100,
                                  "bitDepth" : 16,
                                  "gain" : 1.0,
                                  "mixToMono" : false
                                },
                                  "channelNumber" : "0,1",
                                "effects" : [

                                ],
                                "start" : 927,
                                "duration" : 355,
                                "mediaStart" : 2584,
                                "mediaDuration" : 355,
                                "scalar" : 1,
                                "animationTracks" : {

                                }
                              }
,
                          "start" : 927,
                          "duration" : 355,
                          "mediaStart" : 0,
                          "mediaDuration" : 2939,
                          "scalar" : 1,
                          "metadata" : {
                            "clipSpeedAttribute" : false,
                            "default-scale" : "0.937042",
                            "effectApplied" : "none"
                          }
                        }
                    ],
                    "effects" : [

                    ],
                    "start" : 6695,
                    "duration" : 388,
                    "mediaStart" : 0,
                    "mediaDuration" : 388,
                    "scalar" : 1,
                    "metadata" : {
                      "clipSpeedAttribute" : false,
                      "default-scale" : "0.937042",
                      "effectApplied" : "none"
                    },
                    "animationTracks" : {

                    }
                  },
                  {
                    "id" : 110,
                    "_type" : "StitchedMedia",
                    "minMediaStart" : 0,
                    "attributes" : {
                      "ident" : "Rec 9-29-2019 32",
                      "gain" : 1.0,
                      "mixToMono" : false
                    },
                    "parameters" : {
                      "scale0" : 0.937042459736457,
                      "scale1" : 0.937042459736457,
                      "volume" : {
                        "type" : "double",
                        "keyframes" : [
                          {
                            "endTime" : 0,
                            "time" : 0,
                            "value" : 1.0,
                            "duration" : 0
                          },
                          {
                            "endTime" : 547,
                            "time" : 547,
                            "value" : 1.0,
                            "duration" : 0
                          },
                          {
                            "endTime" : 548,
                            "time" : 548,
                            "value" : 0.0,
                            "duration" : 0
                          },
                          {
                            "endTime" : 572,
                            "time" : 572,
                            "value" : 0.0,
                            "duration" : 0
                          },
                          {
                            "endTime" : 573,
                            "time" : 573,
                            "value" : 1.0,
                            "duration" : 0
                          }
                        ]
                      },
                      "cursorOpacity" : 1.0,
                      "cursorScale" : 1.0
                    },
                    "medias" : [
                        {
                          "id" : 111,
                          "_type" : "UnifiedMedia",
                          "video" : 
                              {
                                "id" : 112,
                                "_type" : "ScreenVMFile",
                                "src" : 17,
                                "trackNumber" : 0,
                                "attributes" : {
                                  "ident" : "Rec 9-29-2019 32"
                                },
                                "parameters" : {
                                  "cursorScale" : {
                                    "type" : "double",
                                    "defaultValue" : 0.0,
                                    "interp" : "linr"
                                  },
                                  "cursorOpacity" : {
                                    "type" : "double",
                                    "defaultValue" : 0.0,
                                    "interp" : "linr"
                                  }
                                },
                                "effects" : [

                                ],
                                "start" : 0,
                                "duration" : 575,
                                "mediaStart" : 0,
                                "mediaDuration" : 575,
                                "scalar" : 1,
                                "animationTracks" : {

                                }
                              },
                          "audio" : 
                              {
                                "id" : 113,
                                "_type" : "AMFile",
                                "src" : 17,
                                "trackNumber" : 1,
                                "attributes" : {
                                  "ident" : "",
                                  "sampleRate" : 44100,
                                  "bitDepth" : 16,
                                  "gain" : 1.0,
                                  "mixToMono" : false
                                },
                                  "channelNumber" : "0,1",
                                "effects" : [

                                ],
                                "start" : 0,
                                "duration" : 575,
                                "mediaStart" : 0,
                                "mediaDuration" : 575,
                                "scalar" : 1,
                                "animationTracks" : {

                                }
                              }
,
                          "start" : 0,
                          "duration" : 575,
                          "mediaStart" : 0,
                          "mediaDuration" : 2939,
                          "scalar" : 1,
                          "metadata" : {
                            "clipSpeedAttribute" : false,
                            "default-scale" : "0.937042",
                            "effectApplied" : "none"
                          }
                        },
                        {
                          "id" : 114,
                          "_type" : "UnifiedMedia",
                          "video" : 
                              {
                                "id" : 115,
                                "_type" : "ScreenVMFile",
                                "src" : 17,
                                "trackNumber" : 0,
                                "attributes" : {
                                  "ident" : "Rec 9-29-2019 32"
                                },
                                "parameters" : {
                                  "cursorScale" : {
                                    "type" : "double",
                                    "defaultValue" : 0.0,
                                    "interp" : "linr"
                                  },
                                  "cursorOpacity" : {
                                    "type" : "double",
                                    "defaultValue" : 0.0,
                                    "interp" : "linr"
                                  }
                                },
                                "effects" : [

                                ],
                                "start" : 575,
                                "duration" : 352,
                                "mediaStart" : 1418,
                                "mediaDuration" : 352,
                                "scalar" : 1,
                                "animationTracks" : {

                                }
                              },
                          "audio" : 
                              {
                                "id" : 116,
                                "_type" : "AMFile",
                                "src" : 17,
                                "trackNumber" : 1,
                                "attributes" : {
                                  "ident" : "",
                                  "sampleRate" : 44100,
                                  "bitDepth" : 16,
                                  "gain" : 1.0,
                                  "mixToMono" : false
                                },
                                  "channelNumber" : "0,1",
                                "effects" : [

                                ],
                                "start" : 575,
                                "duration" : 352,
                                "mediaStart" : 1418,
                                "mediaDuration" : 352,
                                "scalar" : 1,
                                "animationTracks" : {

                                }
                              }
,
                          "start" : 575,
                          "duration" : 352,
                          "mediaStart" : 0,
                          "mediaDuration" : 2939,
                          "scalar" : 1,
                          "metadata" : {
                            "clipSpeedAttribute" : false,
                            "default-scale" : "0.937042",
                            "effectApplied" : "none"
                          }
                        },
                        {
                          "id" : 117,
                          "_type" : "UnifiedMedia",
                          "video" : 
                              {
                                "id" : 118,
                                "_type" : "ScreenVMFile",
                                "src" : 17,
                                "trackNumber" : 0,
                                "attributes" : {
                                  "ident" : "Rec 9-29-2019 32"
                                },
                                "parameters" : {
                                  "cursorScale" : {
                                    "type" : "double",
                                    "defaultValue" : 0.0,
                                    "interp" : "linr"
                                  },
                                  "cursorOpacity" : {
                                    "type" : "double",
                                    "defaultValue" : 0.0,
                                    "interp" : "linr"
                                  }
                                },
                                "effects" : [

                                ],
                                "start" : 927,
                                "duration" : 355,
                                "mediaStart" : 2584,
                                "mediaDuration" : 355,
                                "scalar" : 1,
                                "animationTracks" : {

                                }
                              },
                          "audio" : 
                              {
                                "id" : 119,
                                "_type" : "AMFile",
                                "src" : 17,
                                "trackNumber" : 1,
                                "attributes" : {
                                  "ident" : "",
                                  "sampleRate" : 44100,
                                  "bitDepth" : 16,
                                  "gain" : 1.0,
                                  "mixToMono" : false
                                },
                                  "channelNumber" : "0,1",
                                "effects" : [

                                ],
                                "start" : 927,
                                "duration" : 355,
                                "mediaStart" : 2584,
                                "mediaDuration" : 355,
                                "scalar" : 1,
                                "animationTracks" : {

                                }
                              }
,
                          "start" : 927,
                          "duration" : 355,
                          "mediaStart" : 0,
                          "mediaDuration" : 2939,
                          "scalar" : 1,
                          "metadata" : {
                            "clipSpeedAttribute" : false,
                            "default-scale" : "0.937042",
                            "effectApplied" : "none"
                          }
                        }
                    ],
                    "effects" : [

                    ],
                    "start" : 7083,
                    "duration" : 75,
                    "mediaStart" : 388,
                    "mediaDuration" : 150,
                    "scalar" : "1/2",
                    "metadata" : {
                      "clipSpeedAttribute" : true,
                      "default-scale" : "0.937042",
                      "effectApplied" : "ClipSpeedEffectName"
                    },
                    "animationTracks" : {

                    }
                  },
                  {
                    "id" : 120,
                    "_type" : "StitchedMedia",
                    "minMediaStart" : 0,
                    "attributes" : {
                      "ident" : "Rec 9-29-2019 32",
                      "gain" : 1.0,
                      "mixToMono" : false
                    },
                    "parameters" : {
                      "scale0" : 0.937042459736457,
                      "scale1" : 0.937042459736457,
                      "volume" : {
                        "type" : "double",
                        "keyframes" : [
                          {
                            "endTime" : 0,
                            "time" : 0,
                            "value" : 1.0,
                            "duration" : 0
                          },
                          {
                            "endTime" : 547,
                            "time" : 547,
                            "value" : 1.0,
                            "duration" : 0
                          },
                          {
                            "endTime" : 548,
                            "time" : 548,
                            "value" : 0.0,
                            "duration" : 0
                          },
                          {
                            "endTime" : 572,
                            "time" : 572,
                            "value" : 0.0,
                            "duration" : 0
                          },
                          {
                            "endTime" : 573,
                            "time" : 573,
                            "value" : 1.0,
                            "duration" : 0
                          }
                        ]
                      },
                      "cursorOpacity" : 1.0,
                      "cursorScale" : 1.0
                    },
                    "medias" : [
                        {
                          "id" : 121,
                          "_type" : "UnifiedMedia",
                          "video" : 
                              {
                                "id" : 122,
                                "_type" : "ScreenVMFile",
                                "src" : 17,
                                "trackNumber" : 0,
                                "attributes" : {
                                  "ident" : "Rec 9-29-2019 32"
                                },
                                "parameters" : {
                                  "cursorScale" : {
                                    "type" : "double",
                                    "defaultValue" : 0.0,
                                    "interp" : "linr"
                                  },
                                  "cursorOpacity" : {
                                    "type" : "double",
                                    "defaultValue" : 0.0,
                                    "interp" : "linr"
                                  }
                                },
                                "effects" : [

                                ],
                                "start" : 0,
                                "duration" : 575,
                                "mediaStart" : 0,
                                "mediaDuration" : 575,
                                "scalar" : 1,
                                "animationTracks" : {

                                }
                              },
                          "audio" : 
                              {
                                "id" : 123,
                                "_type" : "AMFile",
                                "src" : 17,
                                "trackNumber" : 1,
                                "attributes" : {
                                  "ident" : "",
                                  "sampleRate" : 44100,
                                  "bitDepth" : 16,
                                  "gain" : 1.0,
                                  "mixToMono" : false
                                },
                                  "channelNumber" : "0,1",
                                "effects" : [

                                ],
                                "start" : 0,
                                "duration" : 575,
                                "mediaStart" : 0,
                                "mediaDuration" : 575,
                                "scalar" : 1,
                                "animationTracks" : {

                                }
                              }
,
                          "start" : 0,
                          "duration" : 575,
                          "mediaStart" : 0,
                          "mediaDuration" : 2939,
                          "scalar" : 1,
                          "metadata" : {
                            "clipSpeedAttribute" : false,
                            "default-scale" : "0.937042",
                            "effectApplied" : "none"
                          }
                        },
                        {
                          "id" : 124,
                          "_type" : "UnifiedMedia",
                          "video" : 
                              {
                                "id" : 125,
                                "_type" : "ScreenVMFile",
                                "src" : 17,
                                "trackNumber" : 0,
                                "attributes" : {
                                  "ident" : "Rec 9-29-2019 32"
                                },
                                "parameters" : {
                                  "cursorScale" : {
                                    "type" : "double",
                                    "defaultValue" : 0.0,
                                    "interp" : "linr"
                                  },
                                  "cursorOpacity" : {
                                    "type" : "double",
                                    "defaultValue" : 0.0,
                                    "interp" : "linr"
                                  }
                                },
                                "effects" : [

                                ],
                                "start" : 575,
                                "duration" : 352,
                                "mediaStart" : 1418,
                                "mediaDuration" : 352,
                                "scalar" : 1,
                                "animationTracks" : {

                                }
                              },
                          "audio" : 
                              {
                                "id" : 126,
                                "_type" : "AMFile",
                                "src" : 17,
                                "trackNumber" : 1,
                                "attributes" : {
                                  "ident" : "",
                                  "sampleRate" : 44100,
                                  "bitDepth" : 16,
                                  "gain" : 1.0,
                                  "mixToMono" : false
                                },
                                  "channelNumber" : "0,1",
                                "effects" : [

                                ],
                                "start" : 575,
                                "duration" : 352,
                                "mediaStart" : 1418,
                                "mediaDuration" : 352,
                                "scalar" : 1,
                                "animationTracks" : {

                                }
                              }
,
                          "start" : 575,
                          "duration" : 352,
                          "mediaStart" : 0,
                          "mediaDuration" : 2939,
                          "scalar" : 1,
                          "metadata" : {
                            "clipSpeedAttribute" : false,
                            "default-scale" : "0.937042",
                            "effectApplied" : "none"
                          }
                        },
                        {
                          "id" : 127,
                          "_type" : "UnifiedMedia",
                          "video" : 
                              {
                                "id" : 128,
                                "_type" : "ScreenVMFile",
                                "src" : 17,
                                "trackNumber" : 0,
                                "attributes" : {
                                  "ident" : "Rec 9-29-2019 32"
                                },
                                "parameters" : {
                                  "cursorScale" : {
                                    "type" : "double",
                                    "defaultValue" : 0.0,
                                    "interp" : "linr"
                                  },
                                  "cursorOpacity" : {
                                    "type" : "double",
                                    "defaultValue" : 0.0,
                                    "interp" : "linr"
                                  }
                                },
                                "effects" : [

                                ],
                                "start" : 927,
                                "duration" : 355,
                                "mediaStart" : 2584,
                                "mediaDuration" : 355,
                                "scalar" : 1,
                                "animationTracks" : {

                                }
                              },
                          "audio" : 
                              {
                                "id" : 129,
                                "_type" : "AMFile",
                                "src" : 17,
                                "trackNumber" : 1,
                                "attributes" : {
                                  "ident" : "",
                                  "sampleRate" : 44100,
                                  "bitDepth" : 16,
                                  "gain" : 1.0,
                                  "mixToMono" : false
                                },
                                  "channelNumber" : "0,1",
                                "effects" : [

                                ],
                                "start" : 927,
                                "duration" : 355,
                                "mediaStart" : 2584,
                                "mediaDuration" : 355,
                                "scalar" : 1,
                                "animationTracks" : {

                                }
                              }
,
                          "start" : 927,
                          "duration" : 355,
                          "mediaStart" : 0,
                          "mediaDuration" : 2939,
                          "scalar" : 1,
                          "metadata" : {
                            "clipSpeedAttribute" : false,
                            "default-scale" : "0.937042",
                            "effectApplied" : "none"
                          }
                        }
                    ],
                    "effects" : [

                    ],
                    "start" : 7158,
                    "duration" : 662,
                    "mediaStart" : 538,
                    "mediaDuration" : 662,
                    "scalar" : 1,
                    "metadata" : {
                      "clipSpeedAttribute" : false,
                      "default-scale" : "0.937042",
                      "effectApplied" : "none"
                    },
                    "animationTracks" : {

                    }
                  },
                  {
                    "id" : 130,
                    "_type" : "StitchedMedia",
                    "minMediaStart" : 0,
                    "attributes" : {
                      "ident" : "Rec 9-29-2019 33",
                      "gain" : 1.0,
                      "mixToMono" : false
                    },
                    "parameters" : {
                      "scale0" : 0.937042459736457,
                      "scale1" : 0.937042459736457,
                      "cursorOpacity" : 1.0,
                      "cursorScale" : 1.0
                    },
                    "medias" : [
                        {
                          "id" : 131,
                          "_type" : "ScreenVMFile",
                          "src" : 18,
                          "trackNumber" : 0,
                          "attributes" : {
                            "ident" : "Rec 9-29-2019 33"
                          },
                          "parameters" : {
                            "cursorScale" : {
                              "type" : "double",
                              "defaultValue" : 0.0,
                              "interp" : "linr"
                            },
                            "cursorOpacity" : {
                              "type" : "double",
                              "defaultValue" : 0.0,
                              "interp" : "linr"
                            }
                          },
                          "effects" : [

                          ],
                          "start" : 0,
                          "duration" : 351,
                          "mediaStart" : 0,
                          "mediaDuration" : 351,
                          "scalar" : 1,
                          "animationTracks" : {

                          }
                        },
                        {
                          "id" : 132,
                          "_type" : "ScreenVMFile",
                          "src" : 18,
                          "trackNumber" : 0,
                          "attributes" : {
                            "ident" : "Rec 9-29-2019 33"
                          },
                          "parameters" : {
                            "cursorScale" : {
                              "type" : "double",
                              "defaultValue" : 0.0,
                              "interp" : "linr"
                            },
                            "cursorOpacity" : {
                              "type" : "double",
                              "defaultValue" : 0.0,
                              "interp" : "linr"
                            }
                          },
                          "effects" : [

                          ],
                          "start" : 351,
                          "duration" : 171,
                          "mediaStart" : 608,
                          "mediaDuration" : 171,
                          "scalar" : 1,
                          "animationTracks" : {

                          }
                        },
                        {
                          "id" : 133,
                          "_type" : "ScreenVMFile",
                          "src" : 18,
                          "trackNumber" : 0,
                          "attributes" : {
                            "ident" : "Rec 9-29-2019 33"
                          },
                          "parameters" : {
                            "cursorScale" : {
                              "type" : "double",
                              "defaultValue" : 0.0,
                              "interp" : "linr"
                            },
                            "cursorOpacity" : {
                              "type" : "double",
                              "defaultValue" : 0.0,
                              "interp" : "linr"
                            }
                          },
                          "effects" : [

                          ],
                          "start" : 522,
                          "duration" : 220,
                          "mediaStart" : 846,
                          "mediaDuration" : 220,
                          "scalar" : 1,
                          "animationTracks" : {

                          }
                        },
                        {
                          "id" : 134,
                          "_type" : "ScreenVMFile",
                          "src" : 18,
                          "trackNumber" : 0,
                          "attributes" : {
                            "ident" : "Rec 9-29-2019 33"
                          },
                          "parameters" : {
                            "cursorScale" : {
                              "type" : "double",
                              "defaultValue" : 0.0,
                              "interp" : "linr"
                            },
                            "cursorOpacity" : {
                              "type" : "double",
                              "defaultValue" : 0.0,
                              "interp" : "linr"
                            }
                          },
                          "effects" : [

                          ],
                          "start" : 742,
                          "duration" : 185,
                          "mediaStart" : 1301,
                          "mediaDuration" : 185,
                          "scalar" : 1,
                          "animationTracks" : {

                          }
                        },
                        {
                          "id" : 135,
                          "_type" : "ScreenVMFile",
                          "src" : 18,
                          "trackNumber" : 0,
                          "attributes" : {
                            "ident" : "Rec 9-29-2019 33"
                          },
                          "parameters" : {
                            "cursorScale" : {
                              "type" : "double",
                              "defaultValue" : 0.0,
                              "interp" : "linr"
                            },
                            "cursorOpacity" : {
                              "type" : "double",
                              "defaultValue" : 0.0,
                              "interp" : "linr"
                            }
                          },
                          "effects" : [

                          ],
                          "start" : 927,
                          "duration" : 169,
                          "mediaStart" : 1556,
                          "mediaDuration" : 169,
                          "scalar" : 1,
                          "animationTracks" : {

                          }
                        }
                    ],
                    "effects" : [

                    ],
                    "start" : 7820,
                    "duration" : 1007,
                    "mediaStart" : 0,
                    "mediaDuration" : 1007,
                    "scalar" : 1,
                    "metadata" : {
                      "clipSpeedAttribute" : false,
                      "effectApplied" : "none"
                    },
                    "animationTracks" : {

                    }
                  },
                  {
                    "id" : 136,
                    "_type" : "UnifiedMedia",
                    "video" : 
                        {
                          "id" : 137,
                          "_type" : "ScreenVMFile",
                          "src" : 20,
                          "trackNumber" : 0,
                          "attributes" : {
                            "ident" : "Rec 9-29-2019 41"
                          },
                          "parameters" : {
                            "scale0" : {
                              "type" : "double",
                              "defaultValue" : 0.937042459736457,
                              "interp" : "eioe"
                            },
                            "scale1" : {
                              "type" : "double",
                              "defaultValue" : 0.937042459736457,
                              "interp" : "eioe"
                            },
                            "cursorScale" : {
                              "type" : "double",
                              "defaultValue" : 1.0,
                              "interp" : "linr"
                            },
                            "cursorOpacity" : {
                              "type" : "double",
                              "defaultValue" : 1.0,
                              "interp" : "linr"
                            }
                          },
                          "effects" : [

                          ],
                          "start" : 8827,
                          "duration" : 618,
                          "mediaStart" : 0,
                          "mediaDuration" : 618,
                          "scalar" : 1,
                          "animationTracks" : {

                          }
                        },
                    "audio" : 
                        {
                          "id" : 138,
                          "_type" : "AMFile",
                          "src" : 20,
                          "trackNumber" : 1,
                          "attributes" : {
                            "ident" : "",
                            "sampleRate" : 44100,
                            "bitDepth" : 16,
                            "gain" : 1.0,
                            "mixToMono" : false
                          },
                            "channelNumber" : "0,1",
                          "effects" : [

                          ],
                          "start" : 8827,
                          "duration" : 618,
                          "mediaStart" : 0,
                          "mediaDuration" : 618,
                          "scalar" : 1,
                          "animationTracks" : {

                          }
                        }
,
                    "start" : 8827,
                    "duration" : 618,
                    "mediaStart" : 0,
                    "mediaDuration" : 1083,
                    "scalar" : 1,
                    "metadata" : {
                      "clipSpeedAttribute" : false,
                      "default-scale" : "0.937042",
                      "effectApplied" : "none"
                    }
                  },
                  {
                    "id" : 139,
                    "_type" : "UnifiedMedia",
                    "video" : 
                        {
                          "id" : 140,
                          "_type" : "ScreenVMFile",
                          "src" : 20,
                          "trackNumber" : 0,
                          "attributes" : {
                            "ident" : "Rec 9-29-2019 41"
                          },
                          "parameters" : {
                            "scale0" : {
                              "type" : "double",
                              "defaultValue" : 0.937042459736457,
                              "interp" : "eioe"
                            },
                            "scale1" : {
                              "type" : "double",
                              "defaultValue" : 0.937042459736457,
                              "interp" : "eioe"
                            },
                            "cursorScale" : {
                              "type" : "double",
                              "defaultValue" : 1.0,
                              "interp" : "linr"
                            },
                            "cursorOpacity" : {
                              "type" : "double",
                              "defaultValue" : 1.0,
                              "interp" : "linr"
                            }
                          },
                          "effects" : [

                          ],
                          "start" : 9445,
                          "duration" : 247,
                          "mediaStart" : 729,
                          "mediaDuration" : 247,
                          "scalar" : 1,
                          "animationTracks" : {

                          }
                        },
                    "audio" : 
                        {
                          "id" : 141,
                          "_type" : "AMFile",
                          "src" : 20,
                          "trackNumber" : 1,
                          "attributes" : {
                            "ident" : "",
                            "sampleRate" : 44100,
                            "bitDepth" : 16,
                            "gain" : 1.0,
                            "mixToMono" : false
                          },
                            "channelNumber" : "0,1",
                          "effects" : [

                          ],
                          "start" : 9445,
                          "duration" : 247,
                          "mediaStart" : 729,
                          "mediaDuration" : 247,
                          "scalar" : 1,
                          "animationTracks" : {

                          }
                        }
,
                    "start" : 9445,
                    "duration" : 247,
                    "mediaStart" : 0,
                    "mediaDuration" : 1083,
                    "scalar" : 1,
                    "metadata" : {
                      "clipSpeedAttribute" : false,
                      "default-scale" : "0.937042",
                      "effectApplied" : "none"
                    }
                  },
                  {
                    "id" : 142,
                    "_type" : "StitchedMedia",
                    "minMediaStart" : 0,
                    "attributes" : {
                      "ident" : "Rec 9-29-2019 46",
                      "gain" : 1.0,
                      "mixToMono" : false
                    },
                    "parameters" : {
                      "scale0" : 0.937042459736457,
                      "scale1" : 0.937042459736457,
                      "volume" : 1.0,
                      "cursorOpacity" : 1.0,
                      "cursorScale" : 1.0
                    },
                    "medias" : [
                        {
                          "id" : 143,
                          "_type" : "UnifiedMedia",
                          "video" : 
                              {
                                "id" : 144,
                                "_type" : "ScreenVMFile",
                                "src" : 21,
                                "trackNumber" : 0,
                                "attributes" : {
                                  "ident" : "Rec 9-29-2019 46"
                                },
                                "parameters" : {
                                  "cursorScale" : {
                                    "type" : "double",
                                    "defaultValue" : 0.0,
                                    "interp" : "linr"
                                  },
                                  "cursorOpacity" : {
                                    "type" : "double",
                                    "defaultValue" : 0.0,
                                    "interp" : "linr"
                                  }
                                },
                                "effects" : [

                                ],
                                "start" : 0,
                                "duration" : 1262,
                                "mediaStart" : 0,
                                "mediaDuration" : 1262,
                                "scalar" : 1,
                                "animationTracks" : {

                                }
                              },
                          "audio" : 
                              {
                                "id" : 145,
                                "_type" : "AMFile",
                                "src" : 21,
                                "trackNumber" : 1,
                                "attributes" : {
                                  "ident" : "",
                                  "sampleRate" : 44100,
                                  "bitDepth" : 16,
                                  "gain" : 1.0,
                                  "mixToMono" : false
                                },
                                  "channelNumber" : "0,1",
                                "effects" : [

                                ],
                                "start" : 0,
                                "duration" : 1262,
                                "mediaStart" : 0,
                                "mediaDuration" : 1262,
                                "scalar" : 1,
                                "animationTracks" : {

                                }
                              }
,
                          "start" : 0,
                          "duration" : 1262,
                          "mediaStart" : 0,
                          "mediaDuration" : 2051,
                          "scalar" : 1,
                          "metadata" : {
                            "clipSpeedAttribute" : false,
                            "default-scale" : "0.937042",
                            "effectApplied" : "none"
                          }
                        },
                        {
                          "id" : 146,
                          "_type" : "UnifiedMedia",
                          "video" : 
                              {
                                "id" : 147,
                                "_type" : "ScreenVMFile",
                                "src" : 21,
                                "trackNumber" : 0,
                                "attributes" : {
                                  "ident" : "Rec 9-29-2019 46"
                                },
                                "parameters" : {
                                  "cursorScale" : {
                                    "type" : "double",
                                    "defaultValue" : 0.0,
                                    "interp" : "linr"
                                  },
                                  "cursorOpacity" : {
                                    "type" : "double",
                                    "defaultValue" : 0.0,
                                    "interp" : "linr"
                                  }
                                },
                                "effects" : [

                                ],
                                "start" : 1262,
                                "duration" : 121,
                                "mediaStart" : 1360,
                                "mediaDuration" : 121,
                                "scalar" : 1,
                                "animationTracks" : {

                                }
                              },
                          "audio" : 
                              {
                                "id" : 148,
                                "_type" : "AMFile",
                                "src" : 21,
                                "trackNumber" : 1,
                                "attributes" : {
                                  "ident" : "",
                                  "sampleRate" : 44100,
                                  "bitDepth" : 16,
                                  "gain" : 1.0,
                                  "mixToMono" : false
                                },
                                  "channelNumber" : "0,1",
                                "effects" : [

                                ],
                                "start" : 1262,
                                "duration" : 121,
                                "mediaStart" : 1360,
                                "mediaDuration" : 121,
                                "scalar" : 1,
                                "animationTracks" : {

                                }
                              }
,
                          "start" : 1262,
                          "duration" : 121,
                          "mediaStart" : 0,
                          "mediaDuration" : 2051,
                          "scalar" : 1,
                          "metadata" : {
                            "clipSpeedAttribute" : false,
                            "default-scale" : "0.937042",
                            "effectApplied" : "none"
                          }
                        },
                        {
                          "id" : 149,
                          "_type" : "UnifiedMedia",
                          "video" : 
                              {
                                "id" : 150,
                                "_type" : "ScreenVMFile",
                                "src" : 21,
                                "trackNumber" : 0,
                                "attributes" : {
                                  "ident" : "Rec 9-29-2019 46"
                                },
                                "parameters" : {
                                  "cursorScale" : {
                                    "type" : "double",
                                    "defaultValue" : 0.0,
                                    "interp" : "linr"
                                  },
                                  "cursorOpacity" : {
                                    "type" : "double",
                                    "defaultValue" : 0.0,
                                    "interp" : "linr"
                                  }
                                },
                                "effects" : [

                                ],
                                "start" : 1383,
                                "duration" : 152,
                                "mediaStart" : 1586,
                                "mediaDuration" : 152,
                                "scalar" : 1,
                                "animationTracks" : {

                                }
                              },
                          "audio" : 
                              {
                                "id" : 151,
                                "_type" : "AMFile",
                                "src" : 21,
                                "trackNumber" : 1,
                                "attributes" : {
                                  "ident" : "",
                                  "sampleRate" : 44100,
                                  "bitDepth" : 16,
                                  "gain" : 1.0,
                                  "mixToMono" : false
                                },
                                  "channelNumber" : "0,1",
                                "effects" : [

                                ],
                                "start" : 1383,
                                "duration" : 152,
                                "mediaStart" : 1586,
                                "mediaDuration" : 152,
                                "scalar" : 1,
                                "animationTracks" : {

                                }
                              }
,
                          "start" : 1383,
                          "duration" : 152,
                          "mediaStart" : 0,
                          "mediaDuration" : 2051,
                          "scalar" : 1,
                          "metadata" : {
                            "clipSpeedAttribute" : false,
                            "default-scale" : "0.937042",
                            "effectApplied" : "none"
                          }
                        },
                        {
                          "id" : 152,
                          "_type" : "UnifiedMedia",
                          "video" : 
                              {
                                "id" : 153,
                                "_type" : "ScreenVMFile",
                                "src" : 21,
                                "trackNumber" : 0,
                                "attributes" : {
                                  "ident" : "Rec 9-29-2019 46"
                                },
                                "parameters" : {
                                  "cursorScale" : {
                                    "type" : "double",
                                    "defaultValue" : 0.0,
                                    "interp" : "linr"
                                  },
                                  "cursorOpacity" : {
                                    "type" : "double",
                                    "defaultValue" : 0.0,
                                    "interp" : "linr"
                                  }
                                },
                                "effects" : [

                                ],
                                "start" : 1535,
                                "duration" : 202,
                                "mediaStart" : 1849,
                                "mediaDuration" : 202,
                                "scalar" : 1,
                                "animationTracks" : {

                                }
                              },
                          "audio" : 
                              {
                                "id" : 154,
                                "_type" : "AMFile",
                                "src" : 21,
                                "trackNumber" : 1,
                                "attributes" : {
                                  "ident" : "",
                                  "sampleRate" : 44100,
                                  "bitDepth" : 16,
                                  "gain" : 1.0,
                                  "mixToMono" : false
                                },
                                  "channelNumber" : "0,1",
                                "effects" : [

                                ],
                                "start" : 1535,
                                "duration" : 202,
                                "mediaStart" : 1849,
                                "mediaDuration" : 202,
                                "scalar" : 1,
                                "animationTracks" : {

                                }
                              }
,
                          "start" : 1535,
                          "duration" : 202,
                          "mediaStart" : 0,
                          "mediaDuration" : 2051,
                          "scalar" : 1,
                          "metadata" : {
                            "clipSpeedAttribute" : false,
                            "default-scale" : "0.937042",
                            "effectApplied" : "none"
                          }
                        }
                    ],
                    "effects" : [

                    ],
                    "start" : 9692,
                    "duration" : 1453,
                    "mediaStart" : 247,
                    "mediaDuration" : 1453,
                    "scalar" : 1,
                    "metadata" : {
                      "clipSpeedAttribute" : false,
                      "default-scale" : "0.937042",
                      "effectApplied" : "none"
                    },
                    "animationTracks" : {

                    }
                  },
                  {
                    "id" : 155,
                    "_type" : "UnifiedMedia",
                    "video" : 
                        {
                          "id" : 156,
                          "_type" : "ScreenVMFile",
                          "src" : 24,
                          "trackNumber" : 0,
                          "attributes" : {
                            "ident" : "Rec 9-29-2019 52"
                          },
                          "parameters" : {
                            "scale0" : {
                              "type" : "double",
                              "defaultValue" : 0.937042459736457,
                              "interp" : "eioe"
                            },
                            "scale1" : {
                              "type" : "double",
                              "defaultValue" : 0.937042459736457,
                              "interp" : "eioe"
                            },
                            "cursorScale" : {
                              "type" : "double",
                              "defaultValue" : 1.0,
                              "interp" : "linr"
                            },
                            "cursorOpacity" : {
                              "type" : "double",
                              "defaultValue" : 1.0,
                              "interp" : "linr"
                            }
                          },
                          "effects" : [

                          ],
                          "start" : 11145,
                          "duration" : 1109,
                          "mediaStart" : 0,
                          "mediaDuration" : 1109,
                          "scalar" : 1,
                          "animationTracks" : {

                          }
                        },
                    "audio" : 
                        {
                          "id" : 157,
                          "_type" : "AMFile",
                          "src" : 24,
                          "trackNumber" : 1,
                          "attributes" : {
                            "ident" : "",
                            "sampleRate" : 44100,
                            "bitDepth" : 16,
                            "gain" : 1.0,
                            "mixToMono" : false
                          },
                            "channelNumber" : "0,1",
                          "effects" : [

                          ],
                          "start" : 11145,
                          "duration" : 1109,
                          "mediaStart" : 0,
                          "mediaDuration" : 1109,
                          "scalar" : 1,
                          "animationTracks" : {

                          }
                        }
,
                    "start" : 11145,
                    "duration" : 1109,
                    "mediaStart" : 0,
                    "mediaDuration" : 1206,
                    "scalar" : 1,
                    "metadata" : {
                      "clipSpeedAttribute" : false,
                      "default-scale" : "0.937042",
                      "effectApplied" : "none"
                    }
                  },
                  {
                    "id" : 158,
                    "_type" : "UnifiedMedia",
                    "video" : 
                        {
                          "id" : 159,
                          "_type" : "ScreenVMFile",
                          "src" : 25,
                          "trackNumber" : 0,
                          "attributes" : {
                            "ident" : "Rec 9-29-2019 53"
                          },
                          "parameters" : {
                            "scale0" : {
                              "type" : "double",
                              "defaultValue" : 0.937042459736457,
                              "interp" : "eioe"
                            },
                            "scale1" : {
                              "type" : "double",
                              "defaultValue" : 0.937042459736457,
                              "interp" : "eioe"
                            },
                            "cursorScale" : {
                              "type" : "double",
                              "defaultValue" : 1.0,
                              "interp" : "linr"
                            },
                            "cursorOpacity" : {
                              "type" : "double",
                              "defaultValue" : 1.0,
                              "interp" : "linr"
                            }
                          },
                          "effects" : [

                          ],
                          "start" : 12254,
                          "duration" : 65,
                          "mediaStart" : 0,
                          "mediaDuration" : 65,
                          "scalar" : 1,
                          "animationTracks" : {

                          }
                        },
                    "audio" : 
                        {
                          "id" : 160,
                          "_type" : "AMFile",
                          "src" : 25,
                          "trackNumber" : 1,
                          "attributes" : {
                            "ident" : "",
                            "sampleRate" : 44100,
                            "bitDepth" : 16,
                            "gain" : 0.0538241972790923,
                            "mixToMono" : false
                          },
                            "channelNumber" : "0,1",
                          "parameters" : {
                            "volume" : 0.527311643835616
                          },
                          "effects" : [
                              {
                                "effectName" : "NoiseReduction",
                                "category" : "categoryAudioEffects",
                                "parameters" : {
                                  "denoiserAmount" : 20.0,
                                  "denoiserThreshold" : 0.0,
                                  "noiseProfile" : "",
                                  "noiseTrainingType" : "default"
                                },
                                "leftEdgeMods" : [
                                  {
                                    "group" : "Video",
                                    "duration" : 6,
                                    "parameters" : [
                                      {
                                        "name" : "denoiserAmount",
                                          "func" : "FadeInFunc"
                                        }
                                    ]
                                  }
                                ],
                                "rightEdgeMods" : [
                                  {
                                    "group" : "Video",
                                    "duration" : 6,
                                    "parameters" : [
                                      {
                                        "name" : "denoiserAmount",
                                          "func" : "FadeOutFunc"
                                        }
                                    ]
                                  }
                                ],
                                "metadata" : {
                                  "default-gesture-easeIn" : "6",
                                  "default-gesture-easeOut" : "6",
                                  "effectIndex" : "0"
                                }
                              }
                          ],
                          "start" : 12254,
                          "duration" : 65,
                          "mediaStart" : 0,
                          "mediaDuration" : 65,
                          "scalar" : 1,
                          "animationTracks" : {

                          }
                        }
,
                    "start" : 12254,
                    "duration" : 65,
                    "mediaStart" : 0,
                    "mediaDuration" : 1717,
                    "scalar" : 1,
                    "metadata" : {
                      "clipSpeedAttribute" : false,
                      "default-scale" : "0.937042",
                      "effectApplied" : "NoiseReduction"
                    }
                  },
                  {
                    "id" : 161,
                    "_type" : "StitchedMedia",
                    "minMediaStart" : 0,
                    "attributes" : {
                      "ident" : "Rec 9-29-2019 53",
                      "gain" : 1.0,
                      "mixToMono" : false
                    },
                    "parameters" : {
                      "scale0" : 0.937042459736457,
                      "scale1" : 0.937042459736457,
                      "volume" : 1.0,
                      "cursorOpacity" : 1.0,
                      "cursorScale" : 1.0
                    },
                    "medias" : [
                        {
                          "id" : 162,
                          "_type" : "UnifiedMedia",
                          "video" : 
                              {
                                "id" : 163,
                                "_type" : "ScreenVMFile",
                                "src" : 25,
                                "trackNumber" : 0,
                                "attributes" : {
                                  "ident" : "Rec 9-29-2019 53"
                                },
                                "parameters" : {
                                  "cursorScale" : {
                                    "type" : "double",
                                    "defaultValue" : 0.0,
                                    "interp" : "linr"
                                  },
                                  "cursorOpacity" : {
                                    "type" : "double",
                                    "defaultValue" : 0.0,
                                    "interp" : "linr"
                                  }
                                },
                                "effects" : [

                                ],
                                "start" : 0,
                                "duration" : 467,
                                "mediaStart" : 0,
                                "mediaDuration" : 467,
                                "scalar" : 1,
                                "animationTracks" : {

                                }
                              },
                          "audio" : 
                              {
                                "id" : 164,
                                "_type" : "AMFile",
                                "src" : 25,
                                "trackNumber" : 1,
                                "attributes" : {
                                  "ident" : "",
                                  "sampleRate" : 44100,
                                  "bitDepth" : 16,
                                  "gain" : 1.0,
                                  "mixToMono" : false
                                },
                                  "channelNumber" : "0,1",
                                "effects" : [

                                ],
                                "start" : 0,
                                "duration" : 467,
                                "mediaStart" : 0,
                                "mediaDuration" : 467,
                                "scalar" : 1,
                                "animationTracks" : {

                                }
                              }
,
                          "start" : 0,
                          "duration" : 467,
                          "mediaStart" : 0,
                          "mediaDuration" : 1717,
                          "scalar" : 1,
                          "metadata" : {
                            "clipSpeedAttribute" : false,
                            "default-scale" : "0.937042",
                            "effectApplied" : "none"
                          }
                        },
                        {
                          "id" : 165,
                          "_type" : "UnifiedMedia",
                          "video" : 
                              {
                                "id" : 166,
                                "_type" : "ScreenVMFile",
                                "src" : 25,
                                "trackNumber" : 0,
                                "attributes" : {
                                  "ident" : "Rec 9-29-2019 53"
                                },
                                "parameters" : {
                                  "cursorScale" : {
                                    "type" : "double",
                                    "defaultValue" : 0.0,
                                    "interp" : "linr"
                                  },
                                  "cursorOpacity" : {
                                    "type" : "double",
                                    "defaultValue" : 0.0,
                                    "interp" : "linr"
                                  }
                                },
                                "effects" : [

                                ],
                                "start" : 467,
                                "duration" : 1101,
                                "mediaStart" : 616,
                                "mediaDuration" : 1101,
                                "scalar" : 1,
                                "animationTracks" : {

                                }
                              },
                          "audio" : 
                              {
                                "id" : 167,
                                "_type" : "AMFile",
                                "src" : 25,
                                "trackNumber" : 1,
                                "attributes" : {
                                  "ident" : "",
                                  "sampleRate" : 44100,
                                  "bitDepth" : 16,
                                  "gain" : 1.0,
                                  "mixToMono" : false
                                },
                                  "channelNumber" : "0,1",
                                "effects" : [

                                ],
                                "start" : 467,
                                "duration" : 1101,
                                "mediaStart" : 616,
                                "mediaDuration" : 1101,
                                "scalar" : 1,
                                "animationTracks" : {

                                }
                              }
,
                          "start" : 467,
                          "duration" : 1101,
                          "mediaStart" : 0,
                          "mediaDuration" : 1717,
                          "scalar" : 1,
                          "metadata" : {
                            "clipSpeedAttribute" : false,
                            "default-scale" : "0.937042",
                            "effectApplied" : "none"
                          }
                        }
                    ],
                    "effects" : [

                    ],
                    "start" : 12319,
                    "duration" : 1228,
                    "mediaStart" : 65,
                    "mediaDuration" : 1228,
                    "scalar" : 1,
                    "metadata" : {
                      "clipSpeedAttribute" : false,
                      "default-scale" : "0.937042",
                      "effectApplied" : "none"
                    },
                    "animationTracks" : {

                    }
                  },
                  {
                    "id" : 168,
                    "_type" : "UnifiedMedia",
                    "video" : 
                        {
                          "id" : 169,
                          "_type" : "ScreenVMFile",
                          "src" : 26,
                          "trackNumber" : 0,
                          "attributes" : {
                            "ident" : "Rec 9-29-2019 54"
                          },
                          "parameters" : {
                            "scale0" : {
                              "type" : "double",
                              "defaultValue" : 0.937042459736457,
                              "interp" : "eioe"
                            },
                            "scale1" : {
                              "type" : "double",
                              "defaultValue" : 0.937042459736457,
                              "interp" : "eioe"
                            },
                            "cursorScale" : {
                              "type" : "double",
                              "defaultValue" : 1.0,
                              "interp" : "linr"
                            },
                            "cursorOpacity" : {
                              "type" : "double",
                              "defaultValue" : 1.0,
                              "interp" : "linr"
                            }
                          },
                          "effects" : [

                          ],
                          "start" : 13547,
                          "duration" : 1032,
                          "mediaStart" : 90,
                          "mediaDuration" : 1032,
                          "scalar" : 1,
                          "animationTracks" : {

                          }
                        },
                    "audio" : 
                        {
                          "id" : 170,
                          "_type" : "AMFile",
                          "src" : 26,
                          "trackNumber" : 1,
                          "attributes" : {
                            "ident" : "",
                            "sampleRate" : 44100,
                            "bitDepth" : 16,
                            "gain" : 1.0,
                            "mixToMono" : false
                          },
                            "channelNumber" : "0,1",
                          "effects" : [

                          ],
                          "start" : 13547,
                          "duration" : 1032,
                          "mediaStart" : 90,
                          "mediaDuration" : 1032,
                          "scalar" : 1,
                          "animationTracks" : {

                          }
                        }
,
                    "start" : 13547,
                    "duration" : 1032,
                    "mediaStart" : 0,
                    "mediaDuration" : 1255,
                    "scalar" : 1,
                    "metadata" : {
                      "clipSpeedAttribute" : false,
                      "default-scale" : "0.937042",
                      "effectApplied" : "none"
                    }
                  },
                  {
                    "id" : 171,
                    "_type" : "UnifiedMedia",
                    "video" : 
                        {
                          "id" : 172,
                          "_type" : "ScreenVMFile",
                          "src" : 27,
                          "trackNumber" : 0,
                          "attributes" : {
                            "ident" : "Rec 9-29-2019 55"
                          },
                          "parameters" : {
                            "scale0" : {
                              "type" : "double",
                              "defaultValue" : 0.937042459736457,
                              "interp" : "eioe"
                            },
                            "scale1" : {
                              "type" : "double",
                              "defaultValue" : 0.937042459736457,
                              "interp" : "eioe"
                            },
                            "cursorScale" : {
                              "type" : "double",
                              "defaultValue" : 1.0,
                              "interp" : "linr"
                            },
                            "cursorOpacity" : {
                              "type" : "double",
                              "defaultValue" : 1.0,
                              "interp" : "linr"
                            }
                          },
                          "effects" : [

                          ],
                          "start" : 14579,
                          "duration" : 1316,
                          "mediaStart" : 0,
                          "mediaDuration" : 1316,
                          "scalar" : 1,
                          "animationTracks" : {

                          }
                        },
                    "audio" : 
                        {
                          "id" : 173,
                          "_type" : "AMFile",
                          "src" : 27,
                          "trackNumber" : 1,
                          "attributes" : {
                            "ident" : "",
                            "sampleRate" : 44100,
                            "bitDepth" : 16,
                            "gain" : 1.0,
                            "mixToMono" : false
                          },
                            "channelNumber" : "0,1",
                          "effects" : [

                          ],
                          "start" : 14579,
                          "duration" : 1316,
                          "mediaStart" : 0,
                          "mediaDuration" : 1316,
                          "scalar" : 1,
                          "animationTracks" : {

                          }
                        }
,
                    "start" : 14579,
                    "duration" : 1316,
                    "mediaStart" : 0,
                    "mediaDuration" : 1398,
                    "scalar" : 1,
                    "metadata" : {
                      "clipSpeedAttribute" : false,
                      "default-scale" : "0.937042",
                      "effectApplied" : "none"
                    }
                  },
                  {
                    "id" : 174,
                    "_type" : "UnifiedMedia",
                    "video" : 
                        {
                          "id" : 175,
                          "_type" : "ScreenVMFile",
                          "src" : 28,
                          "trackNumber" : 0,
                          "attributes" : {
                            "ident" : "Rec 9-29-2019 56"
                          },
                          "parameters" : {
                            "scale0" : {
                              "type" : "double",
                              "defaultValue" : 0.937042459736457,
                              "interp" : "eioe"
                            },
                            "scale1" : {
                              "type" : "double",
                              "defaultValue" : 0.937042459736457,
                              "interp" : "eioe"
                            },
                            "cursorScale" : {
                              "type" : "double",
                              "defaultValue" : 1.0,
                              "interp" : "linr"
                            },
                            "cursorOpacity" : {
                              "type" : "double",
                              "defaultValue" : 1.0,
                              "interp" : "linr"
                            }
                          },
                          "effects" : [

                          ],
                          "start" : 15895,
                          "duration" : 747,
                          "mediaStart" : 0,
                          "mediaDuration" : 747,
                          "scalar" : 1,
                          "animationTracks" : {

                          }
                        },
                    "audio" : 
                        {
                          "id" : 176,
                          "_type" : "AMFile",
                          "src" : 28,
                          "trackNumber" : 1,
                          "attributes" : {
                            "ident" : "",
                            "sampleRate" : 44100,
                            "bitDepth" : 16,
                            "gain" : 1.0,
                            "mixToMono" : false
                          },
                            "channelNumber" : "0,1",
                          "effects" : [

                          ],
                          "start" : 15895,
                          "duration" : 747,
                          "mediaStart" : 0,
                          "mediaDuration" : 747,
                          "scalar" : 1,
                          "animationTracks" : {

                          }
                        }
,
                    "start" : 15895,
                    "duration" : 747,
                    "mediaStart" : 0,
                    "mediaDuration" : 1228,
                    "scalar" : 1,
                    "metadata" : {
                      "clipSpeedAttribute" : false,
                      "default-scale" : "0.937042",
                      "effectApplied" : "none"
                    }
                  },
                  {
                    "id" : 177,
                    "_type" : "UnifiedMedia",
                    "video" : 
                        {
                          "id" : 178,
                          "_type" : "ScreenVMFile",
                          "src" : 29,
                          "trackNumber" : 0,
                          "attributes" : {
                            "ident" : "Rec 9-29-2019 57"
                          },
                          "parameters" : {
                            "scale0" : {
                              "type" : "double",
                              "defaultValue" : 0.937042459736457,
                              "interp" : "eioe"
                            },
                            "scale1" : {
                              "type" : "double",
                              "defaultValue" : 0.937042459736457,
                              "interp" : "eioe"
                            },
                            "cursorScale" : {
                              "type" : "double",
                              "defaultValue" : 1.0,
                              "interp" : "linr"
                            },
                            "cursorOpacity" : {
                              "type" : "double",
                              "defaultValue" : 1.0,
                              "interp" : "linr"
                            }
                          },
                          "effects" : [

                          ],
                          "start" : 16642,
                          "duration" : 1064,
                          "mediaStart" : 0,
                          "mediaDuration" : 1064,
                          "scalar" : 1,
                          "animationTracks" : {

                          }
                        },
                    "audio" : 
                        {
                          "id" : 179,
                          "_type" : "AMFile",
                          "src" : 29,
                          "trackNumber" : 1,
                          "attributes" : {
                            "ident" : "",
                            "sampleRate" : 44100,
                            "bitDepth" : 16,
                            "gain" : 1.0,
                            "mixToMono" : false
                          },
                            "channelNumber" : "0,1",
                          "effects" : [

                          ],
                          "start" : 16642,
                          "duration" : 1064,
                          "mediaStart" : 0,
                          "mediaDuration" : 1064,
                          "scalar" : 1,
                          "animationTracks" : {

                          }
                        }
,
                    "start" : 16642,
                    "duration" : 1064,
                    "mediaStart" : 0,
                    "mediaDuration" : 1199,
                    "scalar" : 1,
                    "metadata" : {
                      "clipSpeedAttribute" : false,
                      "default-scale" : "0.937042",
                      "effectApplied" : "none"
                    }
                  },
                  {
                    "id" : 180,
                    "_type" : "StitchedMedia",
                    "minMediaStart" : 0,
                    "attributes" : {
                      "ident" : "Rec 9-29-2019 58",
                      "gain" : 1.0,
                      "mixToMono" : false
                    },
                    "parameters" : {
                      "scale0" : 0.937042459736457,
                      "scale1" : 0.937042459736457,
                      "volume" : 1.0,
                      "cursorOpacity" : 1.0,
                      "cursorScale" : 1.0
                    },
                    "medias" : [
                        {
                          "id" : 181,
                          "_type" : "UnifiedMedia",
                          "video" : 
                              {
                                "id" : 182,
                                "_type" : "ScreenVMFile",
                                "src" : 30,
                                "trackNumber" : 0,
                                "attributes" : {
                                  "ident" : "Rec 9-29-2019 58"
                                },
                                "parameters" : {
                                  "cursorScale" : {
                                    "type" : "double",
                                    "defaultValue" : 0.0,
                                    "interp" : "linr"
                                  },
                                  "cursorOpacity" : {
                                    "type" : "double",
                                    "defaultValue" : 0.0,
                                    "interp" : "linr"
                                  }
                                },
                                "effects" : [

                                ],
                                "start" : 0,
                                "duration" : 761,
                                "mediaStart" : 0,
                                "mediaDuration" : 761,
                                "scalar" : 1,
                                "animationTracks" : {

                                }
                              },
                          "audio" : 
                              {
                                "id" : 183,
                                "_type" : "AMFile",
                                "src" : 30,
                                "trackNumber" : 1,
                                "attributes" : {
                                  "ident" : "",
                                  "sampleRate" : 44100,
                                  "bitDepth" : 16,
                                  "gain" : 1.0,
                                  "mixToMono" : false
                                },
                                  "channelNumber" : "0,1",
                                "effects" : [

                                ],
                                "start" : 0,
                                "duration" : 761,
                                "mediaStart" : 0,
                                "mediaDuration" : 761,
                                "scalar" : 1,
                                "animationTracks" : {

                                }
                              }
,
                          "start" : 0,
                          "duration" : 761,
                          "mediaStart" : 0,
                          "mediaDuration" : 1321,
                          "scalar" : 1,
                          "metadata" : {
                            "clipSpeedAttribute" : false,
                            "default-scale" : "0.937042",
                            "effectApplied" : "none"
                          }
                        },
                        {
                          "id" : 184,
                          "_type" : "UnifiedMedia",
                          "video" : 
                              {
                                "id" : 185,
                                "_type" : "ScreenVMFile",
                                "src" : 30,
                                "trackNumber" : 0,
                                "attributes" : {
                                  "ident" : "Rec 9-29-2019 58"
                                },
                                "parameters" : {
                                  "cursorScale" : {
                                    "type" : "double",
                                    "defaultValue" : 0.0,
                                    "interp" : "linr"
                                  },
                                  "cursorOpacity" : {
                                    "type" : "double",
                                    "defaultValue" : 0.0,
                                    "interp" : "linr"
                                  }
                                },
                                "effects" : [

                                ],
                                "start" : 761,
                                "duration" : 487,
                                "mediaStart" : 834,
                                "mediaDuration" : 487,
                                "scalar" : 1,
                                "animationTracks" : {

                                }
                              },
                          "audio" : 
                              {
                                "id" : 186,
                                "_type" : "AMFile",
                                "src" : 30,
                                "trackNumber" : 1,
                                "attributes" : {
                                  "ident" : "",
                                  "sampleRate" : 44100,
                                  "bitDepth" : 16,
                                  "gain" : 1.0,
                                  "mixToMono" : false
                                },
                                  "channelNumber" : "0,1",
                                "effects" : [

                                ],
                                "start" : 761,
                                "duration" : 487,
                                "mediaStart" : 834,
                                "mediaDuration" : 487,
                                "scalar" : 1,
                                "animationTracks" : {

                                }
                              }
,
                          "start" : 761,
                          "duration" : 487,
                          "mediaStart" : 0,
                          "mediaDuration" : 1321,
                          "scalar" : 1,
                          "metadata" : {
                            "clipSpeedAttribute" : false,
                            "default-scale" : "0.937042",
                            "effectApplied" : "none"
                          }
                        }
                    ],
                    "effects" : [

                    ],
                    "start" : 17706,
                    "duration" : 1015,
                    "mediaStart" : 148,
                    "mediaDuration" : 1015,
                    "scalar" : 1,
                    "metadata" : {
                      "clipSpeedAttribute" : false,
                      "default-scale" : "0.937042",
                      "effectApplied" : "none"
                    },
                    "animationTracks" : {

                    }
                  },
                  {
                    "id" : 187,
                    "_type" : "StitchedMedia",
                    "minMediaStart" : 0,
                    "attributes" : {
                      "ident" : "Rec 9-29-2019 60",
                      "gain" : 1.0,
                      "mixToMono" : false
                    },
                    "parameters" : {
                      "scale0" : 0.937042459736457,
                      "scale1" : 0.937042459736457,
                      "volume" : 1.0,
                      "cursorOpacity" : 1.0,
                      "cursorScale" : 1.0
                    },
                    "medias" : [
                        {
                          "id" : 188,
                          "_type" : "UnifiedMedia",
                          "video" : 
                              {
                                "id" : 189,
                                "_type" : "ScreenVMFile",
                                "src" : 31,
                                "trackNumber" : 0,
                                "attributes" : {
                                  "ident" : "Rec 9-29-2019 60"
                                },
                                "parameters" : {
                                  "cursorScale" : {
                                    "type" : "double",
                                    "defaultValue" : 0.0,
                                    "interp" : "linr"
                                  },
                                  "cursorOpacity" : {
                                    "type" : "double",
                                    "defaultValue" : 0.0,
                                    "interp" : "linr"
                                  }
                                },
                                "effects" : [

                                ],
                                "start" : 0,
                                "duration" : 1446,
                                "mediaStart" : 0,
                                "mediaDuration" : 1446,
                                "scalar" : 1,
                                "animationTracks" : {

                                }
                              },
                          "audio" : 
                              {
                                "id" : 190,
                                "_type" : "AMFile",
                                "src" : 31,
                                "trackNumber" : 1,
                                "attributes" : {
                                  "ident" : "",
                                  "sampleRate" : 44100,
                                  "bitDepth" : 16,
                                  "gain" : 1.0,
                                  "mixToMono" : false
                                },
                                  "channelNumber" : "0,1",
                                "effects" : [

                                ],
                                "start" : 0,
                                "duration" : 1446,
                                "mediaStart" : 0,
                                "mediaDuration" : 1446,
                                "scalar" : 1,
                                "animationTracks" : {

                                }
                              }
,
                          "start" : 0,
                          "duration" : 1446,
                          "mediaStart" : 0,
                          "mediaDuration" : 3857,
                          "scalar" : 1,
                          "metadata" : {
                            "clipSpeedAttribute" : false,
                            "default-scale" : "0.937042",
                            "effectApplied" : "none"
                          }
                        },
                        {
                          "id" : 191,
                          "_type" : "UnifiedMedia",
                          "video" : 
                              {
                                "id" : 192,
                                "_type" : "ScreenVMFile",
                                "src" : 31,
                                "trackNumber" : 0,
                                "attributes" : {
                                  "ident" : "Rec 9-29-2019 60"
                                },
                                "parameters" : {
                                  "cursorScale" : {
                                    "type" : "double",
                                    "defaultValue" : 0.0,
                                    "interp" : "linr"
                                  },
                                  "cursorOpacity" : {
                                    "type" : "double",
                                    "defaultValue" : 0.0,
                                    "interp" : "linr"
                                  }
                                },
                                "effects" : [

                                ],
                                "start" : 1446,
                                "duration" : 157,
                                "mediaStart" : 1667,
                                "mediaDuration" : 157,
                                "scalar" : 1,
                                "animationTracks" : {

                                }
                              },
                          "audio" : 
                              {
                                "id" : 193,
                                "_type" : "AMFile",
                                "src" : 31,
                                "trackNumber" : 1,
                                "attributes" : {
                                  "ident" : "",
                                  "sampleRate" : 44100,
                                  "bitDepth" : 16,
                                  "gain" : 1.0,
                                  "mixToMono" : false
                                },
                                  "channelNumber" : "0,1",
                                "effects" : [

                                ],
                                "start" : 1446,
                                "duration" : 157,
                                "mediaStart" : 1667,
                                "mediaDuration" : 157,
                                "scalar" : 1,
                                "animationTracks" : {

                                }
                              }
,
                          "start" : 1446,
                          "duration" : 157,
                          "mediaStart" : 0,
                          "mediaDuration" : 3857,
                          "scalar" : 1,
                          "metadata" : {
                            "clipSpeedAttribute" : false,
                            "default-scale" : "0.937042",
                            "effectApplied" : "none"
                          }
                        },
                        {
                          "id" : 194,
                          "_type" : "UnifiedMedia",
                          "video" : 
                              {
                                "id" : 195,
                                "_type" : "ScreenVMFile",
                                "src" : 31,
                                "trackNumber" : 0,
                                "attributes" : {
                                  "ident" : "Rec 9-29-2019 60"
                                },
                                "parameters" : {
                                  "cursorScale" : {
                                    "type" : "double",
                                    "defaultValue" : 0.0,
                                    "interp" : "linr"
                                  },
                                  "cursorOpacity" : {
                                    "type" : "double",
                                    "defaultValue" : 0.0,
                                    "interp" : "linr"
                                  }
                                },
                                "effects" : [

                                ],
                                "start" : 1603,
                                "duration" : 10,
                                "mediaStart" : 1941,
                                "mediaDuration" : 10,
                                "scalar" : 1,
                                "animationTracks" : {

                                }
                              },
                          "audio" : 
                              {
                                "id" : 196,
                                "_type" : "AMFile",
                                "src" : 31,
                                "trackNumber" : 1,
                                "attributes" : {
                                  "ident" : "",
                                  "sampleRate" : 44100,
                                  "bitDepth" : 16,
                                  "gain" : 1.0,
                                  "mixToMono" : false
                                },
                                  "channelNumber" : "0,1",
                                "effects" : [

                                ],
                                "start" : 1603,
                                "duration" : 10,
                                "mediaStart" : 1941,
                                "mediaDuration" : 10,
                                "scalar" : 1,
                                "animationTracks" : {

                                }
                              }
,
                          "start" : 1603,
                          "duration" : 10,
                          "mediaStart" : 0,
                          "mediaDuration" : 3857,
                          "scalar" : 1,
                          "metadata" : {
                            "clipSpeedAttribute" : false,
                            "default-scale" : "0.937042",
                            "effectApplied" : "none"
                          }
                        },
                        {
                          "id" : 197,
                          "_type" : "UnifiedMedia",
                          "video" : 
                              {
                                "id" : 198,
                                "_type" : "ScreenVMFile",
                                "src" : 31,
                                "trackNumber" : 0,
                                "attributes" : {
                                  "ident" : "Rec 9-29-2019 60"
                                },
                                "parameters" : {
                                  "cursorScale" : {
                                    "type" : "double",
                                    "defaultValue" : 0.0,
                                    "interp" : "linr"
                                  },
                                  "cursorOpacity" : {
                                    "type" : "double",
                                    "defaultValue" : 0.0,
                                    "interp" : "linr"
                                  }
                                },
                                "effects" : [

                                ],
                                "start" : 1613,
                                "duration" : 340,
                                "mediaStart" : 2305,
                                "mediaDuration" : 340,
                                "scalar" : 1,
                                "animationTracks" : {

                                }
                              },
                          "audio" : 
                              {
                                "id" : 199,
                                "_type" : "AMFile",
                                "src" : 31,
                                "trackNumber" : 1,
                                "attributes" : {
                                  "ident" : "",
                                  "sampleRate" : 44100,
                                  "bitDepth" : 16,
                                  "gain" : 1.0,
                                  "mixToMono" : false
                                },
                                  "channelNumber" : "0,1",
                                "effects" : [

                                ],
                                "start" : 1613,
                                "duration" : 340,
                                "mediaStart" : 2305,
                                "mediaDuration" : 340,
                                "scalar" : 1,
                                "animationTracks" : {

                                }
                              }
,
                          "start" : 1613,
                          "duration" : 340,
                          "mediaStart" : 0,
                          "mediaDuration" : 3857,
                          "scalar" : 1,
                          "metadata" : {
                            "clipSpeedAttribute" : false,
                            "default-scale" : "0.937042",
                            "effectApplied" : "none"
                          }
                        },
                        {
                          "id" : 200,
                          "_type" : "UnifiedMedia",
                          "video" : 
                              {
                                "id" : 201,
                                "_type" : "ScreenVMFile",
                                "src" : 31,
                                "trackNumber" : 0,
                                "attributes" : {
                                  "ident" : "Rec 9-29-2019 60"
                                },
                                "parameters" : {
                                  "cursorScale" : {
                                    "type" : "double",
                                    "defaultValue" : 0.0,
                                    "interp" : "linr"
                                  },
                                  "cursorOpacity" : {
                                    "type" : "double",
                                    "defaultValue" : 0.0,
                                    "interp" : "linr"
                                  }
                                },
                                "effects" : [

                                ],
                                "start" : 1953,
                                "duration" : 1024,
                                "mediaStart" : 2833,
                                "mediaDuration" : 1024,
                                "scalar" : 1,
                                "animationTracks" : {

                                }
                              },
                          "audio" : 
                              {
                                "id" : 202,
                                "_type" : "AMFile",
                                "src" : 31,
                                "trackNumber" : 1,
                                "attributes" : {
                                  "ident" : "",
                                  "sampleRate" : 44100,
                                  "bitDepth" : 16,
                                  "gain" : 1.0,
                                  "mixToMono" : false
                                },
                                  "channelNumber" : "0,1",
                                "effects" : [

                                ],
                                "start" : 1953,
                                "duration" : 1024,
                                "mediaStart" : 2833,
                                "mediaDuration" : 1024,
                                "scalar" : 1,
                                "animationTracks" : {

                                }
                              }
,
                          "start" : 1953,
                          "duration" : 1024,
                          "mediaStart" : 0,
                          "mediaDuration" : 3857,
                          "scalar" : 1,
                          "metadata" : {
                            "clipSpeedAttribute" : false,
                            "default-scale" : "0.937042",
                            "effectApplied" : "none"
                          }
                        }
                    ],
                    "effects" : [

                    ],
                    "start" : 18721,
                    "duration" : 2844,
                    "mediaStart" : 0,
                    "mediaDuration" : 2844,
                    "scalar" : 1,
                    "metadata" : {
                      "clipSpeedAttribute" : false,
                      "default-scale" : "0.937042",
                      "effectApplied" : "none"
                    },
                    "animationTracks" : {

                    }
                  },
                  {
                    "id" : 203,
                    "_type" : "UnifiedMedia",
                    "video" : 
                        {
                          "id" : 204,
                          "_type" : "ScreenVMFile",
                          "src" : 32,
                          "trackNumber" : 0,
                          "attributes" : {
                            "ident" : "Rec 9-29-2019 61"
                          },
                          "parameters" : {
                            "scale0" : {
                              "type" : "double",
                              "defaultValue" : 0.937042459736457,
                              "interp" : "eioe"
                            },
                            "scale1" : {
                              "type" : "double",
                              "defaultValue" : 0.937042459736457,
                              "interp" : "eioe"
                            },
                            "cursorScale" : {
                              "type" : "double",
                              "defaultValue" : 1.0,
                              "interp" : "linr"
                            },
                            "cursorOpacity" : {
                              "type" : "double",
                              "defaultValue" : 1.0,
                              "interp" : "linr"
                            }
                          },
                          "effects" : [

                          ],
                          "start" : 21565,
                          "duration" : 1410,
                          "mediaStart" : 0,
                          "mediaDuration" : 1410,
                          "scalar" : 1,
                          "animationTracks" : {

                          }
                        },
                    "audio" : 
                        {
                          "id" : 205,
                          "_type" : "AMFile",
                          "src" : 32,
                          "trackNumber" : 1,
                          "attributes" : {
                            "ident" : "",
                            "sampleRate" : 44100,
                            "bitDepth" : 16,
                            "gain" : 1.0,
                            "mixToMono" : false
                          },
                            "channelNumber" : "0,1",
                          "effects" : [

                          ],
                          "start" : 21565,
                          "duration" : 1410,
                          "mediaStart" : 0,
                          "mediaDuration" : 1410,
                          "scalar" : 1,
                          "animationTracks" : {

                          }
                        }
,
                    "start" : 21565,
                    "duration" : 1410,
                    "mediaStart" : 0,
                    "mediaDuration" : 1518,
                    "scalar" : 1,
                    "metadata" : {
                      "clipSpeedAttribute" : false,
                      "default-scale" : "0.937042",
                      "effectApplied" : "none"
                    }
                  },
                  {
                    "id" : 206,
                    "_type" : "UnifiedMedia",
                    "video" : 
                        {
                          "id" : 207,
                          "_type" : "ScreenVMFile",
                          "src" : 33,
                          "trackNumber" : 0,
                          "attributes" : {
                            "ident" : "Rec 9-29-2019 63"
                          },
                          "parameters" : {
                            "scale0" : {
                              "type" : "double",
                              "defaultValue" : 0.937042459736457,
                              "interp" : "eioe"
                            },
                            "scale1" : {
                              "type" : "double",
                              "defaultValue" : 0.937042459736457,
                              "interp" : "eioe"
                            },
                            "cursorScale" : {
                              "type" : "double",
                              "defaultValue" : 1.0,
                              "interp" : "linr"
                            },
                            "cursorOpacity" : {
                              "type" : "double",
                              "defaultValue" : 1.0,
                              "interp" : "linr"
                            }
                          },
                          "effects" : [

                          ],
                          "start" : 22975,
                          "duration" : 1152,
                          "mediaStart" : 148,
                          "mediaDuration" : 1152,
                          "scalar" : 1,
                          "animationTracks" : {

                          }
                        },
                    "audio" : 
                        {
                          "id" : 208,
                          "_type" : "AMFile",
                          "src" : 33,
                          "trackNumber" : 1,
                          "attributes" : {
                            "ident" : "",
                            "sampleRate" : 44100,
                            "bitDepth" : 16,
                            "gain" : 1.0,
                            "mixToMono" : false
                          },
                            "channelNumber" : "0,1",
                          "parameters" : {
                            "volume" : {
                              "type" : "double",
                              "keyframes" : [
                                {
                                  "endTime" : 0,
                                  "time" : 0,
                                  "value" : 1.0,
                                  "duration" : 0
                                },
                                {
                                  "endTime" : 1062,
                                  "time" : 1062,
                                  "value" : 1.0,
                                  "duration" : 0
                                },
                                {
                                  "endTime" : 1063,
                                  "time" : 1063,
                                  "value" : 0.0,
                                  "duration" : 0
                                },
                                {
                                  "endTime" : 1479,
                                  "time" : 1479,
                                  "value" : 0.0,
                                  "duration" : 0
                                },
                                {
                                  "endTime" : 1480,
                                  "time" : 1480,
                                  "value" : 1.0,
                                  "duration" : 0
                                }
                              ]
                            }
                          },
                          "effects" : [

                          ],
                          "start" : 22975,
                          "duration" : 1152,
                          "mediaStart" : 148,
                          "mediaDuration" : 1152,
                          "scalar" : 1,
                          "animationTracks" : {

                          }
                        }
,
                    "start" : 22975,
                    "duration" : 1152,
                    "mediaStart" : 0,
                    "mediaDuration" : 1479,
                    "scalar" : 1,
                    "metadata" : {
                      "clipSpeedAttribute" : false,
                      "default-scale" : "0.937042",
                      "effectApplied" : "none"
                    }
                  }
                ],
                "transitions" : [
                  {
                    "name" : "FadeThroughBlack",
                    "duration" : 30,
                    "trivial" : false,
                    "reverse" : false,
                    "useAudioPreRoll" : false,
                    "useVisualPreRoll" : true,
                    "leftMedia" : 97,
                    "rightMedia" : 100
                  },
                  {
                    "name" : "FadeThroughBlack",
                    "duration" : 30,
                    "trivial" : false,
                    "reverse" : false,
                    "useAudioPreRoll" : false,
                    "useVisualPreRoll" : true,
                    "leftMedia" : 120,
                    "rightMedia" : 130
                  },
                  {
                    "name" : "FadeThroughBlack",
                    "duration" : 20,
                    "trivial" : false,
                    "reverse" : false,
                    "useAudioPreRoll" : false,
                    "useVisualPreRoll" : true,
                    "leftMedia" : 139,
                    "rightMedia" : 142
                  },
                  {
                    "name" : "FadeThroughBlack",
                    "duration" : 30,
                    "trivial" : false,
                    "reverse" : false,
                    "useAudioPreRoll" : false,
                    "useVisualPreRoll" : true,
                    "leftMedia" : 142,
                    "rightMedia" : 155
                  },
                  {
                    "name" : "FadeThroughBlack",
                    "duration" : 30,
                    "trivial" : false,
                    "reverse" : false,
                    "useAudioPreRoll" : false,
                    "useVisualPreRoll" : true,
                    "leftMedia" : 155,
                    "rightMedia" : 158
                  },
                  {
                    "name" : "FadeThroughBlack",
                    "duration" : 30,
                    "trivial" : false,
                    "reverse" : false,
                    "useAudioPreRoll" : false,
                    "useVisualPreRoll" : true,
                    "leftMedia" : 168,
                    "rightMedia" : 171
                  },
                  {
                    "name" : "FadeThroughBlack",
                    "duration" : 30,
                    "trivial" : false,
                    "reverse" : false,
                    "useAudioPreRoll" : false,
                    "useVisualPreRoll" : true,
                    "leftMedia" : 171,
                    "rightMedia" : 174
                  },
                  {
                    "name" : "FadeThroughBlack",
                    "duration" : 30,
                    "trivial" : false,
                    "reverse" : false,
                    "useAudioPreRoll" : false,
                    "useVisualPreRoll" : true,
                    "leftMedia" : 174,
                    "rightMedia" : 177
                  },
                  {
                    "name" : "FadeThroughBlack",
                    "duration" : 30,
                    "trivial" : false,
                    "reverse" : false,
                    "useAudioPreRoll" : false,
                    "useVisualPreRoll" : true,
                    "leftMedia" : 177,
                    "rightMedia" : 180
                  },
                  {
                    "name" : "FadeThroughBlack",
                    "duration" : 30,
                    "trivial" : false,
                    "reverse" : false,
                    "useAudioPreRoll" : false,
                    "useVisualPreRoll" : true,
                    "leftMedia" : 180
                  },
                  {
                    "name" : "FadeThroughBlack",
                    "duration" : 30,
                    "trivial" : false,
                    "reverse" : false,
                    "useAudioPreRoll" : false,
                    "useVisualPreRoll" : true,
                    "rightMedia" : 187
                  },
                  {
                    "name" : "FadeThroughBlack",
                    "duration" : 30,
                    "trivial" : false,
                    "reverse" : false,
                    "useAudioPreRoll" : false,
                    "useVisualPreRoll" : true,
                    "leftMedia" : 187,
                    "rightMedia" : 203
                  },
                  {
                    "name" : "FadeThroughBlack",
                    "duration" : 30,
                    "trivial" : false,
                    "reverse" : false,
                    "useAudioPreRoll" : false,
                    "useVisualPreRoll" : true,
                    "leftMedia" : 206
                  }
                ]
              },
              {
                "trackIndex" : 1,
                "medias" : [
                  {
                    "id" : 209,
                    "_type" : "Callout",
                    "def" : {
                      "kind" : "remix",
                      "shape" : "shape-rectangle",
                      "style" : "basic",
                      "fill-color-blue" : 0.0,
                      "fill-color-green" : 0.0,
                      "fill-color-opacity" : 0.0,
                      "fill-color-red" : 0.0,
                      "height" : 48.4140155883794,
                      "stroke-color-blue" : 0.109803921568627,
                      "stroke-color-green" : 0.686274509803922,
                      "stroke-color-opacity" : 1.0,
                      "stroke-color-red" : 0.92156862745098,
                      "stroke-width" : 6.0,
                      "width" : 170.462875366211,
                      "fill-style" : "solid",
                      "stroke-style" : "solid"
                    },
                    "attributes" : {
                      "autoRotateText" : true
                    },
                    "parameters" : {
                      "translation0" : -451.024330468747,
                      "translation1" : 301.023188541662
                    },
                    "effects" : [

                    ],
                    "start" : 619,
                    "duration" : 120,
                    "mediaStart" : 0,
                    "mediaDuration" : 120,
                    "scalar" : 1,
                    "metadata" : {
                      "AppliedThemeId" : "",
                      "clipSpeedAttribute" : false,
                      "default-callout-stroke-color" : "(255,255,255,255)",
                      "default-scale" : "1",
                      "effectApplied" : "none"
                    },
                    "animationTracks" : {

                    }
                  },
                  {
                    "id" : 210,
                    "_type" : "AMFile",
                    "src" : 5,
                    "trackNumber" : 0,
                    "attributes" : {
                      "ident" : "Rec 9-29-2019 14",
                      "sampleRate" : 44100,
                      "bitDepth" : 0,
                      "gain" : 1.0,
                      "mixToMono" : false
                    },
                      "channelNumber" : "0,1",
                    "effects" : [

                    ],
                    "start" : 1881,
                    "duration" : 195,
                    "mediaStart" : 0,
                    "mediaDuration" : 195,
                    "scalar" : 1,
                    "metadata" : {
                      "clipSpeedAttribute" : false,
                      "effectApplied" : "none"
                    },
                    "animationTracks" : {

                    }
                  },
                  {
                    "id" : 211,
                    "_type" : "AMFile",
                    "src" : 6,
                    "trackNumber" : 0,
                    "attributes" : {
                      "ident" : "Rec 9-29-2019 15",
                      "sampleRate" : 44100,
                      "bitDepth" : 0,
                      "gain" : 1.0,
                      "mixToMono" : false
                    },
                      "channelNumber" : "0,1",
                    "effects" : [

                    ],
                    "start" : 2083,
                    "duration" : 307,
                    "mediaStart" : 0,
                    "mediaDuration" : 307,
                    "scalar" : 1,
                    "metadata" : {
                      "clipSpeedAttribute" : false,
                      "effectApplied" : "none"
                    },
                    "animationTracks" : {

                    }
                  },
                  {
                    "id" : 212,
                    "_type" : "Callout",
                    "def" : {
                      "kind" : "remix",
                      "shape" : "shape-rectangle",
                      "style" : "basic",
                      "fill-color-blue" : 0.0,
                      "fill-color-green" : 0.0,
                      "fill-color-opacity" : 0.0,
                      "fill-color-red" : 0.0,
                      "height" : 32.7321339939206,
                      "stroke-color-blue" : 0.109803921568627,
                      "stroke-color-green" : 0.686274509803922,
                      "stroke-color-opacity" : 1.0,
                      "stroke-color-red" : 0.92156862745098,
                      "stroke-width" : 3.0,
                      "width" : 267.03173828125,
                      "fill-style" : "solid",
                      "stroke-style" : "solid"
                    },
                    "attributes" : {
                      "autoRotateText" : true
                    },
                    "parameters" : {
                      "translation0" : -101.798411988437,
                      "translation1" : 169.310118168033
                    },
                    "effects" : [

                    ],
                    "start" : 2929,
                    "duration" : 628,
                    "mediaStart" : 0,
                    "mediaDuration" : 628,
                    "scalar" : 1,
                    "metadata" : {
                      "AppliedThemeId" : "",
                      "clipSpeedAttribute" : false,
                      "default-callout-stroke-color" : "(255,255,255,255)",
                      "default-callout-stroke-width" : "6",
                      "default-scale" : "1",
                      "effectApplied" : "none"
                    },
                    "animationTracks" : {

                    }
                  },
                  {
                    "id" : 213,
                    "_type" : "AMFile",
                    "src" : 13,
                    "trackNumber" : 1,
                    "attributes" : {
                      "ident" : "Rec 9-29-2019 21",
                      "sampleRate" : 44100,
                      "bitDepth" : 16,
                      "gain" : 1.0,
                      "mixToMono" : false
                    },
                      "channelNumber" : "0,1",
                    "effects" : [

                    ],
                    "start" : 3602,
                    "duration" : 554,
                    "mediaStart" : 0,
                    "mediaDuration" : 554,
                    "scalar" : 1,
                    "metadata" : {
                      "clipSpeedAttribute" : false,
                      "effectApplied" : "none"
                    },
                    "animationTracks" : {

                    }
                  },
                  {
                    "id" : 214,
                    "_type" : "Callout",
                    "def" : {
                      "kind" : "remix",
                      "shape" : "shape-rectangle",
                      "style" : "basic",
                      "fill-color-blue" : 0.0,
                      "fill-color-green" : 0.0,
                      "fill-color-opacity" : 0.0,
                      "fill-color-red" : 0.0,
                      "height" : 504.954132080078,
                      "stroke-color-blue" : 1.0,
                      "stroke-color-green" : 1.0,
                      "stroke-color-opacity" : 1.0,
                      "stroke-color-red" : 1.0,
                      "stroke-width" : 3.0,
                      "width" : 311.777163307103,
                      "fill-style" : "solid",
                      "stroke-style" : "solid"
                    },
                    "attributes" : {
                      "autoRotateText" : true
                    },
                    "parameters" : {
                      "translation0" : -54.5921652887426,
                      "translation1" : -84.4604985639849
                    },
                    "effects" : [

                    ],
                    "start" : 5304,
                    "duration" : 150,
                    "mediaStart" : 0,
                    "mediaDuration" : 150,
                    "scalar" : 1,
                    "metadata" : {
                      "AppliedThemeId" : "",
                      "clipSpeedAttribute" : false,
                      "default-callout-stroke-width" : "6",
                      "default-scale" : "1",
                      "effectApplied" : "none"
                    },
                    "animationTracks" : {

                    }
                  },
                  {
                    "id" : 215,
                    "_type" : "AMFile",
                    "src" : 23,
                    "trackNumber" : 0,
                    "attributes" : {
                      "ident" : "Rec 9-29-2019 51",
                      "sampleRate" : 44100,
                      "bitDepth" : 0,
                      "gain" : 1.0,
                      "mixToMono" : false
                    },
                      "channelNumber" : "0,1",
                    "effects" : [

                    ],
                    "start" : 5668,
                    "duration" : 75,
                    "mediaStart" : 0,
                    "mediaDuration" : 75,
                    "scalar" : 1,
                    "metadata" : {
                      "clipSpeedAttribute" : false,
                      "effectApplied" : "none"
                    },
                    "animationTracks" : {

                    }
                  },
                  {
                    "id" : 216,
                    "_type" : "Callout",
                    "def" : {
                      "kind" : "remix",
                      "shape" : "shape-rectangle",
                      "style" : "basic",
                      "fill-color-blue" : 0.0,
                      "fill-color-green" : 0.0,
                      "fill-color-opacity" : 0.0,
                      "fill-color-red" : 0.0,
                      "height" : 29.5757637023926,
                      "stroke-color-blue" : 0.109803921568627,
                      "stroke-color-green" : 0.686274509803922,
                      "stroke-color-opacity" : 1.0,
                      "stroke-color-red" : 0.92156862745098,
                      "stroke-width" : 3.0,
                      "width" : 86.6189960313192,
                      "fill-style" : "solid",
                      "stroke-style" : "solid"
                    },
                    "attributes" : {
                      "autoRotateText" : true
                    },
                    "parameters" : {
                      "translation0" : 348.17014365135,
                      "translation1" : 169.800869967221
                    },
                    "effects" : [

                    ],
                    "start" : 5840,
                    "duration" : 380,
                    "mediaStart" : 0,
                    "mediaDuration" : 380,
                    "scalar" : 1,
                    "metadata" : {
                      "AppliedThemeId" : "",
                      "clipSpeedAttribute" : false,
                      "default-callout-stroke-color" : "(255,255,255,255)",
                      "default-callout-stroke-width" : "6",
                      "default-scale" : "1",
                      "effectApplied" : "none"
                    },
                    "animationTracks" : {

                    }
                  },
                  {
                    "id" : 217,
                    "_type" : "StitchedMedia",
                    "minMediaStart" : 0,
                    "attributes" : {
                      "ident" : "Rec 9-29-2019 33",
                      "gain" : 1.0,
                      "mixToMono" : false
                    },
                    "parameters" : {
                      "volume" : 1.0,
                      "cursorOpacity" : 1.0,
                      "cursorScale" : 1.0
                    },
                    "medias" : [
                        {
                          "id" : 218,
                          "_type" : "AMFile",
                          "src" : 18,
                          "trackNumber" : 1,
                          "attributes" : {
                            "ident" : "",
                            "sampleRate" : 44100,
                            "bitDepth" : 16,
                            "gain" : 1.0,
                            "mixToMono" : false
                          },
                            "channelNumber" : "0,1",
                          "effects" : [

                          ],
                          "start" : 0,
                          "duration" : 351,
                          "mediaStart" : 0,
                          "mediaDuration" : 351,
                          "scalar" : 1,
                          "animationTracks" : {

                          }
                        },
                        {
                          "id" : 219,
                          "_type" : "AMFile",
                          "src" : 18,
                          "trackNumber" : 1,
                          "attributes" : {
                            "ident" : "",
                            "sampleRate" : 44100,
                            "bitDepth" : 16,
                            "gain" : 1.0,
                            "mixToMono" : false
                          },
                            "channelNumber" : "0,1",
                          "effects" : [

                          ],
                          "start" : 351,
                          "duration" : 171,
                          "mediaStart" : 608,
                          "mediaDuration" : 171,
                          "scalar" : 1,
                          "animationTracks" : {

                          }
                        },
                        {
                          "id" : 220,
                          "_type" : "AMFile",
                          "src" : 18,
                          "trackNumber" : 1,
                          "attributes" : {
                            "ident" : "",
                            "sampleRate" : 44100,
                            "bitDepth" : 16,
                            "gain" : 1.0,
                            "mixToMono" : false
                          },
                            "channelNumber" : "0,1",
                          "effects" : [

                          ],
                          "start" : 522,
                          "duration" : 220,
                          "mediaStart" : 846,
                          "mediaDuration" : 220,
                          "scalar" : 1,
                          "animationTracks" : {

                          }
                        },
                        {
                          "id" : 221,
                          "_type" : "AMFile",
                          "src" : 18,
                          "trackNumber" : 1,
                          "attributes" : {
                            "ident" : "",
                            "sampleRate" : 44100,
                            "bitDepth" : 16,
                            "gain" : 1.0,
                            "mixToMono" : false
                          },
                            "channelNumber" : "0,1",
                          "effects" : [

                          ],
                          "start" : 742,
                          "duration" : 185,
                          "mediaStart" : 1301,
                          "mediaDuration" : 185,
                          "scalar" : 1,
                          "animationTracks" : {

                          }
                        },
                        {
                          "id" : 222,
                          "_type" : "AMFile",
                          "src" : 18,
                          "trackNumber" : 1,
                          "attributes" : {
                            "ident" : "",
                            "sampleRate" : 44100,
                            "bitDepth" : 16,
                            "gain" : 1.0,
                            "mixToMono" : false
                          },
                            "channelNumber" : "0,1",
                          "effects" : [

                          ],
                          "start" : 927,
                          "duration" : 174,
                          "mediaStart" : 1556,
                          "mediaDuration" : 174,
                          "scalar" : 1,
                          "animationTracks" : {

                          }
                        }
                    ],
                    "effects" : [

                    ],
                    "start" : 7820,
                    "duration" : 1007,
                    "mediaStart" : 0,
                    "mediaDuration" : 1007,
                    "scalar" : 1,
                    "metadata" : {
                      "clipSpeedAttribute" : false,
                      "effectApplied" : "none"
                    },
                    "animationTracks" : {

                    }
                  },
                  {
                    "id" : 223,
                    "_type" : "Callout",
                    "def" : {
                      "kind" : "remix",
                      "shape" : "shape-rectangle",
                      "style" : "basic",
                      "fill-color-blue" : 0.0,
                      "fill-color-green" : 0.0,
                      "fill-color-opacity" : 0.0,
                      "fill-color-red" : 0.0,
                      "height" : 33.9792121592425,
                      "stroke-color-blue" : 0.109803921568627,
                      "stroke-color-green" : 0.686274509803922,
                      "stroke-color-opacity" : 1.0,
                      "stroke-color-red" : 0.92156862745098,
                      "stroke-width" : 3.0,
                      "width" : 183.428630582338,
                      "fill-style" : "solid",
                      "stroke-style" : "solid"
                    },
                    "attributes" : {
                      "autoRotateText" : true
                    },
                    "parameters" : {
                      "translation0" : 57.401221335286,
                      "translation1" : -81.4425859588744
                    },
                    "effects" : [

                    ],
                    "start" : 9979,
                    "duration" : 54,
                    "mediaStart" : 0,
                    "mediaDuration" : 54,
                    "scalar" : 1,
                    "metadata" : {
                      "AppliedThemeId" : "",
                      "clipSpeedAttribute" : false,
                      "default-callout-stroke-color" : "(255,255,255,255)",
                      "default-callout-stroke-width" : "6",
                      "default-scale" : "1",
                      "effectApplied" : "none"
                    },
                    "animationTracks" : {

                    }
                  },
                  {
                    "id" : 224,
                    "_type" : "Callout",
                    "def" : {
                      "kind" : "remix",
                      "shape" : "shape-rectangle",
                      "style" : "basic",
                      "fill-color-blue" : 0.0,
                      "fill-color-green" : 0.0,
                      "fill-color-opacity" : 0.0,
                      "fill-color-red" : 0.0,
                      "height" : 54.8743600333589,
                      "stroke-color-blue" : 0.109803921568627,
                      "stroke-color-green" : 0.686274509803922,
                      "stroke-color-opacity" : 1.0,
                      "stroke-color-red" : 0.92156862745098,
                      "stroke-width" : 3.0,
                      "width" : 490.283346461026,
                      "fill-style" : "solid",
                      "stroke-style" : "solid"
                    },
                    "attributes" : {
                      "autoRotateText" : true
                    },
                    "parameters" : {
                      "translation0" : 123.253204578336,
                      "translation1" : -163.277205616068
                    },
                    "effects" : [

                    ],
                    "start" : 10238,
                    "duration" : 284,
                    "mediaStart" : 0,
                    "mediaDuration" : 284,
                    "scalar" : 1,
                    "metadata" : {
                      "AppliedThemeId" : "",
                      "clipSpeedAttribute" : false,
                      "default-callout-stroke-color" : "(255,255,255,255)",
                      "default-callout-stroke-width" : "6",
                      "default-scale" : "1",
                      "effectApplied" : "none"
                    },
                    "animationTracks" : {

                    }
                  },
                  {
                    "id" : 225,
                    "_type" : "Callout",
                    "def" : {
                      "kind" : "remix",
                      "shape" : "shape-rectangle",
                      "style" : "basic",
                      "fill-color-blue" : 0.0,
                      "fill-color-green" : 0.0,
                      "fill-color-opacity" : 0.0,
                      "fill-color-red" : 0.0,
                      "height" : 21.9832975197743,
                      "stroke-color-blue" : 0.109803921568627,
                      "stroke-color-green" : 0.686274509803922,
                      "stroke-color-opacity" : 1.0,
                      "stroke-color-red" : 0.92156862745098,
                      "stroke-width" : 3.0,
                      "width" : 224.64762878418,
                      "fill-style" : "solid",
                      "stroke-style" : "solid"
                    },
                    "attributes" : {
                      "autoRotateText" : true
                    },
                    "parameters" : {
                      "translation0" : -17.9258051938981,
                      "translation1" : -199.683817023326
                    },
                    "effects" : [

                    ],
                    "start" : 10522,
                    "duration" : 150,
                    "mediaStart" : 0,
                    "mediaDuration" : 150,
                    "scalar" : 1,
                    "metadata" : {
                      "AppliedThemeId" : "",
                      "clipSpeedAttribute" : false,
                      "default-callout-stroke-color" : "(255,255,255,255)",
                      "default-callout-stroke-width" : "6",
                      "default-scale" : "1",
                      "effectApplied" : "none"
                    },
                    "animationTracks" : {

                    }
                  },
                  {
                    "id" : 226,
                    "_type" : "Callout",
                    "def" : {
                      "kind" : "remix",
                      "shape" : "shape-rectangle",
                      "style" : "basic",
                      "fill-color-blue" : 0.0,
                      "fill-color-green" : 0.0,
                      "fill-color-opacity" : 0.0,
                      "fill-color-red" : 0.0,
                      "height" : 33.2123527215892,
                      "stroke-color-blue" : 0.109803921568627,
                      "stroke-color-green" : 0.686274509803922,
                      "stroke-color-opacity" : 1.0,
                      "stroke-color-red" : 0.92156862745098,
                      "stroke-width" : 3.0,
                      "width" : 56.5185279846191,
                      "fill-style" : "solid",
                      "stroke-style" : "solid"
                    },
                    "attributes" : {
                      "autoRotateText" : true
                    },
                    "parameters" : {
                      "translation0" : -528.217234789721,
                      "translation1" : 81.9637125208021
                    },
                    "effects" : [

                    ],
                    "start" : 14307,
                    "duration" : 61,
                    "mediaStart" : -12,
                    "mediaDuration" : 61,
                    "scalar" : 1,
                    "metadata" : {
                      "AppliedThemeId" : "",
                      "clipSpeedAttribute" : false,
                      "default-callout-stroke-color" : "(255,255,255,255)",
                      "default-callout-stroke-width" : "6",
                      "default-scale" : "1",
                      "effectApplied" : "none"
                    },
                    "animationTracks" : {

                    }
                  },
                  {
                    "id" : 227,
                    "_type" : "Callout",
                    "def" : {
                      "kind" : "remix",
                      "shape" : "shape-rectangle",
                      "style" : "basic",
                      "fill-color-blue" : 0.0,
                      "fill-color-green" : 0.0,
                      "fill-color-opacity" : 0.0,
                      "fill-color-red" : 0.0,
                      "height" : 32.4763464008821,
                      "stroke-color-blue" : 0.109803921568627,
                      "stroke-color-green" : 0.686274509803922,
                      "stroke-color-opacity" : 1.0,
                      "stroke-color-red" : 0.92156862745098,
                      "stroke-width" : 3.0,
                      "width" : 25.0314146746708,
                      "fill-style" : "solid",
                      "stroke-style" : "solid"
                    },
                    "attributes" : {
                      "autoRotateText" : true
                    },
                    "parameters" : {
                      "translation0" : -597.586681663046,
                      "translation1" : 80.9675380080692
                    },
                    "effects" : [

                    ],
                    "start" : 14380,
                    "duration" : 179,
                    "mediaStart" : 0,
                    "mediaDuration" : 179,
                    "scalar" : 1,
                    "metadata" : {
                      "AppliedThemeId" : "",
                      "clipSpeedAttribute" : false,
                      "default-callout-stroke-color" : "(255,255,255,255)",
                      "default-callout-stroke-width" : "6",
                      "default-scale" : "1",
                      "effectApplied" : "none"
                    },
                    "animationTracks" : {

                    }
                  },
                  {
                    "id" : 228,
                    "_type" : "Callout",
                    "def" : {
                      "kind" : "remix",
                      "shape" : "shape-rectangle",
                      "style" : "basic",
                      "fill-color-blue" : 0.0,
                      "fill-color-green" : 0.0,
                      "fill-color-opacity" : 0.0,
                      "fill-color-red" : 0.0,
                      "height" : 42.637995738906,
                      "stroke-color-blue" : 0.109803921568627,
                      "stroke-color-green" : 0.686274509803922,
                      "stroke-color-opacity" : 1.0,
                      "stroke-color-red" : 0.92156862745098,
                      "stroke-width" : 3.0,
                      "width" : 516.789916992188,
                      "fill-style" : "solid",
                      "stroke-style" : "solid"
                    },
                    "attributes" : {
                      "autoRotateText" : true
                    },
                    "parameters" : {
                      "translation0" : 133.460556934547,
                      "translation1" : 51.8718107717574
                    },
                    "effects" : [

                    ],
                    "start" : 14895,
                    "duration" : 79,
                    "mediaStart" : -9,
                    "mediaDuration" : 79,
                    "scalar" : 1,
                    "metadata" : {
                      "AppliedThemeId" : "",
                      "clipSpeedAttribute" : false,
                      "default-callout-stroke-color" : "(255,255,255,255)",
                      "default-callout-stroke-width" : "6",
                      "default-scale" : "1",
                      "effectApplied" : "none"
                    },
                    "animationTracks" : {

                    }
                  },
                  {
                    "id" : 229,
                    "_type" : "Callout",
                    "def" : {
                      "kind" : "remix",
                      "shape" : "shape-rectangle",
                      "style" : "basic",
                      "fill-color-blue" : 0.0,
                      "fill-color-green" : 0.0,
                      "fill-color-opacity" : 0.0,
                      "fill-color-red" : 0.0,
                      "height" : 125.838181758082,
                      "stroke-color-blue" : 0.109803921568627,
                      "stroke-color-green" : 0.686274509803922,
                      "stroke-color-opacity" : 1.0,
                      "stroke-color-red" : 0.92156862745098,
                      "stroke-width" : 3.0,
                      "width" : 512.122677464657,
                      "fill-style" : "solid",
                      "stroke-style" : "solid"
                    },
                    "attributes" : {
                      "autoRotateText" : true
                    },
                    "parameters" : {
                      "translation0" : 132.091421140912,
                      "translation1" : -24.1581269407345
                    },
                    "effects" : [

                    ],
                    "start" : 14987,
                    "duration" : 204,
                    "mediaStart" : -54,
                    "mediaDuration" : 204,
                    "scalar" : 1,
                    "metadata" : {
                      "AppliedThemeId" : "",
                      "clipSpeedAttribute" : false,
                      "default-callout-stroke-color" : "(255,255,255,255)",
                      "default-callout-stroke-width" : "6",
                      "default-scale" : "1",
                      "effectApplied" : "none"
                    },
                    "animationTracks" : {

                    }
                  },
                  {
                    "id" : 230,
                    "_type" : "Callout",
                    "def" : {
                      "kind" : "remix",
                      "shape" : "shape-rectangle",
                      "style" : "basic",
                      "fill-color-blue" : 0.0,
                      "fill-color-green" : 0.0,
                      "fill-color-opacity" : 0.0,
                      "fill-color-red" : 0.0,
                      "height" : 14.7020263671875,
                      "stroke-color-blue" : 0.109803921568627,
                      "stroke-color-green" : 0.686274509803922,
                      "stroke-color-opacity" : 1.0,
                      "stroke-color-red" : 0.92156862745098,
                      "stroke-width" : 3.0,
                      "width" : 18.8772714769846,
                      "fill-style" : "solid",
                      "stroke-style" : "solid"
                    },
                    "attributes" : {
                      "autoRotateText" : true
                    },
                    "parameters" : {
                      "translation0" : -83.962090951384,
                      "translation1" : 28.171772849889
                    },
                    "effects" : [

                    ],
                    "start" : 15394,
                    "duration" : 42,
                    "mediaStart" : 0,
                    "mediaDuration" : 42,
                    "scalar" : 1,
                    "metadata" : {
                      "AppliedThemeId" : "",
                      "clipSpeedAttribute" : false,
                      "default-callout-stroke-color" : "(255,255,255,255)",
                      "default-callout-stroke-width" : "6",
                      "default-scale" : "1",
                      "effectApplied" : "none"
                    },
                    "animationTracks" : {

                    }
                  },
                  {
                    "id" : 231,
                    "_type" : "Callout",
                    "def" : {
                      "kind" : "remix",
                      "shape" : "shape-rectangle",
                      "style" : "basic",
                      "fill-color-blue" : 0.0,
                      "fill-color-green" : 0.0,
                      "fill-color-opacity" : 0.0,
                      "fill-color-red" : 0.0,
                      "height" : 17.7022495269775,
                      "stroke-color-blue" : 0.109803921568627,
                      "stroke-color-green" : 0.686274509803922,
                      "stroke-color-opacity" : 1.0,
                      "stroke-color-red" : 0.92156862745098,
                      "stroke-width" : 3.0,
                      "width" : 143.740005222642,
                      "fill-style" : "solid",
                      "stroke-style" : "solid"
                    },
                    "attributes" : {
                      "autoRotateText" : true
                    },
                    "parameters" : {
                      "translation0" : -29.9343284307359,
                      "translation1" : 11.851124612419
                    },
                    "effects" : [

                    ],
                    "start" : 15436,
                    "duration" : 78,
                    "mediaStart" : 0,
                    "mediaDuration" : 78,
                    "scalar" : 1,
                    "metadata" : {
                      "AppliedThemeId" : "",
                      "clipSpeedAttribute" : false,
                      "default-callout-stroke-color" : "(255,255,255,255)",
                      "default-callout-stroke-width" : "6",
                      "default-scale" : "1",
                      "effectApplied" : "none"
                    },
                    "animationTracks" : {

                    }
                  },
                  {
                    "id" : 232,
                    "_type" : "Callout",
                    "def" : {
                      "kind" : "remix",
                      "shape" : "shape-rectangle",
                      "style" : "basic",
                      "fill-color-blue" : 0.0,
                      "fill-color-green" : 0.0,
                      "fill-color-opacity" : 0.0,
                      "fill-color-red" : 0.0,
                      "height" : 51.3165051832434,
                      "stroke-color-blue" : 0.109803921568627,
                      "stroke-color-green" : 0.686274509803922,
                      "stroke-color-opacity" : 1.0,
                      "stroke-color-red" : 0.92156862745098,
                      "stroke-width" : 3.0,
                      "width" : 363.330688476562,
                      "fill-style" : "solid",
                      "stroke-style" : "solid"
                    },
                    "attributes" : {
                      "autoRotateText" : true
                    },
                    "parameters" : {
                      "translation0" : -388.546417407942,
                      "translation1" : 197.133501973163
                    },
                    "effects" : [

                    ],
                    "start" : 15954,
                    "duration" : 150,
                    "mediaStart" : 0,
                    "mediaDuration" : 150,
                    "scalar" : 1,
                    "metadata" : {
                      "AppliedThemeId" : "",
                      "clipSpeedAttribute" : false,
                      "default-callout-stroke-color" : "(255,255,255,255)",
                      "default-callout-stroke-width" : "6",
                      "default-scale" : "1",
                      "effectApplied" : "none"
                    },
                    "animationTracks" : {

                    }
                  },
                  {
                    "id" : 233,
                    "_type" : "Callout",
                    "def" : {
                      "kind" : "remix",
                      "shape" : "shape-rectangle",
                      "style" : "basic",
                      "fill-color-blue" : 0.0,
                      "fill-color-green" : 0.0,
                      "fill-color-opacity" : 0.0,
                      "fill-color-red" : 0.0,
                      "height" : 179.563690185547,
                      "stroke-color-blue" : 0.109803921568627,
                      "stroke-color-green" : 0.686274509803922,
                      "stroke-color-opacity" : 1.0,
                      "stroke-color-red" : 0.92156862745098,
                      "stroke-width" : 3.0,
                      "width" : 1192.40262883323,
                      "fill-style" : "solid",
                      "stroke-style" : "solid"
                    },
                    "attributes" : {
                      "autoRotateText" : true
                    },
                    "parameters" : {
                      "translation0" : -19.7906841452359,
                      "translation1" : 58.2453071672355
                    },
                    "effects" : [

                    ],
                    "start" : 17813,
                    "duration" : 150,
                    "mediaStart" : 0,
                    "mediaDuration" : 150,
                    "scalar" : 1,
                    "metadata" : {
                      "AppliedThemeId" : "",
                      "clipSpeedAttribute" : false,
                      "default-callout-stroke-color" : "(255,255,255,255)",
                      "default-callout-stroke-width" : "6",
                      "default-scale" : "1",
                      "effectApplied" : "none"
                    },
                    "animationTracks" : {

                    }
                  },
                  {
                    "id" : 234,
                    "_type" : "Callout",
                    "def" : {
                      "kind" : "remix",
                      "shape" : "shape-rectangle",
                      "style" : "basic",
                      "fill-color-blue" : 0.0,
                      "fill-color-green" : 0.0,
                      "fill-color-opacity" : 0.0,
                      "fill-color-red" : 0.0,
                      "height" : 21.6385137841991,
                      "stroke-color-blue" : 0.109803921568627,
                      "stroke-color-green" : 0.686274509803922,
                      "stroke-color-opacity" : 1.0,
                      "stroke-color-red" : 0.92156862745098,
                      "stroke-width" : 3.0,
                      "width" : 340.583834529381,
                      "fill-style" : "solid",
                      "stroke-style" : "solid"
                    },
                    "attributes" : {
                      "autoRotateText" : true
                    },
                    "parameters" : {
                      "translation0" : 50.9070356501274,
                      "translation1" : 103.672521875342
                    },
                    "effects" : [

                    ],
                    "start" : 18888,
                    "duration" : 150,
                    "mediaStart" : 0,
                    "mediaDuration" : 150,
                    "scalar" : 1,
                    "metadata" : {
                      "AppliedThemeId" : "",
                      "clipSpeedAttribute" : false,
                      "default-callout-stroke-color" : "(255,255,255,255)",
                      "default-callout-stroke-width" : "6",
                      "default-scale" : "1",
                      "effectApplied" : "none"
                    },
                    "animationTracks" : {

                    }
                  },
                  {
                    "id" : 235,
                    "_type" : "Callout",
                    "def" : {
                      "kind" : "remix",
                      "shape" : "shape-rectangle",
                      "style" : "basic",
                      "fill-color-blue" : 0.0,
                      "fill-color-green" : 0.0,
                      "fill-color-opacity" : 0.0,
                      "fill-color-red" : 0.0,
                      "height" : 24.1935157038039,
                      "stroke-color-blue" : 0.109803921568627,
                      "stroke-color-green" : 0.686274509803922,
                      "stroke-color-opacity" : 1.0,
                      "stroke-color-red" : 0.92156862745098,
                      "stroke-width" : 3.0,
                      "width" : 501.368407179759,
                      "fill-style" : "solid",
                      "stroke-style" : "solid"
                    },
                    "attributes" : {
                      "autoRotateText" : true
                    },
                    "parameters" : {
                      "translation0" : 129.993708859054,
                      "translation1" : 86.7180387371335
                    },
                    "effects" : [

                    ],
                    "start" : 19092,
                    "duration" : 150,
                    "mediaStart" : 0,
                    "mediaDuration" : 150,
                    "scalar" : 1,
                    "metadata" : {
                      "AppliedThemeId" : "",
                      "clipSpeedAttribute" : false,
                      "default-callout-stroke-color" : "(255,255,255,255)",
                      "default-callout-stroke-width" : "6",
                      "default-scale" : "1",
                      "effectApplied" : "none"
                    },
                    "animationTracks" : {

                    }
                  },
                  {
                    "id" : 236,
                    "_type" : "Callout",
                    "def" : {
                      "kind" : "remix",
                      "shape" : "shape-rectangle",
                      "style" : "basic",
                      "fill-color-blue" : 0.0,
                      "fill-color-green" : 0.0,
                      "fill-color-opacity" : 0.0,
                      "fill-color-red" : 0.0,
                      "height" : 17.3326465577135,
                      "stroke-color-blue" : 0.109803921568627,
                      "stroke-color-green" : 0.686274509803922,
                      "stroke-color-opacity" : 1.0,
                      "stroke-color-red" : 0.92156862745098,
                      "stroke-width" : 3.0,
                      "width" : 538.778646525973,
                      "fill-style" : "solid",
                      "stroke-style" : "solid"
                    },
                    "attributes" : {
                      "autoRotateText" : true
                    },
                    "parameters" : {
                      "translation0" : 149.87051751757,
                      "translation1" : 69.718029349143
                    },
                    "effects" : [

                    ],
                    "start" : 19286,
                    "duration" : 313,
                    "mediaStart" : 0,
                    "mediaDuration" : 313,
                    "scalar" : 1,
                    "metadata" : {
                      "AppliedThemeId" : "",
                      "clipSpeedAttribute" : false,
                      "default-callout-stroke-color" : "(255,255,255,255)",
                      "default-callout-stroke-width" : "6",
                      "default-scale" : "1",
                      "effectApplied" : "none"
                    },
                    "animationTracks" : {

                    }
                  },
                  {
                    "id" : 237,
                    "_type" : "Callout",
                    "def" : {
                      "kind" : "remix",
                      "shape" : "shape-rectangle",
                      "style" : "basic",
                      "fill-color-blue" : 0.0,
                      "fill-color-green" : 0.0,
                      "fill-color-opacity" : 0.0,
                      "fill-color-red" : 0.0,
                      "height" : 282.442749023438,
                      "stroke-color-blue" : 0.109803921568627,
                      "stroke-color-green" : 0.686274509803922,
                      "stroke-color-opacity" : 1.0,
                      "stroke-color-red" : 0.92156862745098,
                      "stroke-width" : 3.0,
                      "width" : 682.365429534961,
                      "fill-style" : "solid",
                      "stroke-style" : "solid"
                    },
                    "attributes" : {
                      "autoRotateText" : true
                    },
                    "parameters" : {
                      "translation0" : 221.710657905755,
                      "translation1" : -75.1286309089542
                    },
                    "effects" : [

                    ],
                    "start" : 19622,
                    "duration" : 256,
                    "mediaStart" : 0,
                    "mediaDuration" : 256,
                    "scalar" : 1,
                    "metadata" : {
                      "AppliedThemeId" : "",
                      "clipSpeedAttribute" : false,
                      "default-callout-stroke-color" : "(255,255,255,255)",
                      "default-callout-stroke-width" : "6",
                      "default-scale" : "1",
                      "effectApplied" : "none"
                    },
                    "animationTracks" : {

                    }
                  },
                  {
                    "id" : 238,
                    "_type" : "Callout",
                    "def" : {
                      "kind" : "remix",
                      "shape" : "shape-rectangle",
                      "style" : "basic",
                      "fill-color-blue" : 0.0,
                      "fill-color-green" : 0.0,
                      "fill-color-opacity" : 0.0,
                      "fill-color-red" : 0.0,
                      "height" : 17.6396594987428,
                      "stroke-color-blue" : 0.109803921568627,
                      "stroke-color-green" : 0.686274509803922,
                      "stroke-color-opacity" : 1.0,
                      "stroke-color-red" : 0.92156862745098,
                      "stroke-width" : 3.0,
                      "width" : 115.110036873793,
                      "fill-style" : "solid",
                      "stroke-style" : "solid"
                    },
                    "attributes" : {
                      "autoRotateText" : true
                    },
                    "parameters" : {
                      "translation0" : -10.3783661908997,
                      "translation1" : 51.8927254908441
                    },
                    "effects" : [

                    ],
                    "start" : 19893,
                    "duration" : 256,
                    "mediaStart" : 0,
                    "mediaDuration" : 256,
                    "scalar" : 1,
                    "metadata" : {
                      "AppliedThemeId" : "",
                      "clipSpeedAttribute" : false,
                      "default-callout-stroke-color" : "(255,255,255,255)",
                      "default-callout-stroke-width" : "6",
                      "default-scale" : "1",
                      "effectApplied" : "none"
                    },
                    "animationTracks" : {

                    }
                  },
                  {
                    "id" : 239,
                    "_type" : "Callout",
                    "def" : {
                      "kind" : "remix",
                      "shape" : "shape-rectangle",
                      "style" : "basic",
                      "fill-color-blue" : 0.0,
                      "fill-color-green" : 0.0,
                      "fill-color-opacity" : 0.0,
                      "fill-color-red" : 0.0,
                      "height" : 156.384750366211,
                      "stroke-color-blue" : 0.109803921568627,
                      "stroke-color-green" : 0.686274509803922,
                      "stroke-color-opacity" : 1.0,
                      "stroke-color-red" : 0.92156862745098,
                      "stroke-width" : 3.0,
                      "width" : 623.968193018973,
                      "fill-style" : "solid",
                      "stroke-style" : "solid"
                    },
                    "attributes" : {
                      "autoRotateText" : true
                    },
                    "parameters" : {
                      "translation0" : 248.896312636793,
                      "translation1" : -29.7725135799326
                    },
                    "effects" : [

                    ],
                    "start" : 20168,
                    "duration" : 168,
                    "mediaStart" : 0,
                    "mediaDuration" : 168,
                    "scalar" : 1,
                    "metadata" : {
                      "AppliedThemeId" : "",
                      "clipSpeedAttribute" : false,
                      "default-callout-stroke-color" : "(255,255,255,255)",
                      "default-callout-stroke-width" : "6",
                      "default-scale" : "1",
                      "effectApplied" : "none"
                    },
                    "animationTracks" : {

                    }
                  },
                  {
                    "id" : 240,
                    "_type" : "Callout",
                    "def" : {
                      "kind" : "remix",
                      "shape" : "shape-rectangle",
                      "style" : "basic",
                      "fill-color-blue" : 0.0,
                      "fill-color-green" : 0.0,
                      "fill-color-opacity" : 0.0,
                      "fill-color-red" : 0.0,
                      "height" : 20.280179977417,
                      "stroke-color-blue" : 0.109803921568627,
                      "stroke-color-green" : 0.686274509803922,
                      "stroke-color-opacity" : 1.0,
                      "stroke-color-red" : 0.92156862745098,
                      "stroke-width" : 3.0,
                      "width" : 18.75616965615,
                      "fill-style" : "solid",
                      "stroke-style" : "solid"
                    },
                    "attributes" : {
                      "autoRotateText" : true
                    },
                    "parameters" : {
                      "translation0" : -52.6990924036231,
                      "translation1" : 34.9057039925111
                    },
                    "effects" : [

                    ],
                    "start" : 20482,
                    "duration" : 105,
                    "mediaStart" : 0,
                    "mediaDuration" : 105,
                    "scalar" : 1,
                    "metadata" : {
                      "AppliedThemeId" : "",
                      "clipSpeedAttribute" : false,
                      "default-callout-stroke-color" : "(255,255,255,255)",
                      "default-callout-stroke-width" : "6",
                      "default-scale" : "1",
                      "effectApplied" : "none"
                    },
                    "animationTracks" : {

                    }
                  },
                  {
                    "id" : 241,
                    "_type" : "Callout",
                    "def" : {
                      "kind" : "remix",
                      "shape" : "shape-rectangle",
                      "style" : "basic",
                      "fill-color-blue" : 0.0,
                      "fill-color-green" : 0.0,
                      "fill-color-opacity" : 0.0,
                      "fill-color-red" : 0.0,
                      "height" : 20.280179977417,
                      "stroke-color-blue" : 0.109803921568627,
                      "stroke-color-green" : 0.686274509803922,
                      "stroke-color-opacity" : 1.0,
                      "stroke-color-red" : 0.92156862745098,
                      "stroke-width" : 3.0,
                      "width" : 64.5559519524531,
                      "fill-style" : "solid",
                      "stroke-style" : "solid"
                    },
                    "attributes" : {
                      "autoRotateText" : true
                    },
                    "parameters" : {
                      "translation0" : -6.59898324343605,
                      "translation1" : -100.094296007489
                    },
                    "effects" : [

                    ],
                    "start" : 20587,
                    "duration" : 60,
                    "mediaStart" : 0,
                    "mediaDuration" : 60,
                    "scalar" : 1,
                    "metadata" : {
                      "AppliedThemeId" : "",
                      "clipSpeedAttribute" : false,
                      "default-callout-stroke-color" : "(255,255,255,255)",
                      "default-callout-stroke-width" : "6",
                      "default-scale" : "1",
                      "effectApplied" : "none"
                    },
                    "animationTracks" : {

                    }
                  },
                  {
                    "id" : 242,
                    "_type" : "Callout",
                    "def" : {
                      "kind" : "remix",
                      "shape" : "shape-rectangle",
                      "style" : "basic",
                      "fill-color-blue" : 0.0,
                      "fill-color-green" : 0.0,
                      "fill-color-opacity" : 0.0,
                      "fill-color-red" : 0.0,
                      "height" : 96.2259489120851,
                      "stroke-color-blue" : 0.109803921568627,
                      "stroke-color-green" : 0.686274509803922,
                      "stroke-color-opacity" : 1.0,
                      "stroke-color-red" : 0.92156862745098,
                      "stroke-width" : 3.0,
                      "width" : 497.396755445933,
                      "fill-style" : "solid",
                      "stroke-style" : "solid"
                    },
                    "attributes" : {
                      "autoRotateText" : true
                    },
                    "parameters" : {
                      "translation0" : 201.574050330473,
                      "translation1" : -151.099433115395
                    },
                    "effects" : [

                    ],
                    "start" : 20674,
                    "duration" : 150,
                    "mediaStart" : 0,
                    "mediaDuration" : 150,
                    "scalar" : 1,
                    "metadata" : {
                      "AppliedThemeId" : "",
                      "clipSpeedAttribute" : false,
                      "default-callout-stroke-color" : "(255,255,255,255)",
                      "default-callout-stroke-width" : "6",
                      "default-scale" : "1",
                      "effectApplied" : "none"
                    },
                    "animationTracks" : {

                    }
                  },
                  {
                    "id" : 243,
                    "_type" : "AMFile",
                    "src" : 34,
                    "trackNumber" : 0,
                    "attributes" : {
                      "ident" : "Rec 9-29-2019 64",
                      "sampleRate" : 44100,
                      "bitDepth" : 0,
                      "gain" : 1.0,
                      "mixToMono" : false
                    },
                      "channelNumber" : "0,1",
                    "effects" : [

                    ],
                    "start" : 23909,
                    "duration" : 201,
                    "mediaStart" : 0,
                    "mediaDuration" : 201,
                    "scalar" : 1,
                    "metadata" : {
                      "clipSpeedAttribute" : false,
                      "effectApplied" : "none"
                    },
                    "animationTracks" : {

                    }
                  }
                ]
              },
              {
                "trackIndex" : 2,
                "medias" : [
                  {
                    "id" : 244,
                    "_type" : "Callout",
                    "def" : {
                      "kind" : "remix",
                      "shape" : "shape-rectangle",
                      "style" : "basic",
                      "fill-color-blue" : 0.0,
                      "fill-color-green" : 0.0,
                      "fill-color-opacity" : 0.0,
                      "fill-color-red" : 0.0,
                      "height" : 47.0208625868506,
                      "stroke-color-blue" : 0.109803921568627,
                      "stroke-color-green" : 0.686274509803922,
                      "stroke-color-opacity" : 1.0,
                      "stroke-color-red" : 0.92156862745098,
                      "stroke-width" : 6.0,
                      "width" : 325.840209960938,
                      "fill-style" : "solid",
                      "stroke-style" : "solid"
                    },
                    "attributes" : {
                      "autoRotateText" : true
                    },
                    "parameters" : {
                      "translation0" : -238.330184966539,
                      "translation1" : 301.640299094847
                    },
                    "effects" : [

                    ],
                    "start" : 2166,
                    "duration" : 224,
                    "mediaStart" : 0,
                    "mediaDuration" : 224,
                    "scalar" : 1,
                    "metadata" : {
                      "AppliedThemeId" : "",
                      "clipSpeedAttribute" : false,
                      "default-callout-stroke-color" : "(255,255,255,255)",
                      "default-scale" : "1",
                      "effectApplied" : "none"
                    },
                    "animationTracks" : {

                    }
                  },
                  {
                    "id" : 245,
                    "_type" : "AMFile",
                    "src" : 10,
                    "trackNumber" : 0,
                    "attributes" : {
                      "ident" : "Rec 9-29-2019 18",
                      "sampleRate" : 44100,
                      "bitDepth" : 0,
                      "gain" : 1.0,
                      "mixToMono" : false
                    },
                      "channelNumber" : "0,1",
                    "effects" : [

                    ],
                    "start" : 3053,
                    "duration" : 78,
                    "mediaStart" : 0,
                    "mediaDuration" : 78,
                    "scalar" : 1,
                    "metadata" : {
                      "clipSpeedAttribute" : false,
                      "effectApplied" : "none"
                    },
                    "animationTracks" : {

                    }
                  },
                  {
                    "id" : 246,
                    "_type" : "Callout",
                    "def" : {
                      "kind" : "remix",
                      "shape" : "shape-rectangle",
                      "style" : "basic",
                      "fill-color-blue" : 0.0,
                      "fill-color-green" : 0.0,
                      "fill-color-opacity" : 0.0,
                      "fill-color-red" : 0.0,
                      "height" : 19.9790806332204,
                      "stroke-color-blue" : 0.109803921568627,
                      "stroke-color-green" : 0.686274509803922,
                      "stroke-color-opacity" : 1.0,
                      "stroke-color-red" : 0.92156862745098,
                      "stroke-width" : 3.0,
                      "width" : 85.6046926844139,
                      "fill-style" : "solid",
                      "stroke-style" : "solid"
                    },
                    "attributes" : {
                      "autoRotateText" : true
                    },
                    "parameters" : {
                      "translation0" : -164.33314731165,
                      "translation1" : 85.8224733832973
                    },
                    "effects" : [

                    ],
                    "start" : 3160,
                    "duration" : 189,
                    "mediaStart" : 0,
                    "mediaDuration" : 189,
                    "scalar" : 1,
                    "metadata" : {
                      "AppliedThemeId" : "",
                      "clipSpeedAttribute" : false,
                      "default-callout-stroke-color" : "(255,255,255,255)",
                      "default-callout-stroke-width" : "6",
                      "default-scale" : "1",
                      "effectApplied" : "none"
                    },
                    "animationTracks" : {

                    }
                  },
                  {
                    "id" : 247,
                    "_type" : "Callout",
                    "def" : {
                      "kind" : "remix",
                      "shape" : "shape-rectangle",
                      "style" : "basic",
                      "fill-color-blue" : 0.0,
                      "fill-color-green" : 0.0,
                      "fill-color-opacity" : 0.0,
                      "fill-color-red" : 0.0,
                      "height" : 19.3792876791273,
                      "stroke-color-blue" : 0.109803921568627,
                      "stroke-color-green" : 0.686274509803922,
                      "stroke-color-opacity" : 1.0,
                      "stroke-color-red" : 0.92156862745098,
                      "stroke-width" : 3.0,
                      "width" : 89.1981597066794,
                      "fill-style" : "solid",
                      "stroke-style" : "solid"
                    },
                    "attributes" : {
                      "autoRotateText" : true
                    },
                    "parameters" : {
                      "translation0" : -161.819392128705,
                      "translation1" : 35.4706429505897
                    },
                    "effects" : [

                    ],
                    "start" : 3378,
                    "duration" : 179,
                    "mediaStart" : 0,
                    "mediaDuration" : 179,
                    "scalar" : 1,
                    "metadata" : {
                      "AppliedThemeId" : "",
                      "clipSpeedAttribute" : false,
                      "default-callout-stroke-color" : "(255,255,255,255)",
                      "default-callout-stroke-width" : "6",
                      "default-scale" : "1",
                      "effectApplied" : "none"
                    },
                    "animationTracks" : {

                    }
                  },
                  {
                    "id" : 248,
                    "_type" : "Callout",
                    "def" : {
                      "kind" : "remix",
                      "shape" : "shape-rectangle",
                      "style" : "basic",
                      "fill-color-blue" : 0.0,
                      "fill-color-green" : 0.0,
                      "fill-color-opacity" : 0.0,
                      "fill-color-red" : 0.0,
                      "height" : 24.9859027862549,
                      "stroke-color-blue" : 0.109803921568627,
                      "stroke-color-green" : 0.686274509803922,
                      "stroke-color-opacity" : 1.0,
                      "stroke-color-red" : 0.92156862745098,
                      "stroke-width" : 3.0,
                      "width" : 360.869668982991,
                      "fill-style" : "solid",
                      "stroke-style" : "solid"
                    },
                    "attributes" : {
                      "autoRotateText" : true
                    },
                    "parameters" : {
                      "translation0" : -26.7610609983287,
                      "translation1" : 120.478547568966
                    },
                    "effects" : [

                    ],
                    "start" : 3697,
                    "duration" : 150,
                    "mediaStart" : 0,
                    "mediaDuration" : 150,
                    "scalar" : 1,
                    "metadata" : {
                      "AppliedThemeId" : "",
                      "clipSpeedAttribute" : false,
                      "default-callout-stroke-color" : "(255,255,255,255)",
                      "default-callout-stroke-width" : "6",
                      "default-scale" : "1",
                      "effectApplied" : "none"
                    },
                    "animationTracks" : {

                    }
                  },
                  {
                    "id" : 249,
                    "_type" : "Callout",
                    "def" : {
                      "kind" : "remix",
                      "shape" : "shape-rectangle",
                      "style" : "basic",
                      "fill-color-blue" : 0.0,
                      "fill-color-green" : 0.0,
                      "fill-color-opacity" : 0.0,
                      "fill-color-red" : 0.0,
                      "height" : 21.5306949615479,
                      "stroke-color-blue" : 0.109803921568627,
                      "stroke-color-green" : 0.686274509803922,
                      "stroke-color-opacity" : 1.0,
                      "stroke-color-red" : 0.92156862745098,
                      "stroke-width" : 3.0,
                      "width" : 196.471147899773,
                      "fill-style" : "solid",
                      "stroke-style" : "solid"
                    },
                    "attributes" : {
                      "autoRotateText" : true
                    },
                    "parameters" : {
                      "translation0" : -111.58649324791,
                      "translation1" : 104.289002184253
                    },
                    "effects" : [

                    ],
                    "start" : 3953,
                    "duration" : 150,
                    "mediaStart" : 0,
                    "mediaDuration" : 150,
                    "scalar" : 1,
                    "metadata" : {
                      "AppliedThemeId" : "",
                      "clipSpeedAttribute" : false,
                      "default-callout-stroke-color" : "(255,255,255,255)",
                      "default-callout-stroke-width" : "6",
                      "default-scale" : "1",
                      "effectApplied" : "none"
                    },
                    "animationTracks" : {

                    }
                  },
                  {
                    "id" : 250,
                    "_type" : "Callout",
                    "def" : {
                      "kind" : "remix",
                      "shape" : "shape-rectangle",
                      "style" : "basic",
                      "fill-color-blue" : 0.0,
                      "fill-color-green" : 0.0,
                      "fill-color-opacity" : 0.0,
                      "fill-color-red" : 0.0,
                      "height" : 28.0757656097412,
                      "stroke-color-blue" : 0.109803921568627,
                      "stroke-color-green" : 0.686274509803922,
                      "stroke-color-opacity" : 1.0,
                      "stroke-color-red" : 0.92156862745098,
                      "stroke-width" : 3.0,
                      "width" : 57.4976561900429,
                      "fill-style" : "solid",
                      "stroke-style" : "solid"
                    },
                    "attributes" : {
                      "autoRotateText" : true
                    },
                    "parameters" : {
                      "translation0" : 137.151234520165,
                      "translation1" : 169.050871022788
                    },
                    "effects" : [

                    ],
                    "start" : 5840,
                    "duration" : 380,
                    "mediaStart" : 0,
                    "mediaDuration" : 380,
                    "scalar" : 1,
                    "metadata" : {
                      "AppliedThemeId" : "",
                      "clipSpeedAttribute" : false,
                      "default-callout-stroke-color" : "(255,255,255,255)",
                      "default-callout-stroke-width" : "6",
                      "default-scale" : "1",
                      "effectApplied" : "none"
                    },
                    "animationTracks" : {

                    }
                  },
                  {
                    "id" : 251,
                    "_type" : "Callout",
                    "def" : {
                      "kind" : "remix",
                      "shape" : "shape-rectangle",
                      "style" : "basic",
                      "fill-color-blue" : 0.0,
                      "fill-color-green" : 0.0,
                      "fill-color-opacity" : 0.0,
                      "fill-color-red" : 0.0,
                      "height" : 24.9552181766596,
                      "stroke-color-blue" : 0.109803921568627,
                      "stroke-color-green" : 0.686274509803922,
                      "stroke-color-opacity" : 1.0,
                      "stroke-color-red" : 0.92156862745098,
                      "stroke-width" : 3.0,
                      "width" : 201.611059675779,
                      "fill-style" : "solid",
                      "stroke-style" : "solid"
                    },
                    "attributes" : {
                      "autoRotateText" : true
                    },
                    "parameters" : {
                      "translation0" : -103.805530644689,
                      "translation1" : -15.4776114024664
                    },
                    "effects" : [

                    ],
                    "start" : 8169,
                    "duration" : 246,
                    "mediaStart" : 0,
                    "mediaDuration" : 246,
                    "scalar" : 1,
                    "metadata" : {
                      "AppliedThemeId" : "",
                      "clipSpeedAttribute" : false,
                      "default-callout-stroke-color" : "(255,255,255,255)",
                      "default-callout-stroke-width" : "6",
                      "default-scale" : "1",
                      "effectApplied" : "none"
                    },
                    "animationTracks" : {

                    }
                  },
                  {
                    "id" : 252,
                    "_type" : "Callout",
                    "def" : {
                      "kind" : "remix",
                      "shape" : "shape-rectangle",
                      "style" : "basic",
                      "fill-color-blue" : 0.0,
                      "fill-color-green" : 0.0,
                      "fill-color-opacity" : 0.0,
                      "fill-color-red" : 0.0,
                      "height" : 22.3924256528905,
                      "stroke-color-blue" : 0.109803921568627,
                      "stroke-color-green" : 0.686274509803922,
                      "stroke-color-opacity" : 1.0,
                      "stroke-color-red" : 0.92156862745098,
                      "stroke-width" : 3.0,
                      "width" : 292.423492431641,
                      "fill-style" : "solid",
                      "stroke-style" : "solid"
                    },
                    "attributes" : {
                      "autoRotateText" : true
                    },
                    "parameters" : {
                      "translation0" : 264.140034611926,
                      "translation1" : -31.1908602746739
                    },
                    "effects" : [

                    ],
                    "start" : 8428,
                    "duration" : 150,
                    "mediaStart" : 0,
                    "mediaDuration" : 150,
                    "scalar" : 1,
                    "metadata" : {
                      "AppliedThemeId" : "",
                      "clipSpeedAttribute" : false,
                      "default-callout-stroke-color" : "(255,255,255,255)",
                      "default-callout-stroke-width" : "6",
                      "default-scale" : "1",
                      "effectApplied" : "none"
                    },
                    "animationTracks" : {

                    }
                  },
                  {
                    "id" : 253,
                    "_type" : "Callout",
                    "def" : {
                      "kind" : "remix",
                      "shape" : "shape-rectangle",
                      "style" : "basic",
                      "fill-color-blue" : 0.0,
                      "fill-color-green" : 0.0,
                      "fill-color-opacity" : 0.0,
                      "fill-color-red" : 0.0,
                      "height" : 62.6908201381256,
                      "stroke-color-blue" : 0.109803921568627,
                      "stroke-color-green" : 0.686274509803922,
                      "stroke-color-opacity" : 1.0,
                      "stroke-color-red" : 0.92156862745098,
                      "stroke-width" : 6.0,
                      "width" : 290.679595947266,
                      "fill-style" : "solid",
                      "stroke-style" : "solid"
                    },
                    "attributes" : {
                      "autoRotateText" : true
                    },
                    "parameters" : {
                      "translation0" : -64.4118961429154,
                      "translation1" : 19.4789160251301
                    },
                    "effects" : [

                    ],
                    "start" : 8744,
                    "duration" : 141,
                    "mediaStart" : 0,
                    "mediaDuration" : 141,
                    "scalar" : 1,
                    "metadata" : {
                      "AppliedThemeId" : "",
                      "clipSpeedAttribute" : false,
                      "default-callout-stroke-color" : "(255,255,255,255)",
                      "default-scale" : "1",
                      "effectApplied" : "none"
                    },
                    "animationTracks" : {

                    }
                  },
                  {
                    "id" : 254,
                    "_type" : "Callout",
                    "def" : {
                      "kind" : "remix",
                      "shape" : "shape-rectangle",
                      "style" : "basic",
                      "fill-color-blue" : 0.0,
                      "fill-color-green" : 0.0,
                      "fill-color-opacity" : 0.0,
                      "fill-color-red" : 0.0,
                      "height" : 51.8461808763521,
                      "stroke-color-blue" : 0.109803921568627,
                      "stroke-color-green" : 0.686274509803922,
                      "stroke-color-opacity" : 1.0,
                      "stroke-color-red" : 0.92156862745098,
                      "stroke-width" : 3.0,
                      "width" : 335.754425048828,
                      "fill-style" : "solid",
                      "stroke-style" : "solid"
                    },
                    "attributes" : {
                      "autoRotateText" : true
                    },
                    "parameters" : {
                      "translation0" : 41.6936743607165,
                      "translation1" : -115.147648002396
                    },
                    "effects" : [

                    ],
                    "start" : 10033,
                    "duration" : 205,
                    "mediaStart" : 0,
                    "mediaDuration" : 205,
                    "scalar" : 1,
                    "metadata" : {
                      "AppliedThemeId" : "",
                      "clipSpeedAttribute" : false,
                      "default-callout-stroke-color" : "(255,255,255,255)",
                      "default-callout-stroke-width" : "6",
                      "default-scale" : "1",
                      "effectApplied" : "none"
                    },
                    "animationTracks" : {

                    }
                  },
                  {
                    "id" : 255,
                    "_type" : "Callout",
                    "def" : {
                      "kind" : "remix",
                      "shape" : "shape-rectangle",
                      "style" : "basic",
                      "fill-color-blue" : 0.0,
                      "fill-color-green" : 0.0,
                      "fill-color-opacity" : 0.0,
                      "fill-color-red" : 0.0,
                      "height" : 24.2763878420231,
                      "stroke-color-blue" : 0.109803921568627,
                      "stroke-color-green" : 0.686274509803922,
                      "stroke-color-opacity" : 1.0,
                      "stroke-color-red" : 0.92156862745098,
                      "stroke-width" : 3.0,
                      "width" : 19.3882656573756,
                      "fill-style" : "solid",
                      "stroke-style" : "solid"
                    },
                    "attributes" : {
                      "autoRotateText" : true
                    },
                    "parameters" : {
                      "translation0" : -30.1987357946391,
                      "translation1" : 34.7816694131471
                    },
                    "effects" : [

                    ],
                    "start" : 20351,
                    "duration" : 127,
                    "mediaStart" : 0,
                    "mediaDuration" : 127,
                    "scalar" : 1,
                    "metadata" : {
                      "AppliedThemeId" : "",
                      "clipSpeedAttribute" : false,
                      "default-callout-stroke-color" : "(255,255,255,255)",
                      "default-callout-stroke-width" : "6",
                      "default-scale" : "1",
                      "effectApplied" : "none"
                    },
                    "animationTracks" : {

                    }
                  }
                ]
              },
              {
                "trackIndex" : 3,
                "medias" : [
                  {
                    "id" : 256,
                    "_type" : "Callout",
                    "def" : {
                      "kind" : "remix",
                      "shape" : "shape-rectangle",
                      "style" : "basic",
                      "fill-color-blue" : 0.0,
                      "fill-color-green" : 0.0,
                      "fill-color-opacity" : 0.0,
                      "fill-color-red" : 0.0,
                      "height" : 43.2585603908349,
                      "stroke-color-blue" : 0.109803921568627,
                      "stroke-color-green" : 0.686274509803922,
                      "stroke-color-opacity" : 1.0,
                      "stroke-color-red" : 0.92156862745098,
                      "stroke-width" : 6.0,
                      "width" : 334.978363037109,
                      "fill-style" : "solid",
                      "stroke-style" : "solid"
                    },
                    "attributes" : {
                      "autoRotateText" : true
                    },
                    "parameters" : {
                      "translation0" : -315.206611570237,
                      "translation1" : -91.7552144824885
                    },
                    "effects" : [

                    ],
                    "start" : 2166,
                    "duration" : 224,
                    "mediaStart" : 0,
                    "mediaDuration" : 224,
                    "scalar" : 1,
                    "metadata" : {
                      "AppliedThemeId" : "",
                      "clipSpeedAttribute" : false,
                      "default-callout-stroke-color" : "(255,255,255,255)",
                      "default-scale" : "1",
                      "effectApplied" : "none"
                    },
                    "animationTracks" : {

                    }
                  },
                  {
                    "id" : 257,
                    "_type" : "AMFile",
                    "src" : 11,
                    "trackNumber" : 0,
                    "attributes" : {
                      "ident" : "Rec 9-29-2019 19",
                      "sampleRate" : 44100,
                      "bitDepth" : 0,
                      "gain" : 1.0,
                      "mixToMono" : false
                    },
                      "channelNumber" : "0,1",
                    "effects" : [

                    ],
                    "start" : 3175,
                    "duration" : 159,
                    "mediaStart" : 0,
                    "mediaDuration" : 159,
                    "scalar" : 1,
                    "metadata" : {
                      "clipSpeedAttribute" : false,
                      "effectApplied" : "none"
                    },
                    "animationTracks" : {

                    }
                  },
                  {
                    "id" : 258,
                    "_type" : "AMFile",
                    "src" : 12,
                    "trackNumber" : 0,
                    "attributes" : {
                      "ident" : "Rec 9-29-2019 20",
                      "sampleRate" : 44100,
                      "bitDepth" : 0,
                      "gain" : 1.0,
                      "mixToMono" : false
                    },
                      "channelNumber" : "0,1",
                    "effects" : [

                    ],
                    "start" : 3349,
                    "duration" : 213,
                    "mediaStart" : 0,
                    "mediaDuration" : 213,
                    "scalar" : 1,
                    "metadata" : {
                      "clipSpeedAttribute" : false,
                      "effectApplied" : "none"
                    },
                    "animationTracks" : {

                    }
                  },
                  {
                    "id" : 259,
                    "_type" : "Callout",
                    "def" : {
                      "kind" : "remix",
                      "shape" : "shape-rectangle",
                      "style" : "basic",
                      "fill-color-blue" : 0.0,
                      "fill-color-green" : 0.0,
                      "fill-color-opacity" : 0.0,
                      "fill-color-red" : 0.0,
                      "height" : 28.0856481230225,
                      "stroke-color-blue" : 0.109803921568627,
                      "stroke-color-green" : 0.686274509803922,
                      "stroke-color-opacity" : 1.0,
                      "stroke-color-red" : 0.92156862745098,
                      "stroke-width" : 3.0,
                      "width" : 249.393237173709,
                      "fill-style" : "solid",
                      "stroke-style" : "solid"
                    },
                    "attributes" : {
                      "autoRotateText" : true
                    },
                    "parameters" : {
                      "translation0" : -97.8355050808016,
                      "translation1" : 169.146288137581
                    },
                    "effects" : [

                    ],
                    "start" : 8252,
                    "duration" : 163,
                    "mediaStart" : 0,
                    "mediaDuration" : 163,
                    "scalar" : 1,
                    "metadata" : {
                      "AppliedThemeId" : "",
                      "clipSpeedAttribute" : false,
                      "default-callout-stroke-color" : "(255,255,255,255)",
                      "default-callout-stroke-width" : "6",
                      "default-scale" : "1",
                      "effectApplied" : "none"
                    },
                    "animationTracks" : {

                    }
                  },
                  {
                    "id" : 260,
                    "_type" : "Callout",
                    "def" : {
                      "kind" : "remix",
                      "shape" : "shape-rectangle",
                      "style" : "basic",
                      "fill-color-blue" : 0.0,
                      "fill-color-green" : 0.0,
                      "fill-color-opacity" : 0.0,
                      "fill-color-red" : 0.0,
                      "height" : 28.3038605151161,
                      "stroke-color-blue" : 0.109803921568627,
                      "stroke-color-green" : 0.686274509803922,
                      "stroke-color-opacity" : 1.0,
                      "stroke-color-red" : 0.92156862745098,
                      "stroke-width" : 3.0,
                      "width" : 446.446777731977,
                      "fill-style" : "solid",
                      "stroke-style" : "solid"
                    },
                    "attributes" : {
                      "autoRotateText" : true
                    },
                    "parameters" : {
                      "translation0" : 345.181934601397,
                      "translation1" : -49.7017963496264
                    },
                    "effects" : [

                    ],
                    "start" : 8621,
                    "duration" : 123,
                    "mediaStart" : 0,
                    "mediaDuration" : 123,
                    "scalar" : 1,
                    "metadata" : {
                      "AppliedThemeId" : "",
                      "clipSpeedAttribute" : false,
                      "default-callout-stroke-color" : "(255,255,255,255)",
                      "default-callout-stroke-width" : "6",
                      "default-scale" : "1",
                      "effectApplied" : "none"
                    },
                    "animationTracks" : {

                    }
                  }
                ]
              },
              {
                "trackIndex" : 4,
                "medias" : [
                  {
                    "id" : 261,
                    "_type" : "Callout",
                    "def" : {
                      "kind" : "remix",
                      "shape" : "shape-rectangle",
                      "style" : "basic",
                      "fill-color-blue" : 0.0,
                      "fill-color-green" : 0.0,
                      "fill-color-opacity" : 0.0,
                      "fill-color-red" : 0.0,
                      "height" : 25.190862695226,
                      "stroke-color-blue" : 0.109803921568627,
                      "stroke-color-green" : 0.686274509803922,
                      "stroke-color-opacity" : 1.0,
                      "stroke-color-red" : 0.92156862745098,
                      "stroke-width" : 3.0,
                      "width" : 49.5782163429926,
                      "fill-style" : "solid",
                      "stroke-style" : "solid"
                    },
                    "attributes" : {
                      "autoRotateText" : true
                    },
                    "parameters" : {
                      "translation0" : -42.8089655716864,
                      "translation1" : -15.5954314454714
                    },
                    "effects" : [

                    ],
                    "start" : 8428,
                    "duration" : 150,
                    "mediaStart" : 0,
                    "mediaDuration" : 150,
                    "scalar" : 1,
                    "metadata" : {
                      "AppliedThemeId" : "",
                      "clipSpeedAttribute" : false,
                      "default-callout-stroke-color" : "(255,255,255,255)",
                      "default-callout-stroke-width" : "6",
                      "default-scale" : "1",
                      "effectApplied" : "none"
                    },
                    "animationTracks" : {

                    }
                  }
                ]
              }
            ]
          }
        }
      ]
    },
    "trackAttributes" : [
      {
        "ident" : "",
        "audioMuted" : false,
        "videoHidden" : false,
        "magnetic" : false,
        "metadata" : {
          "IsLocked" : "False",
          "trackHeight" : "33"
        }
      },
      {
        "ident" : "",
        "audioMuted" : false,
        "videoHidden" : false,
        "magnetic" : false,
        "metadata" : {
          "IsLocked" : "False",
          "trackHeight" : "33"
        }
      },
      {
        "ident" : "",
        "audioMuted" : false,
        "videoHidden" : false,
        "magnetic" : false,
        "metadata" : {
          "IsLocked" : "False",
          "trackHeight" : "33"
        }
      },
      {
        "ident" : "",
        "audioMuted" : false,
        "videoHidden" : false,
        "magnetic" : false,
        "metadata" : {
          "IsLocked" : "False",
          "trackHeight" : "33"
        }
      },
      {
        "ident" : "",
        "audioMuted" : false,
        "videoHidden" : false,
        "magnetic" : false,
        "metadata" : {
          "IsLocked" : "False",
          "trackHeight" : "33"
        }
      }
    ],
    "captionAttributes" : {
      "enabled" : true,
      "fontName" : "Arial",
      "fontSize" : 32,
      "backgroundColor" : [ 0, 0, 0, 204],
      "foregroundColor" : [ 255, 255, 255, 255],
      "lang" : "en",
      "alignment" : 0,
      "defaultFontSize" : true,
      "opacity" : 0.5,
      "backgroundEnabled" : true,
      "backgroundOnlyAroundText" : true
    },
    "backgroundColor" : [ 0, 0, 0, 255],
    "metadata" : {
      "RecordingHeight" : "800",
      "RecordingWidth" : "1280"
    }
  },
  "metadata" : {
    "CanvasSizeWarning" : 1,
    "activeThemeId" : "e59eeb42-ccf0-4a36-bdf9-e630fdab686d",
    "firstMedia" : true,
    "hasNotifiedAboutHFRMedia" : false
  },
  "audioFormatSampleRate" : 44100
,
  "themeFile" : null

}
